<svg width="288" height="163" viewBox="0 0 288 163" fill="none" xmlns="http://www.w3.org/2000/svg">
<g filter="url(#filter0_d_2148_1739)">
<rect x="5" y="1" width="278" height="153" rx="11" stroke="#16181D" stroke-width="2" shape-rendering="crispEdges"/>
<path d="M70.5 44C70.5002 46.0768 69.8844 48.1071 68.7307 49.8339C67.5769 51.5608 65.937 52.9067 64.0183 53.7015C62.0996 54.4963 59.9883 54.7042 57.9514 54.299C55.9145 53.8938 54.0435 52.8936 52.575 51.425L52.5131 51.3594L41.2725 38.6657C40.2201 37.6256 38.8836 36.92 37.4312 36.6378C35.9788 36.3555 34.4753 36.5092 33.11 37.0794C31.7447 37.6496 30.5785 38.611 29.7583 39.8424C28.9381 41.0739 28.5005 42.5204 28.5005 44C28.5005 45.4796 28.9381 46.9262 29.7583 48.1576C30.5785 49.3891 31.7447 50.3504 33.11 50.9207C34.4753 51.4909 35.9788 51.6446 37.4312 51.3623C38.8836 51.08 40.2201 50.3745 41.2725 49.3344L42.87 47.5307C43.0006 47.3829 43.1591 47.2624 43.3363 47.1759C43.5135 47.0893 43.706 47.0386 43.9029 47.0265C44.0997 47.0144 44.297 47.0412 44.4835 47.1053C44.6699 47.1695 44.842 47.2697 44.9897 47.4003C45.1374 47.531 45.258 47.6894 45.3445 47.8666C45.431 48.0438 45.4818 48.2364 45.4939 48.4332C45.506 48.63 45.4792 48.8273 45.415 49.0138C45.3509 49.2003 45.2506 49.3723 45.12 49.52L43.4906 51.3594L43.4288 51.425C41.9603 52.8934 40.0893 53.8933 38.0526 54.2984C36.0158 54.7034 33.9047 54.4954 31.9861 53.7007C30.0675 52.9059 28.4277 51.5601 27.274 49.8334C26.1203 48.1067 25.5045 46.0767 25.5045 44C25.5045 41.9234 26.1203 39.8933 27.274 38.1667C28.4277 36.44 30.0675 35.0941 31.9861 34.2994C33.9047 33.5046 36.0158 33.2966 38.0526 33.7017C40.0893 34.1068 41.9603 35.1067 43.4288 36.575L43.4906 36.6407L54.7313 49.3344C55.7836 50.3745 57.1201 51.08 58.5726 51.3623C60.025 51.6446 61.5285 51.4909 62.8938 50.9207C64.2591 50.3504 65.4252 49.3891 66.2454 48.1576C67.0657 46.9262 67.5033 45.4796 67.5033 44C67.5033 42.5204 67.0657 41.0739 66.2454 39.8424C65.4252 38.611 64.2591 37.6496 62.8938 37.0794C61.5285 36.5092 60.025 36.3555 58.5726 36.6378C57.1201 36.92 55.7836 37.6256 54.7313 38.6657L53.1338 40.4694C52.8699 40.7678 52.4984 40.9491 52.1009 40.9736C51.7034 40.998 51.3124 40.8635 51.0141 40.5997C50.7157 40.3359 50.5344 39.9644 50.5099 39.5669C50.4855 39.1693 50.6199 38.7784 50.8838 38.48L52.5131 36.6407L52.575 36.575C54.0435 35.1064 55.9145 34.1063 57.9514 33.7011C59.9883 33.2959 62.0996 33.5038 64.0183 34.2986C65.937 35.0934 67.5769 36.4393 68.7307 38.1661C69.8844 39.893 70.5002 41.9232 70.5 44Z" fill="#82BC4F"/>
<path d="M25.856 103C25.4293 103 25.216 102.787 25.216 102.36V92.44C25.216 92.0133 25.4293 91.8 25.856 91.8H29.28C30.3787 91.8 31.3067 92.0187 32.064 92.456C32.832 92.8827 33.4133 93.512 33.808 94.344C34.2027 95.176 34.4 96.1947 34.4 97.4C34.4 98.3067 34.288 99.1067 34.064 99.8C33.84 100.493 33.5093 101.08 33.072 101.56C32.6347 102.029 32.096 102.387 31.456 102.632C30.8267 102.877 30.1013 103 29.28 103H25.856ZM27.696 100.904H29.28C29.856 100.904 30.336 100.771 30.72 100.504C31.104 100.237 31.392 99.8427 31.584 99.32C31.776 98.7973 31.872 98.1573 31.872 97.4C31.872 96.6427 31.776 96.0027 31.584 95.48C31.392 94.9573 31.104 94.5627 30.72 94.296C30.336 94.0293 29.856 93.896 29.28 93.896H27.696V100.904ZM39.973 103.128C38.5223 103.128 37.461 102.744 36.789 101.976C36.1277 101.197 35.797 100.163 35.797 98.872C35.797 97.816 35.9623 96.968 36.293 96.328C36.6237 95.688 37.0823 95.224 37.669 94.936C38.2557 94.648 38.9277 94.504 39.685 94.504C40.5277 94.504 41.1997 94.696 41.701 95.08C42.2023 95.4533 42.565 95.9547 42.789 96.584C43.0237 97.2027 43.141 97.8853 43.141 98.632C43.141 98.7173 43.0877 98.84 42.981 99C42.8743 99.1493 42.757 99.2827 42.629 99.4C42.501 99.5173 42.3997 99.576 42.325 99.576H38.245C38.2983 100.216 38.485 100.659 38.805 100.904C39.1357 101.139 39.5623 101.256 40.085 101.256C40.4263 101.256 40.725 101.213 40.981 101.128C41.2477 101.043 41.4663 100.963 41.637 100.888C41.8183 100.803 41.9463 100.76 42.021 100.76C42.1383 100.76 42.261 100.84 42.389 101C42.517 101.16 42.6237 101.336 42.709 101.528C42.805 101.72 42.853 101.869 42.853 101.976C42.853 102.179 42.7463 102.355 42.533 102.504C42.3303 102.643 42.069 102.76 41.749 102.856C41.4397 102.952 41.1197 103.021 40.789 103.064C40.469 103.107 40.197 103.128 39.973 103.128ZM38.245 97.992H40.837C40.837 97.5227 40.7463 97.1387 40.565 96.84C40.3837 96.5307 40.0903 96.376 39.685 96.376C39.3543 96.376 39.0557 96.4933 38.789 96.728C38.5223 96.952 38.341 97.3733 38.245 97.992ZM47.2258 103.032C46.9911 103.032 46.7938 103.011 46.6338 102.968C46.4844 102.915 46.3831 102.824 46.3298 102.696L43.7858 95.24C43.7751 95.1867 43.7591 95.1387 43.7378 95.096C43.7271 95.0427 43.7218 94.9947 43.7218 94.952C43.7218 94.7173 44.0471 94.6 44.6978 94.6H45.2258C45.4604 94.6 45.6578 94.6267 45.8178 94.68C45.9778 94.7227 46.0791 94.808 46.1218 94.936L46.9218 97.464C47.0711 97.9227 47.1938 98.376 47.2898 98.824C47.3964 99.2613 47.4711 99.6507 47.5138 99.992H47.5778C47.6204 99.6613 47.6898 99.2827 47.7858 98.856C47.8818 98.4187 48.0098 97.9547 48.1698 97.464L48.9698 94.936C49.0124 94.808 49.1138 94.7227 49.2738 94.68C49.4338 94.6267 49.6311 94.6 49.8658 94.6H50.2658C50.9058 94.6 51.2258 94.7173 51.2258 94.952C51.2258 95.0267 51.2098 95.1227 51.1778 95.24L48.6338 102.696C48.5911 102.824 48.4898 102.915 48.3298 102.968C48.1698 103.011 47.9724 103.032 47.7378 103.032H47.2258ZM57.2154 103.128C55.5727 103.128 54.3034 102.637 53.4074 101.656C52.522 100.664 52.0794 99.2453 52.0794 97.4C52.0794 95.5547 52.522 94.1413 53.4074 93.16C54.3034 92.168 55.5727 91.672 57.2154 91.672C58.8687 91.672 60.1327 92.168 61.0074 93.16C61.8927 94.1413 62.3354 95.5547 62.3354 97.4C62.3354 99.2453 61.8927 100.664 61.0074 101.656C60.1327 102.637 58.8687 103.128 57.2154 103.128ZM57.2154 101.032C58.0687 101.032 58.714 100.723 59.1514 100.104C59.5887 99.4747 59.8074 98.5733 59.8074 97.4C59.8074 96.2267 59.5887 95.3307 59.1514 94.712C58.714 94.0933 58.0687 93.784 57.2154 93.784C56.362 93.784 55.7114 94.0933 55.2634 94.712C54.826 95.3307 54.6074 96.2267 54.6074 97.4C54.6074 98.5733 54.826 99.4747 55.2634 100.104C55.7114 100.723 56.362 101.032 57.2154 101.032ZM65.1425 106.296C64.5025 106.296 64.1825 106.125 64.1825 105.784V97.448C64.1825 96.9147 64.1665 96.504 64.1345 96.216C64.1025 95.928 64.0705 95.7147 64.0385 95.576C64.0065 95.4267 63.9905 95.2987 63.9905 95.192C63.9905 95.096 64.0598 95.016 64.1985 94.952C64.3478 94.888 64.5238 94.8347 64.7265 94.792C64.9398 94.7493 65.1425 94.7227 65.3345 94.712C65.5372 94.6907 65.6865 94.68 65.7825 94.68C65.9532 94.68 66.0758 94.7387 66.1505 94.856C66.2358 94.9733 66.2945 95.112 66.3265 95.272C66.3585 95.432 66.3905 95.576 66.4225 95.704C66.6038 95.3627 66.8812 95.08 67.2545 94.856C67.6385 94.6213 68.0758 94.504 68.5665 94.504C69.1425 94.504 69.6545 94.6693 70.1025 95C70.5612 95.3307 70.9185 95.8213 71.1745 96.472C71.4305 97.112 71.5585 97.896 71.5585 98.824C71.5585 100.125 71.2652 101.171 70.6785 101.96C70.0918 102.739 69.2598 103.128 68.1825 103.128C67.8092 103.128 67.4838 103.075 67.2065 102.968C66.9398 102.861 66.7212 102.749 66.5505 102.632V105.784C66.5505 106.125 66.2305 106.296 65.5905 106.296H65.1425ZM67.6705 101.256C68.1718 101.256 68.5452 101.053 68.7905 100.648C69.0358 100.232 69.1585 99.624 69.1585 98.824C69.1585 98.0453 69.0518 97.4533 68.8385 97.048C68.6252 96.6427 68.2998 96.44 67.8625 96.44C67.5638 96.44 67.3078 96.536 67.0945 96.728C66.8812 96.92 66.6998 97.1387 66.5505 97.384V100.952C66.6785 101.027 66.8332 101.096 67.0145 101.16C67.2065 101.224 67.4252 101.256 67.6705 101.256ZM75.3384 103.128C74.9437 103.128 74.5384 103.085 74.1224 103C73.717 102.915 73.3757 102.792 73.0984 102.632C72.821 102.461 72.6824 102.264 72.6824 102.04C72.6824 101.901 72.7304 101.736 72.8264 101.544C72.9224 101.352 73.0344 101.181 73.1624 101.032C73.301 100.883 73.4237 100.808 73.5304 100.808C73.6157 100.808 73.7277 100.845 73.8664 100.92C74.0157 100.995 74.197 101.069 74.4104 101.144C74.6237 101.219 74.869 101.256 75.1464 101.256C75.797 101.256 76.1224 101.032 76.1224 100.584C76.1224 100.339 75.9997 100.152 75.7544 100.024C75.509 99.896 75.1997 99.752 74.8264 99.592C74.5704 99.4747 74.2877 99.3307 73.9784 99.16C73.6797 98.9893 73.4184 98.744 73.1944 98.424C72.981 98.104 72.8744 97.672 72.8744 97.128C72.8744 96.5733 72.9917 96.104 73.2264 95.72C73.4717 95.3253 73.813 95.0267 74.2504 94.824C74.6877 94.6107 75.1997 94.504 75.7864 94.504C76.0957 94.504 76.437 94.536 76.8104 94.6C77.1837 94.6533 77.5037 94.7493 77.7704 94.888C78.0477 95.0267 78.1864 95.208 78.1864 95.432C78.1864 95.5493 78.149 95.7093 78.0744 95.912C77.9997 96.1147 77.909 96.296 77.8024 96.456C77.7064 96.616 77.605 96.696 77.4984 96.696C77.413 96.696 77.253 96.6427 77.0184 96.536C76.7837 96.4187 76.469 96.36 76.0744 96.36C75.8077 96.36 75.5997 96.408 75.4504 96.504C75.301 96.5893 75.2264 96.7387 75.2264 96.952C75.2264 97.2187 75.349 97.416 75.5944 97.544C75.8397 97.6613 76.1597 97.7947 76.5544 97.944C76.821 98.04 77.0984 98.1733 77.3864 98.344C77.685 98.5147 77.941 98.7653 78.1544 99.096C78.3677 99.416 78.4744 99.848 78.4744 100.392C78.4744 100.936 78.3517 101.416 78.1064 101.832C77.861 102.237 77.5037 102.557 77.0344 102.792C76.5757 103.016 76.0104 103.128 75.3384 103.128Z" fill="#E2E4E9"/>
<path d="M29.166 130.14C28.214 130.14 27.416 129.963 26.772 129.608C26.128 129.244 25.6427 128.707 25.316 127.998C24.9987 127.279 24.84 126.388 24.84 125.324C24.84 124.26 24.9987 123.373 25.316 122.664C25.6427 121.955 26.128 121.423 26.772 121.068C27.416 120.713 28.214 120.536 29.166 120.536C29.6793 120.536 30.1833 120.587 30.678 120.69C31.1727 120.793 31.6487 120.951 32.106 121.166V122.216C31.6673 122.02 31.21 121.852 30.734 121.712C30.258 121.563 29.7727 121.488 29.278 121.488C28.494 121.488 27.8453 121.628 27.332 121.908C26.828 122.179 26.4547 122.599 26.212 123.168C25.9693 123.728 25.848 124.447 25.848 125.324C25.848 126.201 25.9693 126.925 26.212 127.494C26.4547 128.063 26.828 128.488 27.332 128.768C27.8453 129.039 28.494 129.174 29.278 129.174C29.6513 129.174 30.0153 129.146 30.37 129.09C30.7247 129.034 31.0747 128.95 31.42 128.838V126.178H29.166V125.198H32.428V129.412C31.9147 129.655 31.3873 129.837 30.846 129.958C30.3047 130.079 29.7447 130.14 29.166 130.14ZM37.6153 130.21C36.9527 130.21 36.3787 130.075 35.8933 129.804C35.408 129.524 35.0347 129.109 34.7733 128.558C34.512 128.007 34.3813 127.321 34.3813 126.5C34.3813 125.296 34.652 124.395 35.1933 123.798C35.744 123.191 36.4953 122.888 37.4473 122.888C38.194 122.888 38.7913 123.056 39.2393 123.392C39.6967 123.728 40.0233 124.181 40.2193 124.75C40.4153 125.319 40.5087 125.963 40.4993 126.682H34.8853L34.9553 125.758H39.8413L39.4493 125.898C39.4213 125.198 39.244 124.675 38.9173 124.33C38.6 123.985 38.11 123.812 37.4473 123.812C36.99 123.812 36.6073 123.896 36.2993 124.064C36.0007 124.232 35.7767 124.526 35.6273 124.946C35.478 125.357 35.4033 125.935 35.4033 126.682C35.4033 127.531 35.5993 128.18 35.9913 128.628C36.3927 129.067 36.9527 129.286 37.6713 129.286C38.0167 129.286 38.334 129.263 38.6233 129.216C38.9127 129.16 39.1787 129.085 39.4213 128.992C39.664 128.899 39.8787 128.796 40.0653 128.684V129.72C39.7293 129.879 39.356 130 38.9453 130.084C38.544 130.168 38.1007 130.21 37.6153 130.21ZM44.3616 130.21C43.8576 130.21 43.4329 130.159 43.0876 130.056C42.7516 129.953 42.4016 129.809 42.0376 129.622V128.558C42.3269 128.717 42.5836 128.852 42.8076 128.964C43.0316 129.076 43.2602 129.16 43.4936 129.216C43.7269 129.263 43.9929 129.286 44.2916 129.286C44.7582 129.286 45.1362 129.183 45.4256 128.978C45.7242 128.773 45.8736 128.507 45.8736 128.18C45.8736 127.919 45.7989 127.718 45.6496 127.578C45.5096 127.438 45.3276 127.321 45.1036 127.228C44.8796 127.135 44.6462 127.037 44.4036 126.934C44.1329 126.859 43.8576 126.78 43.5776 126.696C43.3069 126.603 43.0549 126.486 42.8216 126.346C42.5976 126.197 42.4156 126.01 42.2756 125.786C42.1356 125.553 42.0656 125.254 42.0656 124.89C42.0656 124.535 42.1356 124.232 42.2756 123.98C42.4249 123.728 42.6162 123.523 42.8496 123.364C43.0829 123.196 43.3442 123.075 43.6336 123C43.9229 122.925 44.2122 122.888 44.5016 122.888C44.9216 122.888 45.2809 122.944 45.5796 123.056C45.8782 123.168 46.1862 123.294 46.5036 123.434V124.442C46.1489 124.255 45.8316 124.106 45.5516 123.994C45.2716 123.873 44.9402 123.812 44.5576 123.812C44.1749 123.812 43.8296 123.891 43.5216 124.05C43.2229 124.199 43.0736 124.433 43.0736 124.75C43.0736 125.011 43.1482 125.221 43.2976 125.38C43.4562 125.529 43.6616 125.651 43.9136 125.744C44.1656 125.828 44.4362 125.912 44.7256 125.996C44.9589 126.071 45.2016 126.155 45.4536 126.248C45.7056 126.332 45.9389 126.449 46.1536 126.598C46.3682 126.738 46.5409 126.925 46.6716 127.158C46.8116 127.391 46.8816 127.69 46.8816 128.054C46.8816 128.549 46.7556 128.959 46.5036 129.286C46.2516 129.603 45.9296 129.837 45.5376 129.986C45.1549 130.135 44.7629 130.21 44.3616 130.21ZM50.9703 130.112C50.4757 130.112 50.0603 129.963 49.7243 129.664C49.3883 129.356 49.2203 128.903 49.2203 128.306V123.938H48.0023V123.014H49.2203V121.04H50.2283V123.014H52.0343V123.938H50.2283V127.984C50.2283 128.376 50.289 128.67 50.4103 128.866C50.5317 129.062 50.779 129.16 51.1523 129.16C51.3203 129.16 51.4837 129.146 51.6423 129.118C51.801 129.081 51.9317 129.039 52.0343 128.992V129.944C51.9037 129.991 51.7357 130.028 51.5303 130.056C51.3343 130.093 51.1477 130.112 50.9703 130.112ZM56.2663 130.21C55.9583 130.21 55.6456 130.177 55.3283 130.112C55.0203 130.047 54.7309 129.935 54.4603 129.776C54.1989 129.617 53.9843 129.403 53.8163 129.132C53.6576 128.852 53.5783 128.502 53.5783 128.082C53.5783 127.503 53.6856 127.041 53.9003 126.696C54.1243 126.341 54.4276 126.089 54.8103 125.94C55.2023 125.781 55.6503 125.702 56.1543 125.702C56.5369 125.702 56.8683 125.725 57.1483 125.772C57.4283 125.819 57.6756 125.889 57.8903 125.982C58.1143 126.066 58.3149 126.164 58.4923 126.276L58.6883 127.2C58.4736 127.041 58.1609 126.906 57.7503 126.794C57.3489 126.673 56.9056 126.612 56.4203 126.612C55.8323 126.612 55.3796 126.724 55.0623 126.948C54.7449 127.172 54.5863 127.499 54.5863 127.928C54.5863 128.273 54.6796 128.549 54.8663 128.754C55.0623 128.959 55.3049 129.104 55.5943 129.188C55.8929 129.272 56.1963 129.314 56.5043 129.314C57.1109 129.314 57.5683 129.272 57.8763 129.188C58.1936 129.095 58.3523 128.889 58.3523 128.572V125.366C58.3523 124.825 58.1936 124.428 57.8763 124.176C57.5589 123.924 57.1063 123.798 56.5183 123.798C56.1449 123.798 55.7483 123.854 55.3283 123.966C54.9176 124.069 54.5629 124.237 54.2643 124.47V123.462C54.5536 123.275 54.9409 123.135 55.4263 123.042C55.9116 122.939 56.3829 122.888 56.8403 122.888C57.1483 122.888 57.4329 122.921 57.6943 122.986C57.9556 123.042 58.1889 123.131 58.3943 123.252C58.5996 123.364 58.7723 123.513 58.9123 123.7C59.0616 123.877 59.1736 124.087 59.2483 124.33C59.3323 124.563 59.3743 124.829 59.3743 125.128V128.516C59.3743 129.011 59.2249 129.379 58.9263 129.622C58.6369 129.865 58.2543 130.023 57.7783 130.098C57.3116 130.173 56.8076 130.21 56.2663 130.21ZM55.4823 122.384H54.8383C54.7543 122.048 54.7589 121.763 54.8523 121.53C54.9456 121.297 55.0856 121.119 55.2723 120.998C55.4683 120.877 55.6643 120.816 55.8603 120.816C56.0843 120.816 56.2849 120.863 56.4623 120.956C56.6396 121.04 56.7983 121.143 56.9383 121.264C57.0876 121.376 57.2276 121.479 57.3583 121.572C57.4889 121.656 57.6243 121.698 57.7643 121.698C57.8949 121.698 57.9929 121.642 58.0583 121.53C58.1329 121.409 58.1469 121.241 58.1003 121.026H58.8283C58.8843 121.297 58.8703 121.544 58.7863 121.768C58.7023 121.983 58.5623 122.155 58.3663 122.286C58.1703 122.417 57.9323 122.482 57.6523 122.482C57.4469 122.482 57.2603 122.44 57.0923 122.356C56.9243 122.263 56.7656 122.16 56.6163 122.048C56.4763 121.936 56.3409 121.838 56.2103 121.754C56.0796 121.661 55.9583 121.614 55.8463 121.614C55.7249 121.614 55.6176 121.675 55.5243 121.796C55.4403 121.917 55.4263 122.113 55.4823 122.384ZM64.4802 130.21C63.3882 130.21 62.5762 129.888 62.0442 129.244C61.5216 128.591 61.2602 127.685 61.2602 126.528C61.2602 125.315 61.5356 124.405 62.0862 123.798C62.6462 123.191 63.4349 122.888 64.4522 122.888C65.2082 122.888 65.8242 123.042 66.3002 123.35C66.7762 123.649 67.1262 124.073 67.3502 124.624C67.5742 125.165 67.6862 125.8 67.6862 126.528C67.6862 127.676 67.4062 128.577 66.8462 129.23C66.2956 129.883 65.5069 130.21 64.4802 130.21ZM64.4662 129.286C65.0356 129.286 65.4789 129.165 65.7962 128.922C66.1136 128.67 66.3376 128.339 66.4682 127.928C66.6082 127.508 66.6782 127.041 66.6782 126.528C66.6782 125.977 66.6082 125.501 66.4682 125.1C66.3282 124.689 66.0949 124.372 65.7682 124.148C65.4509 123.924 65.0169 123.812 64.4662 123.812C63.9062 123.812 63.4676 123.933 63.1502 124.176C62.8329 124.419 62.6042 124.745 62.4642 125.156C62.3336 125.557 62.2682 126.015 62.2682 126.528C62.2682 127.349 62.4316 128.017 62.7582 128.53C63.0849 129.034 63.6542 129.286 64.4662 129.286ZM76.5255 130.21C75.8628 130.21 75.2888 130.075 74.8035 129.804C74.3182 129.524 73.9448 129.109 73.6835 128.558C73.4222 128.007 73.2915 127.321 73.2915 126.5C73.2915 125.296 73.5622 124.395 74.1035 123.798C74.6542 123.191 75.4055 122.888 76.3575 122.888C77.1042 122.888 77.7015 123.056 78.1495 123.392C78.6068 123.728 78.9335 124.181 79.1295 124.75C79.3255 125.319 79.4188 125.963 79.4095 126.682H73.7955L73.8655 125.758H78.7515L78.3595 125.898C78.3315 125.198 78.1542 124.675 77.8275 124.33C77.5102 123.985 77.0202 123.812 76.3575 123.812C75.9002 123.812 75.5175 123.896 75.2095 124.064C74.9108 124.232 74.6868 124.526 74.5375 124.946C74.3882 125.357 74.3135 125.935 74.3135 126.682C74.3135 127.531 74.5095 128.18 74.9015 128.628C75.3028 129.067 75.8628 129.286 76.5815 129.286C76.9268 129.286 77.2442 129.263 77.5335 129.216C77.8228 129.16 78.0888 129.085 78.3315 128.992C78.5742 128.899 78.7888 128.796 78.9755 128.684V129.72C78.6395 129.879 78.2662 130 77.8555 130.084C77.4542 130.168 77.0108 130.21 76.5255 130.21ZM85.4143 130V123.014H86.4223V130H85.4143ZM85.3583 121.768V120.662H86.4783V121.768H85.3583ZM88.7216 123.574C88.9456 123.462 89.1742 123.364 89.4076 123.28C89.6502 123.187 89.8929 123.112 90.1356 123.056C90.3876 123 90.6396 122.958 90.8916 122.93C91.1529 122.902 91.4142 122.888 91.6756 122.888C92.3569 122.888 92.8982 122.991 93.2996 123.196C93.7009 123.392 93.9902 123.681 94.1676 124.064C94.3542 124.447 94.4476 124.909 94.4476 125.45V130H93.4396V125.45C93.4396 125.282 93.4162 125.105 93.3696 124.918C93.3322 124.731 93.2529 124.554 93.1316 124.386C93.0102 124.209 92.8236 124.069 92.5716 123.966C92.3196 123.854 91.9836 123.798 91.5636 123.798C91.2742 123.798 90.9756 123.821 90.6676 123.868C90.3596 123.915 90.0469 123.985 89.7296 124.078V130H88.7216V123.574ZM97.3363 130V123.938H96.1323V123.014H97.3363V122.636C97.3363 122.123 97.3923 121.707 97.5043 121.39C97.6256 121.063 97.7796 120.811 97.9663 120.634C98.1529 120.447 98.3489 120.317 98.5543 120.242C98.7596 120.158 98.9556 120.111 99.1423 120.102C99.3289 120.083 99.4783 120.074 99.5903 120.074C99.7209 120.074 99.8423 120.083 99.9543 120.102C100.066 120.111 100.169 120.13 100.262 120.158V121.054C100.197 121.035 100.122 121.021 100.038 121.012C99.9543 121.003 99.8609 120.998 99.7583 120.998C99.5996 120.998 99.4363 121.007 99.2683 121.026C99.1003 121.045 98.9463 121.105 98.8063 121.208C98.6663 121.301 98.5543 121.46 98.4703 121.684C98.3863 121.899 98.3443 122.211 98.3443 122.622V123.014H100.262V123.938H98.3443V130H97.3363ZM101.942 130V123.574C102.054 123.527 102.269 123.448 102.586 123.336C102.913 123.224 103.3 123.121 103.748 123.028C104.206 122.935 104.677 122.888 105.162 122.888C105.237 122.888 105.312 122.897 105.386 122.916C105.461 122.935 105.536 122.953 105.61 122.972V123.868C105.368 123.84 105.13 123.826 104.896 123.826C104.672 123.826 104.453 123.84 104.238 123.868C104.024 123.887 103.809 123.915 103.594 123.952C103.38 123.989 103.165 124.027 102.95 124.064V130H101.942ZM109.628 130.21C109.32 130.21 109.007 130.177 108.69 130.112C108.382 130.047 108.092 129.935 107.822 129.776C107.56 129.617 107.346 129.403 107.178 129.132C107.019 128.852 106.94 128.502 106.94 128.082C106.94 127.503 107.047 127.041 107.262 126.696C107.486 126.341 107.789 126.089 108.172 125.94C108.564 125.781 109.012 125.702 109.516 125.702C109.898 125.702 110.23 125.725 110.51 125.772C110.79 125.819 111.037 125.889 111.252 125.982C111.476 126.066 111.676 126.164 111.854 126.276L112.05 127.2C111.835 127.041 111.522 126.906 111.112 126.794C110.71 126.673 110.267 126.612 109.782 126.612C109.194 126.612 108.741 126.724 108.424 126.948C108.106 127.172 107.948 127.499 107.948 127.928C107.948 128.273 108.041 128.549 108.228 128.754C108.424 128.959 108.666 129.104 108.956 129.188C109.254 129.272 109.558 129.314 109.866 129.314C110.472 129.314 110.93 129.272 111.238 129.188C111.555 129.095 111.714 128.889 111.714 128.572V125.366C111.714 124.825 111.555 124.428 111.238 124.176C110.92 123.924 110.468 123.798 109.88 123.798C109.506 123.798 109.11 123.854 108.69 123.966C108.279 124.069 107.924 124.237 107.626 124.47V123.462C107.915 123.275 108.302 123.135 108.788 123.042C109.273 122.939 109.744 122.888 110.202 122.888C110.51 122.888 110.794 122.921 111.056 122.986C111.317 123.042 111.55 123.131 111.756 123.252C111.961 123.364 112.134 123.513 112.274 123.7C112.423 123.877 112.535 124.087 112.61 124.33C112.694 124.563 112.736 124.829 112.736 125.128V128.516C112.736 129.011 112.586 129.379 112.288 129.622C111.998 129.865 111.616 130.023 111.14 130.098C110.673 130.173 110.169 130.21 109.628 130.21ZM117.856 130.21C117.193 130.21 116.619 130.075 116.134 129.804C115.648 129.524 115.275 129.109 115.014 128.558C114.752 128.007 114.622 127.321 114.622 126.5C114.622 125.296 114.892 124.395 115.434 123.798C115.984 123.191 116.736 122.888 117.688 122.888C118.434 122.888 119.032 123.056 119.48 123.392C119.937 123.728 120.264 124.181 120.46 124.75C120.656 125.319 120.749 125.963 120.74 126.682H115.126L115.196 125.758H120.082L119.69 125.898C119.662 125.198 119.484 124.675 119.158 124.33C118.84 123.985 118.35 123.812 117.688 123.812C117.23 123.812 116.848 123.896 116.54 124.064C116.241 124.232 116.017 124.526 115.868 124.946C115.718 125.357 115.644 125.935 115.644 126.682C115.644 127.531 115.84 128.18 116.232 128.628C116.633 129.067 117.193 129.286 117.912 129.286C118.257 129.286 118.574 129.263 118.864 129.216C119.153 129.16 119.419 129.085 119.662 128.992C119.904 128.899 120.119 128.796 120.306 128.684V129.72C119.97 129.879 119.596 130 119.186 130.084C118.784 130.168 118.341 130.21 117.856 130.21ZM124.602 130.21C124.098 130.21 123.673 130.159 123.328 130.056C122.992 129.953 122.642 129.809 122.278 129.622V128.558C122.567 128.717 122.824 128.852 123.048 128.964C123.272 129.076 123.5 129.16 123.734 129.216C123.967 129.263 124.233 129.286 124.532 129.286C124.998 129.286 125.376 129.183 125.666 128.978C125.964 128.773 126.114 128.507 126.114 128.18C126.114 127.919 126.039 127.718 125.89 127.578C125.75 127.438 125.568 127.321 125.344 127.228C125.12 127.135 124.886 127.037 124.644 126.934C124.373 126.859 124.098 126.78 123.818 126.696C123.547 126.603 123.295 126.486 123.062 126.346C122.838 126.197 122.656 126.01 122.516 125.786C122.376 125.553 122.306 125.254 122.306 124.89C122.306 124.535 122.376 124.232 122.516 123.98C122.665 123.728 122.856 123.523 123.09 123.364C123.323 123.196 123.584 123.075 123.874 123C124.163 122.925 124.452 122.888 124.742 122.888C125.162 122.888 125.521 122.944 125.82 123.056C126.118 123.168 126.426 123.294 126.744 123.434V124.442C126.389 124.255 126.072 124.106 125.792 123.994C125.512 123.873 125.18 123.812 124.798 123.812C124.415 123.812 124.07 123.891 123.762 124.05C123.463 124.199 123.314 124.433 123.314 124.75C123.314 125.011 123.388 125.221 123.538 125.38C123.696 125.529 123.902 125.651 124.154 125.744C124.406 125.828 124.676 125.912 124.966 125.996C125.199 126.071 125.442 126.155 125.694 126.248C125.946 126.332 126.179 126.449 126.394 126.598C126.608 126.738 126.781 126.925 126.912 127.158C127.052 127.391 127.122 127.69 127.122 128.054C127.122 128.549 126.996 128.959 126.744 129.286C126.492 129.603 126.17 129.837 125.778 129.986C125.395 130.135 125.003 130.21 124.602 130.21ZM131.211 130.112C130.716 130.112 130.301 129.963 129.965 129.664C129.629 129.356 129.461 128.903 129.461 128.306V123.938H128.243V123.014H129.461V121.04H130.469V123.014H132.275V123.938H130.469V127.984C130.469 128.376 130.529 128.67 130.651 128.866C130.772 129.062 131.019 129.16 131.393 129.16C131.561 129.16 131.724 129.146 131.883 129.118C132.041 129.081 132.172 129.039 132.275 128.992V129.944C132.144 129.991 131.976 130.028 131.771 130.056C131.575 130.093 131.388 130.112 131.211 130.112ZM134.099 130V123.574C134.211 123.527 134.425 123.448 134.743 123.336C135.069 123.224 135.457 123.121 135.905 123.028C136.362 122.935 136.833 122.888 137.319 122.888C137.393 122.888 137.468 122.897 137.543 122.916C137.617 122.935 137.692 122.953 137.767 122.972V123.868C137.524 123.84 137.286 123.826 137.053 123.826C136.829 123.826 136.609 123.84 136.395 123.868C136.18 123.887 135.965 123.915 135.751 123.952C135.536 123.989 135.321 124.027 135.107 124.064V130H134.099ZM142.302 130.21C141.686 130.21 141.159 130.103 140.72 129.888C140.281 129.673 139.945 129.361 139.712 128.95C139.488 128.539 139.376 128.035 139.376 127.438V123.014H140.384V127.214C140.384 127.923 140.538 128.446 140.846 128.782C141.163 129.109 141.649 129.272 142.302 129.272C142.955 129.272 143.436 129.109 143.744 128.782C144.061 128.446 144.22 127.923 144.22 127.214V123.014H145.228V127.438C145.228 128.325 144.971 129.011 144.458 129.496C143.954 129.972 143.235 130.21 142.302 130.21ZM149.668 130.112C149.173 130.112 148.758 129.963 148.422 129.664C148.086 129.356 147.918 128.903 147.918 128.306V123.938H146.7V123.014H147.918V121.04H148.926V123.014H150.732V123.938H148.926V127.984C148.926 128.376 148.986 128.67 149.108 128.866C149.229 129.062 149.476 129.16 149.85 129.16C150.018 129.16 150.181 129.146 150.34 129.118C150.498 129.081 150.629 129.039 150.732 128.992V129.944C150.601 129.991 150.433 130.028 150.228 130.056C150.032 130.093 149.845 130.112 149.668 130.112ZM155.482 130.21C154.866 130.21 154.338 130.103 153.9 129.888C153.461 129.673 153.125 129.361 152.892 128.95C152.668 128.539 152.556 128.035 152.556 127.438V123.014H153.564V127.214C153.564 127.923 153.718 128.446 154.026 128.782C154.343 129.109 154.828 129.272 155.482 129.272C156.135 129.272 156.616 129.109 156.924 128.782C157.241 128.446 157.4 127.923 157.4 127.214V123.014H158.408V127.438C158.408 128.325 158.151 129.011 157.638 129.496C157.134 129.972 156.415 130.21 155.482 130.21ZM160.649 130V123.574C160.761 123.527 160.976 123.448 161.293 123.336C161.62 123.224 162.007 123.121 162.455 123.028C162.913 122.935 163.384 122.888 163.869 122.888C163.944 122.888 164.019 122.897 164.093 122.916C164.168 122.935 164.243 122.953 164.317 122.972V123.868C164.075 123.84 163.837 123.826 163.603 123.826C163.379 123.826 163.16 123.84 162.945 123.868C162.731 123.887 162.516 123.915 162.301 123.952C162.087 123.989 161.872 124.027 161.657 124.064V130H160.649ZM168.335 130.21C168.027 130.21 167.714 130.177 167.397 130.112C167.089 130.047 166.799 129.935 166.529 129.776C166.267 129.617 166.053 129.403 165.885 129.132C165.726 128.852 165.647 128.502 165.647 128.082C165.647 127.503 165.754 127.041 165.969 126.696C166.193 126.341 166.496 126.089 166.879 125.94C167.271 125.781 167.719 125.702 168.223 125.702C168.605 125.702 168.937 125.725 169.217 125.772C169.497 125.819 169.744 125.889 169.959 125.982C170.183 126.066 170.383 126.164 170.561 126.276L170.757 127.2C170.542 127.041 170.229 126.906 169.819 126.794C169.417 126.673 168.974 126.612 168.489 126.612C167.901 126.612 167.448 126.724 167.131 126.948C166.813 127.172 166.655 127.499 166.655 127.928C166.655 128.273 166.748 128.549 166.935 128.754C167.131 128.959 167.373 129.104 167.663 129.188C167.961 129.272 168.265 129.314 168.573 129.314C169.179 129.314 169.637 129.272 169.945 129.188C170.262 129.095 170.421 128.889 170.421 128.572V125.366C170.421 124.825 170.262 124.428 169.945 124.176C169.627 123.924 169.175 123.798 168.587 123.798C168.213 123.798 167.817 123.854 167.397 123.966C166.986 124.069 166.631 124.237 166.333 124.47V123.462C166.622 123.275 167.009 123.135 167.495 123.042C167.98 122.939 168.451 122.888 168.909 122.888C169.217 122.888 169.501 122.921 169.763 122.986C170.024 123.042 170.257 123.131 170.463 123.252C170.668 123.364 170.841 123.513 170.981 123.7C171.13 123.877 171.242 124.087 171.317 124.33C171.401 124.563 171.443 124.829 171.443 125.128V128.516C171.443 129.011 171.293 129.379 170.995 129.622C170.705 129.865 170.323 130.023 169.847 130.098C169.38 130.173 168.876 130.21 168.335 130.21ZM180.637 130.21C180.301 130.21 179.946 130.159 179.573 130.056C179.2 129.963 178.845 129.785 178.509 129.524C178.182 129.253 177.912 128.871 177.697 128.376C177.492 127.872 177.389 127.219 177.389 126.416C177.389 125.333 177.65 124.479 178.173 123.854C178.705 123.219 179.508 122.902 180.581 122.902C180.786 122.902 181.029 122.93 181.309 122.986C181.589 123.042 181.864 123.112 182.135 123.196C182.406 123.28 182.63 123.369 182.807 123.462L182.457 123.812V120.06H183.465V128.796C183.465 129.057 183.372 129.281 183.185 129.468C183.008 129.645 182.774 129.79 182.485 129.902C182.196 130.005 181.888 130.079 181.561 130.126C181.234 130.182 180.926 130.21 180.637 130.21ZM180.651 129.286C181.136 129.286 181.556 129.23 181.911 129.118C182.275 129.006 182.457 128.866 182.457 128.698V124.316C182.168 124.148 181.855 124.027 181.519 123.952C181.192 123.868 180.88 123.826 180.581 123.826C180.077 123.826 179.666 123.938 179.349 124.162C179.041 124.377 178.812 124.68 178.663 125.072C178.523 125.455 178.453 125.903 178.453 126.416C178.453 126.92 178.509 127.391 178.621 127.83C178.733 128.259 178.948 128.609 179.265 128.88C179.582 129.151 180.044 129.286 180.651 129.286ZM188.118 130.21C187.81 130.21 187.497 130.177 187.18 130.112C186.872 130.047 186.583 129.935 186.312 129.776C186.051 129.617 185.836 129.403 185.668 129.132C185.509 128.852 185.43 128.502 185.43 128.082C185.43 127.503 185.537 127.041 185.752 126.696C185.976 126.341 186.279 126.089 186.662 125.94C187.054 125.781 187.502 125.702 188.006 125.702C188.389 125.702 188.72 125.725 189 125.772C189.28 125.819 189.527 125.889 189.742 125.982C189.966 126.066 190.167 126.164 190.344 126.276L190.54 127.2C190.325 127.041 190.013 126.906 189.602 126.794C189.201 126.673 188.757 126.612 188.272 126.612C187.684 126.612 187.231 126.724 186.914 126.948C186.597 127.172 186.438 127.499 186.438 127.928C186.438 128.273 186.531 128.549 186.718 128.754C186.914 128.959 187.157 129.104 187.446 129.188C187.745 129.272 188.048 129.314 188.356 129.314C188.963 129.314 189.42 129.272 189.728 129.188C190.045 129.095 190.204 128.889 190.204 128.572V125.366C190.204 124.825 190.045 124.428 189.728 124.176C189.411 123.924 188.958 123.798 188.37 123.798C187.997 123.798 187.6 123.854 187.18 123.966C186.769 124.069 186.415 124.237 186.116 124.47V123.462C186.405 123.275 186.793 123.135 187.278 123.042C187.763 122.939 188.235 122.888 188.692 122.888C189 122.888 189.285 122.921 189.546 122.986C189.807 123.042 190.041 123.131 190.246 123.252C190.451 123.364 190.624 123.513 190.764 123.7C190.913 123.877 191.025 124.087 191.1 124.33C191.184 124.563 191.226 124.829 191.226 125.128V128.516C191.226 129.011 191.077 129.379 190.778 129.622C190.489 129.865 190.106 130.023 189.63 130.098C189.163 130.173 188.659 130.21 188.118 130.21ZM199.93 130.21C199.622 130.21 199.31 130.177 198.992 130.112C198.684 130.047 198.395 129.935 198.124 129.776C197.863 129.617 197.648 129.403 197.48 129.132C197.322 128.852 197.242 128.502 197.242 128.082C197.242 127.503 197.35 127.041 197.564 126.696C197.788 126.341 198.092 126.089 198.474 125.94C198.866 125.781 199.314 125.702 199.818 125.702C200.201 125.702 200.532 125.725 200.812 125.772C201.092 125.819 201.34 125.889 201.554 125.982C201.778 126.066 201.979 126.164 202.156 126.276L202.352 127.2C202.138 127.041 201.825 126.906 201.414 126.794C201.013 126.673 200.57 126.612 200.084 126.612C199.496 126.612 199.044 126.724 198.726 126.948C198.409 127.172 198.25 127.499 198.25 127.928C198.25 128.273 198.344 128.549 198.53 128.754C198.726 128.959 198.969 129.104 199.258 129.188C199.557 129.272 199.86 129.314 200.168 129.314C200.775 129.314 201.232 129.272 201.54 129.188C201.858 129.095 202.016 128.889 202.016 128.572V125.366C202.016 124.825 201.858 124.428 201.54 124.176C201.223 123.924 200.77 123.798 200.182 123.798C199.809 123.798 199.412 123.854 198.992 123.966C198.582 124.069 198.227 124.237 197.928 124.47V123.462C198.218 123.275 198.605 123.135 199.09 123.042C199.576 122.939 200.047 122.888 200.504 122.888C200.812 122.888 201.097 122.921 201.358 122.986C201.62 123.042 201.853 123.131 202.058 123.252C202.264 123.364 202.436 123.513 202.576 123.7C202.726 123.877 202.838 124.087 202.912 124.33C202.996 124.563 203.038 124.829 203.038 125.128V128.516C203.038 129.011 202.889 129.379 202.59 129.622C202.301 129.865 201.918 130.023 201.442 130.098C200.976 130.173 200.472 130.21 199.93 130.21ZM208.018 130.196C207.813 130.196 207.58 130.168 207.318 130.112C207.066 130.056 206.819 129.986 206.576 129.902C206.334 129.818 206.119 129.729 205.932 129.636L206.282 129.286V133.038H205.274V124.274C205.274 123.985 205.363 123.751 205.54 123.574C205.727 123.397 205.965 123.261 206.254 123.168C206.544 123.065 206.852 122.995 207.178 122.958C207.505 122.911 207.813 122.888 208.102 122.888C208.662 122.888 209.19 123.005 209.684 123.238C210.179 123.471 210.58 123.868 210.888 124.428C211.196 124.979 211.35 125.73 211.35 126.682C211.35 127.401 211.22 128.026 210.958 128.558C210.706 129.081 210.333 129.487 209.838 129.776C209.344 130.056 208.737 130.196 208.018 130.196ZM208.018 129.272C208.532 129.272 208.952 129.165 209.278 128.95C209.614 128.726 209.866 128.418 210.034 128.026C210.202 127.634 210.286 127.186 210.286 126.682C210.286 126.178 210.23 125.707 210.118 125.268C210.006 124.829 209.792 124.479 209.474 124.218C209.157 123.947 208.695 123.812 208.088 123.812C207.603 123.812 207.178 123.868 206.814 123.98C206.46 124.092 206.282 124.251 206.282 124.456V128.782C206.572 128.95 206.861 129.076 207.15 129.16C207.44 129.235 207.729 129.272 208.018 129.272ZM214.253 130H213.245V120.354H214.253V130ZM216.555 130V123.014H217.563V130H216.555ZM216.499 121.768V120.662H217.619V121.768H216.499ZM222.788 130.112C222.415 130.112 222.032 130.065 221.64 129.972C221.258 129.869 220.903 129.692 220.576 129.44C220.259 129.179 220.002 128.81 219.806 128.334C219.61 127.858 219.512 127.247 219.512 126.5C219.512 125.753 219.61 125.147 219.806 124.68C220.002 124.204 220.259 123.835 220.576 123.574C220.903 123.313 221.258 123.135 221.64 123.042C222.032 122.939 222.415 122.888 222.788 122.888C223.143 122.888 223.493 122.921 223.838 122.986C224.193 123.051 224.534 123.149 224.86 123.28V124.246C224.552 124.115 224.235 124.017 223.908 123.952C223.582 123.887 223.246 123.854 222.9 123.854C222.07 123.854 221.463 124.064 221.08 124.484C220.707 124.904 220.52 125.576 220.52 126.5C220.52 127.433 220.707 128.11 221.08 128.53C221.463 128.941 222.07 129.146 222.9 129.146C223.246 129.146 223.582 129.113 223.908 129.048C224.235 128.983 224.552 128.885 224.86 128.754V129.734C224.534 129.855 224.193 129.949 223.838 130.014C223.493 130.079 223.143 130.112 222.788 130.112ZM229.161 130.21C228.853 130.21 228.54 130.177 228.223 130.112C227.915 130.047 227.625 129.935 227.355 129.776C227.093 129.617 226.879 129.403 226.711 129.132C226.552 128.852 226.473 128.502 226.473 128.082C226.473 127.503 226.58 127.041 226.795 126.696C227.019 126.341 227.322 126.089 227.705 125.94C228.097 125.781 228.545 125.702 229.049 125.702C229.431 125.702 229.763 125.725 230.043 125.772C230.323 125.819 230.57 125.889 230.785 125.982C231.009 126.066 231.209 126.164 231.387 126.276L231.583 127.2C231.368 127.041 231.055 126.906 230.645 126.794C230.243 126.673 229.8 126.612 229.315 126.612C228.727 126.612 228.274 126.724 227.957 126.948C227.639 127.172 227.481 127.499 227.481 127.928C227.481 128.273 227.574 128.549 227.761 128.754C227.957 128.959 228.199 129.104 228.489 129.188C228.787 129.272 229.091 129.314 229.399 129.314C230.005 129.314 230.463 129.272 230.771 129.188C231.088 129.095 231.247 128.889 231.247 128.572V125.366C231.247 124.825 231.088 124.428 230.771 124.176C230.453 123.924 230.001 123.798 229.413 123.798C229.039 123.798 228.643 123.854 228.223 123.966C227.812 124.069 227.457 124.237 227.159 124.47V123.462C227.448 123.275 227.835 123.135 228.321 123.042C228.806 122.939 229.277 122.888 229.735 122.888C230.043 122.888 230.327 122.921 230.589 122.986C230.85 123.042 231.083 123.131 231.289 123.252C231.494 123.364 231.667 123.513 231.807 123.7C231.956 123.877 232.068 124.087 232.143 124.33C232.227 124.563 232.269 124.829 232.269 125.128V128.516C232.269 129.011 232.119 129.379 231.821 129.622C231.531 129.865 231.149 130.023 230.673 130.098C230.206 130.173 229.702 130.21 229.161 130.21ZM237.431 130.112C237.057 130.112 236.675 130.065 236.283 129.972C235.9 129.869 235.545 129.692 235.219 129.44C234.901 129.179 234.645 128.81 234.449 128.334C234.253 127.858 234.155 127.247 234.155 126.5C234.155 125.753 234.253 125.147 234.449 124.68C234.645 124.204 234.901 123.835 235.219 123.574C235.545 123.313 235.9 123.135 236.283 123.042C236.675 122.939 237.057 122.888 237.431 122.888C237.785 122.888 238.135 122.921 238.481 122.986C238.835 123.051 239.176 123.149 239.503 123.28V124.246C239.195 124.115 238.877 124.017 238.551 123.952C238.224 123.887 237.888 123.854 237.543 123.854C236.712 123.854 236.105 124.064 235.723 124.484C235.349 124.904 235.163 125.576 235.163 126.5C235.163 127.433 235.349 128.11 235.723 128.53C236.105 128.941 236.712 129.146 237.543 129.146C237.888 129.146 238.224 129.113 238.551 129.048C238.877 128.983 239.195 128.885 239.503 128.754V129.734C239.176 129.855 238.835 129.949 238.481 130.014C238.135 130.079 237.785 130.112 237.431 130.112ZM235.849 131.68L236.997 130.07H237.795L236.913 131.68H235.849ZM243.803 130.21C243.495 130.21 243.183 130.177 242.865 130.112C242.557 130.047 242.268 129.935 241.997 129.776C241.736 129.617 241.521 129.403 241.353 129.132C241.195 128.852 241.115 128.502 241.115 128.082C241.115 127.503 241.223 127.041 241.437 126.696C241.661 126.341 241.965 126.089 242.347 125.94C242.739 125.781 243.187 125.702 243.691 125.702C244.074 125.702 244.405 125.725 244.685 125.772C244.965 125.819 245.213 125.889 245.427 125.982C245.651 126.066 245.852 126.164 246.029 126.276L246.225 127.2C246.011 127.041 245.698 126.906 245.287 126.794C244.886 126.673 244.443 126.612 243.957 126.612C243.369 126.612 242.917 126.724 242.599 126.948C242.282 127.172 242.123 127.499 242.123 127.928C242.123 128.273 242.217 128.549 242.403 128.754C242.599 128.959 242.842 129.104 243.131 129.188C243.43 129.272 243.733 129.314 244.041 129.314C244.648 129.314 245.105 129.272 245.413 129.188C245.731 129.095 245.889 128.889 245.889 128.572V125.366C245.889 124.825 245.731 124.428 245.413 124.176C245.096 123.924 244.643 123.798 244.055 123.798C243.682 123.798 243.285 123.854 242.865 123.966C242.455 124.069 242.1 124.237 241.801 124.47V123.462C242.091 123.275 242.478 123.135 242.963 123.042C243.449 122.939 243.92 122.888 244.377 122.888C244.685 122.888 244.97 122.921 245.231 122.986C245.493 123.042 245.726 123.131 245.931 123.252C246.137 123.364 246.309 123.513 246.449 123.7C246.599 123.877 246.711 124.087 246.785 124.33C246.869 124.563 246.911 124.829 246.911 125.128V128.516C246.911 129.011 246.762 129.379 246.463 129.622C246.174 129.865 245.791 130.023 245.315 130.098C244.849 130.173 244.345 130.21 243.803 130.21ZM243.019 122.384H242.375C242.291 122.048 242.296 121.763 242.389 121.53C242.483 121.297 242.623 121.119 242.809 120.998C243.005 120.877 243.201 120.816 243.397 120.816C243.621 120.816 243.822 120.863 243.999 120.956C244.177 121.04 244.335 121.143 244.475 121.264C244.625 121.376 244.765 121.479 244.895 121.572C245.026 121.656 245.161 121.698 245.301 121.698C245.432 121.698 245.53 121.642 245.595 121.53C245.67 121.409 245.684 121.241 245.637 121.026H246.365C246.421 121.297 246.407 121.544 246.323 121.768C246.239 121.983 246.099 122.155 245.903 122.286C245.707 122.417 245.469 122.482 245.189 122.482C244.984 122.482 244.797 122.44 244.629 122.356C244.461 122.263 244.303 122.16 244.153 122.048C244.013 121.936 243.878 121.838 243.747 121.754C243.617 121.661 243.495 121.614 243.383 121.614C243.262 121.614 243.155 121.675 243.061 121.796C242.977 121.917 242.963 122.113 243.019 122.384ZM252.017 130.21C250.925 130.21 250.113 129.888 249.581 129.244C249.059 128.591 248.797 127.685 248.797 126.528C248.797 125.315 249.073 124.405 249.623 123.798C250.183 123.191 250.972 122.888 251.989 122.888C252.745 122.888 253.361 123.042 253.837 123.35C254.313 123.649 254.663 124.073 254.887 124.624C255.111 125.165 255.223 125.8 255.223 126.528C255.223 127.676 254.943 128.577 254.383 129.23C253.833 129.883 253.044 130.21 252.017 130.21ZM252.003 129.286C252.573 129.286 253.016 129.165 253.333 128.922C253.651 128.67 253.875 128.339 254.005 127.928C254.145 127.508 254.215 127.041 254.215 126.528C254.215 125.977 254.145 125.501 254.005 125.1C253.865 124.689 253.632 124.372 253.305 124.148C252.988 123.924 252.554 123.812 252.003 123.812C251.443 123.812 251.005 123.933 250.687 124.176C250.37 124.419 250.141 124.745 250.001 125.156C249.871 125.557 249.805 126.015 249.805 126.528C249.805 127.349 249.969 128.017 250.295 128.53C250.622 129.034 251.191 129.286 252.003 129.286Z" fill="#C0C4CE"/>
</g>
<defs>
<filter id="filter0_d_2148_1739" x="0" y="0" width="288" height="163" filterUnits="userSpaceOnUse" color-interpolation-filters="sRGB">
<feFlood flood-opacity="0" result="BackgroundImageFix"/>
<feColorMatrix in="SourceAlpha" type="matrix" values="0 0 0 0 0 0 0 0 0 0 0 0 0 0 0 0 0 0 127 0" result="hardAlpha"/>
<feOffset dy="4"/>
<feGaussianBlur stdDeviation="2"/>
<feComposite in2="hardAlpha" operator="out"/>
<feColorMatrix type="matrix" values="0 0 0 0 0 0 0 0 0 0 0 0 0 0 0 0 0 0 0.25 0"/>
<feBlend mode="normal" in2="BackgroundImageFix" result="effect1_dropShadow_2148_1739"/>
<feBlend mode="normal" in="SourceGraphic" in2="effect1_dropShadow_2148_1739" result="shape"/>
</filter>
</defs>
</svg>
