<svg width="280" height="155" viewBox="0 0 280 155" fill="none" xmlns="http://www.w3.org/2000/svg">
<rect x="1" y="1" width="278" height="153" rx="11" stroke="#16181D" stroke-width="2"/>
<path d="M62 33.5H59V32C59 30.8065 58.5259 29.6619 57.682 28.818C56.8381 27.9741 55.6935 27.5 54.5 27.5H27.5C26.3065 27.5 25.1619 27.9741 24.318 28.818C23.4741 29.6619 23 30.8065 23 32V50C23 51.1935 23.4741 52.3381 24.318 53.182C25.1619 54.0259 26.3065 54.5 27.5 54.5H48.5V56C48.5 57.1935 48.9741 58.3381 49.818 59.182C50.6619 60.0259 51.8065 60.5 53 60.5H62C63.1935 60.5 64.3381 60.0259 65.182 59.182C66.0259 58.3381 66.5 57.1935 66.5 56V38C66.5 36.8065 66.0259 35.6619 65.182 34.818C64.3381 33.9741 63.1935 33.5 62 33.5ZM27.5 51.5C27.1022 51.5 26.7206 51.342 26.4393 51.0607C26.158 50.7794 26 50.3978 26 50V32C26 31.6022 26.158 31.2206 26.4393 30.9393C26.7206 30.658 27.1022 30.5 27.5 30.5H54.5C54.8978 30.5 55.2794 30.658 55.5607 30.9393C55.842 31.2206 56 31.6022 56 32V33.5H53C51.8065 33.5 50.6619 33.9741 49.818 34.818C48.9741 35.6619 48.5 36.8065 48.5 38V51.5H27.5ZM63.5 56C63.5 56.3978 63.342 56.7794 63.0607 57.0607C62.7794 57.342 62.3978 57.5 62 57.5H53C52.6022 57.5 52.2206 57.342 51.9393 57.0607C51.658 56.7794 51.5 56.3978 51.5 56V38C51.5 37.6022 51.658 37.2206 51.9393 36.9393C52.2206 36.658 52.6022 36.5 53 36.5H62C62.3978 36.5 62.7794 36.658 63.0607 36.9393C63.342 37.2206 63.5 37.6022 63.5 38V56ZM45.5 59C45.5 59.3978 45.342 59.7794 45.0607 60.0607C44.7794 60.342 44.3978 60.5 44 60.5H36.5C36.1022 60.5 35.7206 60.342 35.4393 60.0607C35.158 59.7794 35 59.3978 35 59C35 58.6022 35.158 58.2206 35.4393 57.9393C35.7206 57.658 36.1022 57.5 36.5 57.5H44C44.3978 57.5 44.7794 57.658 45.0607 57.9393C45.342 58.2206 45.5 58.6022 45.5 59ZM60.5 41C60.5 41.3978 60.342 41.7794 60.0607 42.0607C59.7794 42.342 59.3978 42.5 59 42.5H56C55.6022 42.5 55.2206 42.342 54.9393 42.0607C54.658 41.7794 54.5 41.3978 54.5 41C54.5 40.6022 54.658 40.2206 54.9393 39.9393C55.2206 39.658 55.6022 39.5 56 39.5H59C59.3978 39.5 59.7794 39.658 60.0607 39.9393C60.342 40.2206 60.5 40.6022 60.5 41Z" fill="#BB72E9"/>
<path d="M23.6 103.032C23.344 103.032 23.1413 103 22.992 102.936C22.8427 102.872 22.7467 102.765 22.704 102.616L20.192 92.424C20.1813 92.3707 20.1707 92.328 20.16 92.296C20.16 92.2533 20.16 92.216 20.16 92.184C20.16 91.9067 20.4907 91.768 21.152 91.768H21.568C21.8773 91.768 22.1227 91.8107 22.304 91.896C22.4853 91.9707 22.5973 92.0933 22.64 92.264L23.84 97.416C23.904 97.6933 23.9627 98.0133 24.016 98.376C24.0693 98.728 24.1173 99.0907 24.16 99.464C24.2133 99.8267 24.2453 100.163 24.256 100.472H24.32C24.3627 100.141 24.416 99.7893 24.48 99.416C24.544 99.032 24.608 98.664 24.672 98.312C24.7467 97.9493 24.816 97.6453 24.88 97.4L26.192 92.104C26.224 91.976 26.3147 91.8907 26.464 91.848C26.6133 91.7947 26.816 91.768 27.072 91.768H27.68C27.936 91.768 28.1387 91.7947 28.288 91.848C28.4373 91.8907 28.528 91.976 28.56 92.104L29.824 97.416C29.8987 97.7573 29.968 98.12 30.032 98.504C30.1067 98.888 30.1707 99.256 30.224 99.608C30.2773 99.9493 30.3093 100.237 30.32 100.472H30.384C30.416 100.205 30.4587 99.896 30.512 99.544C30.5653 99.1813 30.6293 98.8133 30.704 98.44C30.7787 98.056 30.8533 97.704 30.928 97.384L32.16 92.264C32.2027 92.0933 32.3147 91.9707 32.496 91.896C32.6773 91.8107 32.9227 91.768 33.232 91.768H33.408C34.0693 91.768 34.4 91.9067 34.4 92.184C34.4 92.216 34.4 92.2533 34.4 92.296C34.4 92.328 34.3893 92.3707 34.368 92.424L31.792 102.616C31.7493 102.765 31.6427 102.872 31.472 102.936C31.3013 103 31.104 103.032 30.88 103.032H29.712C29.488 103.032 29.2907 103 29.12 102.936C28.9493 102.872 28.848 102.765 28.816 102.616L27.632 97.608C27.6213 97.5333 27.584 97.304 27.52 96.92C27.456 96.536 27.3813 96.0933 27.296 95.592H27.232C27.168 95.9867 27.104 96.376 27.04 96.76C26.976 97.144 26.9227 97.4267 26.88 97.608L25.664 102.6C25.6213 102.76 25.5147 102.872 25.344 102.936C25.1733 103 24.976 103.032 24.752 103.032H23.6ZM38.7699 103.128C37.3192 103.128 36.2579 102.744 35.5859 101.976C34.9245 101.197 34.5939 100.163 34.5939 98.872C34.5939 97.816 34.7592 96.968 35.0899 96.328C35.4205 95.688 35.8792 95.224 36.4659 94.936C37.0525 94.648 37.7245 94.504 38.4819 94.504C39.3245 94.504 39.9965 94.696 40.4979 95.08C40.9992 95.4533 41.3619 95.9547 41.5859 96.584C41.8205 97.2027 41.9379 97.8853 41.9379 98.632C41.9379 98.7173 41.8845 98.84 41.7779 99C41.6712 99.1493 41.5539 99.2827 41.4259 99.4C41.2979 99.5173 41.1965 99.576 41.1219 99.576H37.0419C37.0952 100.216 37.2819 100.659 37.6019 100.904C37.9325 101.139 38.3592 101.256 38.8819 101.256C39.2232 101.256 39.5219 101.213 39.7779 101.128C40.0445 101.043 40.2632 100.963 40.4339 100.888C40.6152 100.803 40.7432 100.76 40.8179 100.76C40.9352 100.76 41.0579 100.84 41.1859 101C41.3139 101.16 41.4205 101.336 41.5059 101.528C41.6019 101.72 41.6499 101.869 41.6499 101.976C41.6499 102.179 41.5432 102.355 41.3299 102.504C41.1272 102.643 40.8659 102.76 40.5459 102.856C40.2365 102.952 39.9165 103.021 39.5859 103.064C39.2659 103.107 38.9939 103.128 38.7699 103.128ZM37.0419 97.992H39.6339C39.6339 97.5227 39.5432 97.1387 39.3619 96.84C39.1805 96.5307 38.8872 96.376 38.4819 96.376C38.1512 96.376 37.8525 96.4933 37.5859 96.728C37.3192 96.952 37.1379 97.3733 37.0419 97.992ZM47.9869 103.128C47.4962 103.128 47.0589 103.016 46.6749 102.792C46.3015 102.557 46.0242 102.269 45.8429 101.928C45.8002 102.152 45.7255 102.381 45.6189 102.616C45.5442 102.787 45.4429 102.899 45.3149 102.952C45.1869 103.005 45.0002 103.032 44.7549 103.032H44.5629C43.9229 103.032 43.6029 102.861 43.6029 102.52V91.448C43.6029 91.1067 43.9229 90.936 44.5629 90.936H45.0109C45.6509 90.936 45.9709 91.1067 45.9709 91.448V95C46.1415 94.8827 46.3602 94.7707 46.6269 94.664C46.9042 94.5573 47.2295 94.504 47.6029 94.504C48.6802 94.504 49.5122 94.8987 50.0989 95.688C50.6855 96.4667 50.9789 97.5067 50.9789 98.808C50.9789 99.736 50.8509 100.525 50.5949 101.176C50.3389 101.816 49.9815 102.301 49.5229 102.632C49.0749 102.963 48.5629 103.128 47.9869 103.128ZM47.2829 101.192C47.7202 101.192 48.0455 100.989 48.2589 100.584C48.4722 100.179 48.5789 99.5867 48.5789 98.808C48.5789 98.008 48.4562 97.4053 48.2109 97C47.9655 96.584 47.5922 96.376 47.0909 96.376C46.8455 96.376 46.6269 96.408 46.4349 96.472C46.2535 96.536 46.0989 96.6053 45.9709 96.68V100.248C46.1202 100.493 46.3015 100.712 46.5149 100.904C46.7282 101.096 46.9842 101.192 47.2829 101.192ZM54.7603 103.128C54.3656 103.128 53.9603 103.085 53.5443 103C53.1389 102.915 52.7976 102.792 52.5203 102.632C52.2429 102.461 52.1043 102.264 52.1043 102.04C52.1043 101.901 52.1523 101.736 52.2483 101.544C52.3443 101.352 52.4563 101.181 52.5843 101.032C52.7229 100.883 52.8456 100.808 52.9523 100.808C53.0376 100.808 53.1496 100.845 53.2883 100.92C53.4376 100.995 53.6189 101.069 53.8323 101.144C54.0456 101.219 54.2909 101.256 54.5683 101.256C55.2189 101.256 55.5443 101.032 55.5443 100.584C55.5443 100.339 55.4216 100.152 55.1763 100.024C54.9309 99.896 54.6216 99.752 54.2483 99.592C53.9923 99.4747 53.7096 99.3307 53.4003 99.16C53.1016 98.9893 52.8403 98.744 52.6163 98.424C52.4029 98.104 52.2963 97.672 52.2963 97.128C52.2963 96.5733 52.4136 96.104 52.6483 95.72C52.8936 95.3253 53.2349 95.0267 53.6723 94.824C54.1096 94.6107 54.6216 94.504 55.2083 94.504C55.5176 94.504 55.8589 94.536 56.2323 94.6C56.6056 94.6533 56.9256 94.7493 57.1923 94.888C57.4696 95.0267 57.6083 95.208 57.6083 95.432C57.6083 95.5493 57.5709 95.7093 57.4963 95.912C57.4216 96.1147 57.3309 96.296 57.2243 96.456C57.1283 96.616 57.0269 96.696 56.9203 96.696C56.8349 96.696 56.6749 96.6427 56.4403 96.536C56.2056 96.4187 55.8909 96.36 55.4963 96.36C55.2296 96.36 55.0216 96.408 54.8723 96.504C54.7229 96.5893 54.6483 96.7387 54.6483 96.952C54.6483 97.2187 54.7709 97.416 55.0163 97.544C55.2616 97.6613 55.5816 97.7947 55.9763 97.944C56.2429 98.04 56.5203 98.1733 56.8083 98.344C57.1069 98.5147 57.3629 98.7653 57.5763 99.096C57.7896 99.416 57.8963 99.848 57.8963 100.392C57.8963 100.936 57.7736 101.416 57.5283 101.832C57.2829 102.237 56.9256 102.557 56.4563 102.792C55.9976 103.016 55.4323 103.128 54.7603 103.128ZM60.1696 103.032C59.5296 103.032 59.2096 102.861 59.2096 102.52V95.112C59.2096 94.7707 59.5296 94.6 60.1696 94.6H60.6176C61.2576 94.6 61.5776 94.7707 61.5776 95.112V102.52C61.5776 102.861 61.2576 103.032 60.6176 103.032H60.1696ZM60.3936 93.816C59.9776 93.816 59.6736 93.7733 59.4816 93.688C59.3003 93.6027 59.2096 93.4747 59.2096 93.304V92.056C59.2096 91.8853 59.3003 91.7573 59.4816 91.672C59.6736 91.5867 59.9776 91.544 60.3936 91.544C60.8096 91.544 61.1083 91.5867 61.2896 91.672C61.4816 91.7573 61.5776 91.8853 61.5776 92.056V93.304C61.5776 93.4747 61.4816 93.6027 61.2896 93.688C61.1083 93.7733 60.8096 93.816 60.3936 93.816ZM66.068 103.128C65.6947 103.128 65.3587 103.08 65.06 102.984C64.772 102.877 64.5267 102.717 64.324 102.504C64.132 102.291 63.9827 102.024 63.876 101.704C63.78 101.373 63.732 100.984 63.732 100.536V96.504H63.476C63.156 96.504 62.996 96.2373 62.996 95.704V95.432C62.996 94.8987 63.156 94.632 63.476 94.632H63.732L63.94 93.112C63.9933 92.7707 64.2813 92.6 64.804 92.6H65.3C65.8333 92.6 66.1 92.7707 66.1 93.112V94.632H66.884C67.204 94.632 67.364 94.8987 67.364 95.432V95.704C67.364 96.2373 67.204 96.504 66.884 96.504H66.1V100.568C66.1 100.803 66.1427 100.979 66.228 101.096C66.324 101.203 66.4733 101.256 66.676 101.256C66.7507 101.256 66.8307 101.245 66.916 101.224C67.0013 101.203 67.0653 101.192 67.108 101.192C67.2147 101.192 67.3053 101.283 67.38 101.464C67.4547 101.635 67.508 101.816 67.54 102.008C67.5827 102.189 67.604 102.301 67.604 102.344C67.604 102.589 67.508 102.771 67.316 102.888C67.1347 102.995 66.9213 103.059 66.676 103.08C66.4413 103.112 66.2387 103.128 66.068 103.128ZM72.8168 103.128C71.3661 103.128 70.3048 102.744 69.6328 101.976C68.9714 101.197 68.6408 100.163 68.6408 98.872C68.6408 97.816 68.8061 96.968 69.1368 96.328C69.4674 95.688 69.9261 95.224 70.5128 94.936C71.0994 94.648 71.7714 94.504 72.5288 94.504C73.3714 94.504 74.0434 94.696 74.5448 95.08C75.0461 95.4533 75.4088 95.9547 75.6328 96.584C75.8674 97.2027 75.9848 97.8853 75.9848 98.632C75.9848 98.7173 75.9314 98.84 75.8248 99C75.7181 99.1493 75.6008 99.2827 75.4728 99.4C75.3448 99.5173 75.2434 99.576 75.1688 99.576H71.0888C71.1421 100.216 71.3288 100.659 71.6488 100.904C71.9794 101.139 72.4061 101.256 72.9288 101.256C73.2701 101.256 73.5688 101.213 73.8248 101.128C74.0914 101.043 74.3101 100.963 74.4808 100.888C74.6621 100.803 74.7901 100.76 74.8648 100.76C74.9821 100.76 75.1048 100.84 75.2328 101C75.3608 101.16 75.4674 101.336 75.5528 101.528C75.6488 101.72 75.6968 101.869 75.6968 101.976C75.6968 102.179 75.5901 102.355 75.3768 102.504C75.1741 102.643 74.9128 102.76 74.5928 102.856C74.2834 102.952 73.9634 103.021 73.6328 103.064C73.3128 103.107 73.0408 103.128 72.8168 103.128ZM71.0888 97.992H73.6808C73.6808 97.5227 73.5901 97.1387 73.4088 96.84C73.2274 96.5307 72.9341 96.376 72.5288 96.376C72.1981 96.376 71.8994 96.4933 71.6328 96.728C71.3661 96.952 71.1848 97.3733 71.0888 97.992ZM79.6978 103.128C79.3031 103.128 78.8978 103.085 78.4818 103C78.0764 102.915 77.7351 102.792 77.4578 102.632C77.1804 102.461 77.0418 102.264 77.0418 102.04C77.0418 101.901 77.0898 101.736 77.1858 101.544C77.2818 101.352 77.3938 101.181 77.5218 101.032C77.6604 100.883 77.7831 100.808 77.8898 100.808C77.9751 100.808 78.0871 100.845 78.2258 100.92C78.3751 100.995 78.5564 101.069 78.7698 101.144C78.9831 101.219 79.2284 101.256 79.5058 101.256C80.1564 101.256 80.4818 101.032 80.4818 100.584C80.4818 100.339 80.3591 100.152 80.1138 100.024C79.8684 99.896 79.5591 99.752 79.1858 99.592C78.9298 99.4747 78.6471 99.3307 78.3378 99.16C78.0391 98.9893 77.7778 98.744 77.5538 98.424C77.3404 98.104 77.2338 97.672 77.2338 97.128C77.2338 96.5733 77.3511 96.104 77.5858 95.72C77.8311 95.3253 78.1724 95.0267 78.6098 94.824C79.0471 94.6107 79.5591 94.504 80.1458 94.504C80.4551 94.504 80.7964 94.536 81.1698 94.6C81.5431 94.6533 81.8631 94.7493 82.1298 94.888C82.4071 95.0267 82.5458 95.208 82.5458 95.432C82.5458 95.5493 82.5084 95.7093 82.4338 95.912C82.3591 96.1147 82.2684 96.296 82.1618 96.456C82.0658 96.616 81.9644 96.696 81.8578 96.696C81.7724 96.696 81.6124 96.6427 81.3778 96.536C81.1431 96.4187 80.8284 96.36 80.4338 96.36C80.1671 96.36 79.9591 96.408 79.8098 96.504C79.6604 96.5893 79.5858 96.7387 79.5858 96.952C79.5858 97.2187 79.7084 97.416 79.9538 97.544C80.1991 97.6613 80.5191 97.7947 80.9138 97.944C81.1804 98.04 81.4578 98.1733 81.7458 98.344C82.0444 98.5147 82.3004 98.7653 82.5138 99.096C82.7271 99.416 82.8338 99.848 82.8338 100.392C82.8338 100.936 82.7111 101.416 82.4658 101.832C82.2204 102.237 81.8631 102.557 81.3938 102.792C80.9351 103.016 80.3698 103.128 79.6978 103.128ZM91.8949 103.128C90.4442 103.128 89.3829 102.744 88.7109 101.976C88.0495 101.197 87.7189 100.163 87.7189 98.872C87.7189 97.816 87.8842 96.968 88.2149 96.328C88.5455 95.688 89.0042 95.224 89.5909 94.936C90.1775 94.648 90.8495 94.504 91.6069 94.504C92.4495 94.504 93.1215 94.696 93.6229 95.08C94.1242 95.4533 94.4869 95.9547 94.7109 96.584C94.9455 97.2027 95.0629 97.8853 95.0629 98.632C95.0629 98.7173 95.0095 98.84 94.9029 99C94.7962 99.1493 94.6789 99.2827 94.5509 99.4C94.4229 99.5173 94.3215 99.576 94.2469 99.576H90.1669C90.2202 100.216 90.4069 100.659 90.7269 100.904C91.0575 101.139 91.4842 101.256 92.0069 101.256C92.3482 101.256 92.6469 101.213 92.9029 101.128C93.1695 101.043 93.3882 100.963 93.5589 100.888C93.7402 100.803 93.8682 100.76 93.9429 100.76C94.0602 100.76 94.1829 100.84 94.3109 101C94.4389 101.16 94.5455 101.336 94.6309 101.528C94.7269 101.72 94.7749 101.869 94.7749 101.976C94.7749 102.179 94.6682 102.355 94.4549 102.504C94.2522 102.643 93.9909 102.76 93.6709 102.856C93.3615 102.952 93.0415 103.021 92.7109 103.064C92.3909 103.107 92.1189 103.128 91.8949 103.128ZM90.1669 97.992H92.7589C92.7589 97.5227 92.6682 97.1387 92.4869 96.84C92.3055 96.5307 92.0122 96.376 91.6069 96.376C91.2762 96.376 90.9775 96.4933 90.7109 96.728C90.4442 96.952 90.2629 97.3733 90.1669 97.992ZM100.492 103.032C99.841 103.032 99.5156 102.915 99.5156 102.68C99.5156 102.637 99.521 102.595 99.5316 102.552C99.553 102.499 99.569 102.445 99.5796 102.392L103.1 92.104C103.185 91.88 103.489 91.768 104.012 91.768H104.844C105.377 91.768 105.681 91.88 105.756 92.104L109.276 102.392C109.308 102.499 109.324 102.595 109.324 102.68C109.324 102.915 109.057 103.032 108.524 103.032H107.82C107.585 103.032 107.388 103.011 107.228 102.968C107.068 102.915 106.966 102.824 106.924 102.696L106.284 100.744H102.508L101.868 102.696C101.825 102.813 101.74 102.899 101.612 102.952C101.484 103.005 101.324 103.032 101.132 103.032H100.492ZM103.196 98.632H105.596L104.684 95.784C104.63 95.6133 104.582 95.4427 104.54 95.272C104.508 95.1013 104.476 94.9307 104.444 94.76H104.38C104.348 94.9307 104.316 95.1013 104.284 95.272C104.252 95.4427 104.204 95.6133 104.14 95.784L103.196 98.632ZM111.408 106.296C110.768 106.296 110.448 106.125 110.448 105.784V97.448C110.448 96.9147 110.432 96.504 110.4 96.216C110.368 95.928 110.336 95.7147 110.304 95.576C110.272 95.4267 110.256 95.2987 110.256 95.192C110.256 95.096 110.325 95.016 110.464 94.952C110.613 94.888 110.789 94.8347 110.992 94.792C111.205 94.7493 111.408 94.7227 111.6 94.712C111.803 94.6907 111.952 94.68 112.048 94.68C112.219 94.68 112.341 94.7387 112.416 94.856C112.501 94.9733 112.56 95.112 112.592 95.272C112.624 95.432 112.656 95.576 112.688 95.704C112.869 95.3627 113.147 95.08 113.52 94.856C113.904 94.6213 114.341 94.504 114.832 94.504C115.408 94.504 115.92 94.6693 116.368 95C116.827 95.3307 117.184 95.8213 117.44 96.472C117.696 97.112 117.824 97.896 117.824 98.824C117.824 100.125 117.531 101.171 116.944 101.96C116.357 102.739 115.525 103.128 114.448 103.128C114.075 103.128 113.749 103.075 113.472 102.968C113.205 102.861 112.987 102.749 112.816 102.632V105.784C112.816 106.125 112.496 106.296 111.856 106.296H111.408ZM113.936 101.256C114.437 101.256 114.811 101.053 115.056 100.648C115.301 100.232 115.424 99.624 115.424 98.824C115.424 98.0453 115.317 97.4533 115.104 97.048C114.891 96.6427 114.565 96.44 114.128 96.44C113.829 96.44 113.573 96.536 113.36 96.728C113.147 96.92 112.965 97.1387 112.816 97.384V100.952C112.944 101.027 113.099 101.096 113.28 101.16C113.472 101.224 113.691 101.256 113.936 101.256ZM121.844 103.128C121.471 103.128 121.135 103.08 120.836 102.984C120.548 102.877 120.303 102.717 120.1 102.504C119.908 102.291 119.759 102.024 119.652 101.704C119.556 101.373 119.508 100.984 119.508 100.536V91.448C119.508 91.1067 119.828 90.936 120.468 90.936H120.916C121.556 90.936 121.876 91.1067 121.876 91.448V100.568C121.876 100.803 121.919 100.979 122.004 101.096C122.1 101.203 122.249 101.256 122.452 101.256C122.527 101.256 122.607 101.245 122.692 101.224C122.777 101.203 122.841 101.192 122.884 101.192C122.991 101.192 123.081 101.283 123.156 101.464C123.231 101.635 123.284 101.816 123.316 102.008C123.359 102.189 123.38 102.301 123.38 102.344C123.38 102.589 123.284 102.771 123.092 102.888C122.911 102.995 122.697 103.059 122.452 103.08C122.217 103.112 122.015 103.128 121.844 103.128ZM125.154 103.032C124.514 103.032 124.194 102.861 124.194 102.52V95.112C124.194 94.7707 124.514 94.6 125.154 94.6H125.602C126.242 94.6 126.562 94.7707 126.562 95.112V102.52C126.562 102.861 126.242 103.032 125.602 103.032H125.154ZM125.378 93.816C124.962 93.816 124.658 93.7733 124.466 93.688C124.285 93.6027 124.194 93.4747 124.194 93.304V92.056C124.194 91.8853 124.285 91.7573 124.466 91.672C124.658 91.5867 124.962 91.544 125.378 91.544C125.794 91.544 126.093 91.5867 126.274 91.672C126.466 91.7573 126.562 91.8853 126.562 92.056V93.304C126.562 93.4747 126.466 93.6027 126.274 93.688C126.093 93.7733 125.794 93.816 125.378 93.816ZM132.188 103.128C130.823 103.128 129.81 102.776 129.148 102.072C128.487 101.368 128.156 100.301 128.156 98.872C128.156 98.1573 128.236 97.528 128.396 96.984C128.556 96.44 128.802 95.9867 129.132 95.624C129.474 95.2507 129.9 94.9733 130.412 94.792C130.935 94.6 131.554 94.504 132.268 94.504C132.652 94.504 133.047 94.5467 133.452 94.632C133.868 94.7067 134.215 94.8293 134.492 95C134.78 95.16 134.924 95.3627 134.924 95.608C134.924 95.704 134.871 95.8533 134.764 96.056C134.668 96.248 134.551 96.4293 134.412 96.6C134.284 96.76 134.172 96.84 134.076 96.84C134.044 96.84 134.002 96.8293 133.948 96.808C133.906 96.7867 133.852 96.76 133.788 96.728C133.65 96.6533 133.468 96.5787 133.244 96.504C133.02 96.4187 132.738 96.376 132.396 96.376C131.756 96.376 131.292 96.5787 131.004 96.984C130.727 97.3787 130.588 97.9867 130.588 98.808C130.588 99.6293 130.722 100.243 130.988 100.648C131.255 101.053 131.692 101.256 132.3 101.256C132.674 101.256 132.988 101.213 133.244 101.128C133.5 101.032 133.708 100.952 133.868 100.888C133.932 100.867 133.986 100.845 134.028 100.824C134.082 100.803 134.124 100.792 134.156 100.792C134.274 100.792 134.396 100.872 134.524 101.032C134.652 101.192 134.759 101.368 134.844 101.56C134.94 101.752 134.988 101.901 134.988 102.008C134.988 102.232 134.871 102.419 134.636 102.568C134.402 102.707 134.119 102.819 133.788 102.904C133.458 102.989 133.138 103.048 132.828 103.08C132.53 103.112 132.316 103.128 132.188 103.128ZM138.29 103.128C137.426 103.128 136.813 102.904 136.45 102.456C136.098 101.997 135.922 101.443 135.922 100.792C135.922 100.461 135.97 100.125 136.066 99.784C136.173 99.432 136.381 99.1067 136.69 98.808C136.999 98.5093 137.458 98.2693 138.066 98.088C138.685 97.9067 139.501 97.816 140.514 97.816V97.288C140.514 96.9787 140.413 96.7493 140.21 96.6C140.018 96.4507 139.703 96.376 139.266 96.376C138.882 96.376 138.546 96.4187 138.258 96.504C137.981 96.5893 137.751 96.6747 137.57 96.76C137.399 96.8453 137.282 96.888 137.218 96.888C137.111 96.888 136.989 96.808 136.85 96.648C136.722 96.4773 136.61 96.2907 136.514 96.088C136.429 95.8747 136.386 95.7147 136.386 95.608C136.386 95.4267 136.514 95.2507 136.77 95.08C137.037 94.9093 137.399 94.7707 137.858 94.664C138.327 94.5573 138.855 94.504 139.442 94.504C140.285 94.504 140.957 94.6213 141.458 94.856C141.959 95.08 142.322 95.3947 142.546 95.8C142.77 96.1947 142.882 96.6533 142.882 97.176V100.184C142.882 100.739 142.898 101.165 142.93 101.464C142.962 101.752 142.994 101.971 143.026 102.12C143.058 102.259 143.074 102.387 143.074 102.504C143.074 102.6 142.999 102.68 142.85 102.744C142.711 102.808 142.535 102.861 142.322 102.904C142.119 102.947 141.917 102.979 141.714 103C141.522 103.011 141.378 103.016 141.282 103.016C141.111 103.016 140.983 102.957 140.898 102.84C140.823 102.712 140.77 102.563 140.738 102.392C140.706 102.211 140.674 102.051 140.642 101.912C140.61 101.976 140.498 102.109 140.306 102.312C140.125 102.504 139.863 102.691 139.522 102.872C139.191 103.043 138.781 103.128 138.29 103.128ZM139.074 101.256C139.383 101.256 139.666 101.16 139.922 100.968C140.189 100.776 140.386 100.536 140.514 100.248V99.368C140.13 99.368 139.799 99.3947 139.522 99.448C139.245 99.5013 139.01 99.576 138.818 99.672C138.637 99.768 138.498 99.8907 138.402 100.04C138.317 100.189 138.274 100.36 138.274 100.552C138.274 100.755 138.338 100.925 138.466 101.064C138.605 101.192 138.807 101.256 139.074 101.256ZM147.537 103.128C147.163 103.128 146.827 103.08 146.529 102.984C146.241 102.877 145.995 102.717 145.793 102.504C145.601 102.291 145.451 102.024 145.345 101.704C145.249 101.373 145.201 100.984 145.201 100.536V96.504H144.945C144.625 96.504 144.465 96.2373 144.465 95.704V95.432C144.465 94.8987 144.625 94.632 144.945 94.632H145.201L145.409 93.112C145.462 92.7707 145.75 92.6 146.273 92.6H146.769C147.302 92.6 147.569 92.7707 147.569 93.112V94.632H148.353C148.673 94.632 148.833 94.8987 148.833 95.432V95.704C148.833 96.2373 148.673 96.504 148.353 96.504H147.569V100.568C147.569 100.803 147.611 100.979 147.697 101.096C147.793 101.203 147.942 101.256 148.145 101.256C148.219 101.256 148.299 101.245 148.385 101.224C148.47 101.203 148.534 101.192 148.577 101.192C148.683 101.192 148.774 101.283 148.849 101.464C148.923 101.635 148.977 101.816 149.009 102.008C149.051 102.189 149.073 102.301 149.073 102.344C149.073 102.589 148.977 102.771 148.785 102.888C148.603 102.995 148.39 103.059 148.145 103.08C147.91 103.112 147.707 103.128 147.537 103.128ZM151.342 103.032C150.702 103.032 150.382 102.861 150.382 102.52V95.112C150.382 94.7707 150.702 94.6 151.342 94.6H151.789C152.43 94.6 152.75 94.7707 152.75 95.112V102.52C152.75 102.861 152.43 103.032 151.789 103.032H151.342ZM151.566 93.816C151.15 93.816 150.846 93.7733 150.654 93.688C150.472 93.6027 150.382 93.4747 150.382 93.304V92.056C150.382 91.8853 150.472 91.7573 150.654 91.672C150.846 91.5867 151.15 91.544 151.566 91.544C151.982 91.544 152.28 91.5867 152.462 91.672C152.654 91.7573 152.75 91.8853 152.75 92.056V93.304C152.75 93.4747 152.654 93.6027 152.462 93.688C152.28 93.7733 151.982 93.816 151.566 93.816ZM157.304 103.032C157.069 103.032 156.872 103.011 156.712 102.968C156.563 102.915 156.461 102.824 156.408 102.696L153.864 95.24C153.853 95.1867 153.837 95.1387 153.816 95.096C153.805 95.0427 153.8 94.9947 153.8 94.952C153.8 94.7173 154.125 94.6 154.776 94.6H155.304C155.539 94.6 155.736 94.6267 155.896 94.68C156.056 94.7227 156.157 94.808 156.2 94.936L157 97.464C157.149 97.9227 157.272 98.376 157.368 98.824C157.475 99.2613 157.549 99.6507 157.592 99.992H157.656C157.699 99.6613 157.768 99.2827 157.864 98.856C157.96 98.4187 158.088 97.9547 158.248 97.464L159.048 94.936C159.091 94.808 159.192 94.7227 159.352 94.68C159.512 94.6267 159.709 94.6 159.944 94.6H160.344C160.984 94.6 161.304 94.7173 161.304 94.952C161.304 95.0267 161.288 95.1227 161.256 95.24L158.712 102.696C158.669 102.824 158.568 102.915 158.408 102.968C158.248 103.011 158.051 103.032 157.816 103.032H157.304ZM165.841 103.128C164.572 103.128 163.607 102.755 162.945 102.008C162.284 101.261 161.953 100.195 161.953 98.808C161.953 97.4107 162.284 96.344 162.945 95.608C163.607 94.872 164.572 94.504 165.841 94.504C167.111 94.504 168.071 94.872 168.721 95.608C169.383 96.344 169.713 97.4107 169.713 98.808C169.713 100.195 169.383 101.261 168.721 102.008C168.071 102.755 167.111 103.128 165.841 103.128ZM165.841 101.256C166.353 101.256 166.727 101.048 166.961 100.632C167.196 100.216 167.313 99.608 167.313 98.808C167.313 98.008 167.196 97.4053 166.961 97C166.727 96.584 166.353 96.376 165.841 96.376C165.329 96.376 164.951 96.584 164.705 97C164.471 97.4053 164.353 98.008 164.353 98.808C164.353 99.608 164.471 100.216 164.705 100.632C164.951 101.048 165.329 101.256 165.841 101.256ZM173.495 103.128C173.1 103.128 172.695 103.085 172.279 103C171.873 102.915 171.532 102.792 171.255 102.632C170.977 102.461 170.839 102.264 170.839 102.04C170.839 101.901 170.887 101.736 170.983 101.544C171.079 101.352 171.191 101.181 171.319 101.032C171.457 100.883 171.58 100.808 171.687 100.808C171.772 100.808 171.884 100.845 172.023 100.92C172.172 100.995 172.353 101.069 172.567 101.144C172.78 101.219 173.025 101.256 173.303 101.256C173.953 101.256 174.279 101.032 174.279 100.584C174.279 100.339 174.156 100.152 173.911 100.024C173.665 99.896 173.356 99.752 172.983 99.592C172.727 99.4747 172.444 99.3307 172.135 99.16C171.836 98.9893 171.575 98.744 171.351 98.424C171.137 98.104 171.031 97.672 171.031 97.128C171.031 96.5733 171.148 96.104 171.383 95.72C171.628 95.3253 171.969 95.0267 172.407 94.824C172.844 94.6107 173.356 94.504 173.943 94.504C174.252 94.504 174.593 94.536 174.967 94.6C175.34 94.6533 175.66 94.7493 175.927 94.888C176.204 95.0267 176.343 95.208 176.343 95.432C176.343 95.5493 176.305 95.7093 176.231 95.912C176.156 96.1147 176.065 96.296 175.959 96.456C175.863 96.616 175.761 96.696 175.655 96.696C175.569 96.696 175.409 96.6427 175.175 96.536C174.94 96.4187 174.625 96.36 174.231 96.36C173.964 96.36 173.756 96.408 173.607 96.504C173.457 96.5893 173.383 96.7387 173.383 96.952C173.383 97.2187 173.505 97.416 173.751 97.544C173.996 97.6613 174.316 97.7947 174.711 97.944C174.977 98.04 175.255 98.1733 175.543 98.344C175.841 98.5147 176.097 98.7653 176.311 99.096C176.524 99.416 176.631 99.848 176.631 100.392C176.631 100.936 176.508 101.416 176.263 101.832C176.017 102.237 175.66 102.557 175.191 102.792C174.732 103.016 174.167 103.128 173.495 103.128Z" fill="#E2E4E9"/>
<path d="M21.19 130V120.662H24.116C25.572 120.662 26.664 121.054 27.392 121.838C28.1293 122.613 28.498 123.775 28.498 125.324C28.498 126.873 28.1293 128.04 27.392 128.824C26.664 129.608 25.572 130 24.116 130H21.19ZM22.198 129.048H24.046C25.2407 129.048 26.1087 128.749 26.65 128.152C27.1913 127.555 27.462 126.612 27.462 125.324C27.462 124.036 27.1913 123.093 26.65 122.496C26.1087 121.899 25.2407 121.6 24.046 121.6H22.198V129.048ZM33.3419 130.21C32.6792 130.21 32.1052 130.075 31.6199 129.804C31.1346 129.524 30.7612 129.109 30.4999 128.558C30.2386 128.007 30.1079 127.321 30.1079 126.5C30.1079 125.296 30.3786 124.395 30.9199 123.798C31.4706 123.191 32.2219 122.888 33.1739 122.888C33.9206 122.888 34.5179 123.056 34.9659 123.392C35.4232 123.728 35.7499 124.181 35.9459 124.75C36.1419 125.319 36.2352 125.963 36.2259 126.682H30.6119L30.6819 125.758H35.5679L35.1759 125.898C35.1479 125.198 34.9706 124.675 34.6439 124.33C34.3266 123.985 33.8366 123.812 33.1739 123.812C32.7166 123.812 32.3339 123.896 32.0259 124.064C31.7272 124.232 31.5032 124.526 31.3539 124.946C31.2046 125.357 31.1299 125.935 31.1299 126.682C31.1299 127.531 31.3259 128.18 31.7179 128.628C32.1192 129.067 32.6792 129.286 33.3979 129.286C33.7432 129.286 34.0606 129.263 34.3499 129.216C34.6392 129.16 34.9052 129.085 35.1479 128.992C35.3906 128.899 35.6052 128.796 35.7919 128.684V129.72C35.4559 129.879 35.0826 130 34.6719 130.084C34.2706 130.168 33.8272 130.21 33.3419 130.21ZM40.0881 130.21C39.5841 130.21 39.1595 130.159 38.8141 130.056C38.4781 129.953 38.1281 129.809 37.7641 129.622V128.558C38.0535 128.717 38.3101 128.852 38.5341 128.964C38.7581 129.076 38.9868 129.16 39.2201 129.216C39.4535 129.263 39.7195 129.286 40.0181 129.286C40.4848 129.286 40.8628 129.183 41.1521 128.978C41.4508 128.773 41.6001 128.507 41.6001 128.18C41.6001 127.919 41.5255 127.718 41.3761 127.578C41.2361 127.438 41.0541 127.321 40.8301 127.228C40.6061 127.135 40.3728 127.037 40.1301 126.934C39.8595 126.859 39.5841 126.78 39.3041 126.696C39.0335 126.603 38.7815 126.486 38.5481 126.346C38.3241 126.197 38.1421 126.01 38.0021 125.786C37.8621 125.553 37.7921 125.254 37.7921 124.89C37.7921 124.535 37.8621 124.232 38.0021 123.98C38.1515 123.728 38.3428 123.523 38.5761 123.364C38.8095 123.196 39.0708 123.075 39.3601 123C39.6495 122.925 39.9388 122.888 40.2281 122.888C40.6481 122.888 41.0075 122.944 41.3061 123.056C41.6048 123.168 41.9128 123.294 42.2301 123.434V124.442C41.8755 124.255 41.5581 124.106 41.2781 123.994C40.9981 123.873 40.6668 123.812 40.2841 123.812C39.9015 123.812 39.5561 123.891 39.2481 124.05C38.9495 124.199 38.8001 124.433 38.8001 124.75C38.8001 125.011 38.8748 125.221 39.0241 125.38C39.1828 125.529 39.3881 125.651 39.6401 125.744C39.8921 125.828 40.1628 125.912 40.4521 125.996C40.6855 126.071 40.9281 126.155 41.1801 126.248C41.4321 126.332 41.6655 126.449 41.8801 126.598C42.0948 126.738 42.2675 126.925 42.3981 127.158C42.5381 127.391 42.6081 127.69 42.6081 128.054C42.6081 128.549 42.4821 128.959 42.2301 129.286C41.9781 129.603 41.6561 129.837 41.2641 129.986C40.8815 130.135 40.4895 130.21 40.0881 130.21ZM47.3829 130.21C46.7202 130.21 46.1462 130.075 45.6609 129.804C45.1756 129.524 44.8022 129.109 44.5409 128.558C44.2796 128.007 44.1489 127.321 44.1489 126.5C44.1489 125.296 44.4196 124.395 44.9609 123.798C45.5116 123.191 46.2629 122.888 47.2149 122.888C47.9616 122.888 48.5589 123.056 49.0069 123.392C49.4642 123.728 49.7909 124.181 49.9869 124.75C50.1829 125.319 50.2762 125.963 50.2669 126.682H44.6529L44.7229 125.758H49.6089L49.2169 125.898C49.1889 125.198 49.0116 124.675 48.6849 124.33C48.3676 123.985 47.8776 123.812 47.2149 123.812C46.7576 123.812 46.3749 123.896 46.0669 124.064C45.7682 124.232 45.5442 124.526 45.3949 124.946C45.2456 125.357 45.1709 125.935 45.1709 126.682C45.1709 127.531 45.3669 128.18 45.7589 128.628C46.1602 129.067 46.7202 129.286 47.4389 129.286C47.7842 129.286 48.1016 129.263 48.3909 129.216C48.6802 129.16 48.9462 129.085 49.1889 128.992C49.4316 128.899 49.6462 128.796 49.8329 128.684V129.72C49.4969 129.879 49.1236 130 48.7129 130.084C48.3116 130.168 47.8682 130.21 47.3829 130.21ZM52.1552 123.574C52.3792 123.462 52.6078 123.364 52.8412 123.28C53.0838 123.187 53.3265 123.112 53.5692 123.056C53.8212 123 54.0732 122.958 54.3252 122.93C54.5865 122.902 54.8478 122.888 55.1092 122.888C55.7905 122.888 56.3318 122.991 56.7332 123.196C57.1345 123.392 57.4238 123.681 57.6012 124.064C57.7878 124.447 57.8812 124.909 57.8812 125.45V130H56.8732V125.45C56.8732 125.282 56.8498 125.105 56.8032 124.918C56.7658 124.731 56.6865 124.554 56.5652 124.386C56.4438 124.209 56.2572 124.069 56.0052 123.966C55.7532 123.854 55.4172 123.798 54.9972 123.798C54.7078 123.798 54.4092 123.821 54.1012 123.868C53.7932 123.915 53.4805 123.985 53.1632 124.078V130H52.1552V123.574ZM62.4499 130L59.4959 123.014H60.5739L63.1499 129.132L62.9259 129.188L65.4319 123.014H66.4399L63.4719 130H62.4499ZM70.4334 130.21C69.3414 130.21 68.5294 129.888 67.9974 129.244C67.4747 128.591 67.2134 127.685 67.2134 126.528C67.2134 125.315 67.4887 124.405 68.0394 123.798C68.5994 123.191 69.388 122.888 70.4054 122.888C71.1614 122.888 71.7774 123.042 72.2534 123.35C72.7294 123.649 73.0794 124.073 73.3034 124.624C73.5274 125.165 73.6394 125.8 73.6394 126.528C73.6394 127.676 73.3594 128.577 72.7994 129.23C72.2487 129.883 71.46 130.21 70.4334 130.21ZM70.4194 129.286C70.9887 129.286 71.432 129.165 71.7494 128.922C72.0667 128.67 72.2907 128.339 72.4214 127.928C72.5614 127.508 72.6314 127.041 72.6314 126.528C72.6314 125.977 72.5614 125.501 72.4214 125.1C72.2814 124.689 72.048 124.372 71.7214 124.148C71.404 123.924 70.97 123.812 70.4194 123.812C69.8594 123.812 69.4207 123.933 69.1034 124.176C68.786 124.419 68.5574 124.745 68.4174 125.156C68.2867 125.557 68.2214 126.015 68.2214 126.528C68.2214 127.349 68.3847 128.017 68.7114 128.53C69.038 129.034 69.6074 129.286 70.4194 129.286ZM76.5421 130H75.5341V120.354H76.5421V130ZM81.112 130L78.158 123.014H79.236L81.812 129.132L81.588 129.188L84.094 123.014H85.102L82.134 130H81.112ZM86.7737 130V123.014H87.7817V130H86.7737ZM86.7177 121.768V120.662H87.8377V121.768H86.7177ZM95.8069 125.45V130H94.7989V125.45C94.7989 125.282 94.7756 125.105 94.7289 124.918C94.6916 124.731 94.6123 124.554 94.4909 124.386C94.3696 124.209 94.1829 124.069 93.9309 123.966C93.6789 123.854 93.3429 123.798 92.9229 123.798C92.6336 123.798 92.3349 123.821 92.0269 123.868C91.7189 123.915 91.4063 123.985 91.0889 124.078V130H90.0809V123.574C90.3049 123.462 90.5336 123.364 90.7669 123.28C91.0096 123.187 91.2523 123.112 91.4949 123.056C91.7469 123 91.9989 122.958 92.2509 122.93C92.5123 122.902 92.7736 122.888 93.0349 122.888C93.7163 122.888 94.2576 122.991 94.6589 123.196C95.0603 123.392 95.3496 123.681 95.5269 124.064C95.7136 124.447 95.8069 124.909 95.8069 125.45ZM94.4769 123.854C94.7849 123.621 95.0976 123.434 95.4149 123.294C95.7323 123.154 96.0589 123.051 96.3949 122.986C96.7403 122.921 97.0856 122.888 97.4309 122.888C98.1123 122.888 98.6536 122.991 99.0549 123.196C99.4563 123.392 99.7456 123.681 99.9229 124.064C100.11 124.447 100.203 124.909 100.203 125.45V130H99.1949V125.45C99.1949 125.282 99.1716 125.105 99.1249 124.918C99.0876 124.731 99.0083 124.554 98.8869 124.386C98.7656 124.209 98.5789 124.069 98.3269 123.966C98.0749 123.854 97.7389 123.798 97.3189 123.798C97.0296 123.798 96.7309 123.84 96.4229 123.924C96.1149 124.008 95.8023 124.153 95.4849 124.358L94.4769 123.854ZM105.324 130.21C104.662 130.21 104.088 130.075 103.602 129.804C103.117 129.524 102.744 129.109 102.482 128.558C102.221 128.007 102.09 127.321 102.09 126.5C102.09 125.296 102.361 124.395 102.902 123.798C103.453 123.191 104.204 122.888 105.156 122.888C105.903 122.888 106.5 123.056 106.948 123.392C107.406 123.728 107.732 124.181 107.928 124.75C108.124 125.319 108.218 125.963 108.208 126.682H102.594L102.664 125.758H107.55L107.158 125.898C107.13 125.198 106.953 124.675 106.626 124.33C106.309 123.985 105.819 123.812 105.156 123.812C104.699 123.812 104.316 123.896 104.008 124.064C103.71 124.232 103.486 124.526 103.336 124.946C103.187 125.357 103.112 125.935 103.112 126.682C103.112 127.531 103.308 128.18 103.7 128.628C104.102 129.067 104.662 129.286 105.38 129.286C105.726 129.286 106.043 129.263 106.332 129.216C106.622 129.16 106.888 129.085 107.13 128.992C107.373 128.899 107.588 128.796 107.774 128.684V129.72C107.438 129.879 107.065 130 106.654 130.084C106.253 130.168 105.81 130.21 105.324 130.21ZM110.097 123.574C110.321 123.462 110.549 123.364 110.783 123.28C111.025 123.187 111.268 123.112 111.511 123.056C111.763 123 112.015 122.958 112.267 122.93C112.528 122.902 112.789 122.888 113.051 122.888C113.732 122.888 114.273 122.991 114.675 123.196C115.076 123.392 115.365 123.681 115.543 124.064C115.729 124.447 115.823 124.909 115.823 125.45V130H114.815V125.45C114.815 125.282 114.791 125.105 114.745 124.918C114.707 124.731 114.628 124.554 114.507 124.386C114.385 124.209 114.199 124.069 113.947 123.966C113.695 123.854 113.359 123.798 112.939 123.798C112.649 123.798 112.351 123.821 112.043 123.868C111.735 123.915 111.422 123.985 111.105 124.078V130H110.097V123.574ZM120.265 130.112C119.771 130.112 119.355 129.963 119.019 129.664C118.683 129.356 118.515 128.903 118.515 128.306V123.938H117.297V123.014H118.515V121.04H119.523V123.014H121.329V123.938H119.523V127.984C119.523 128.376 119.584 128.67 119.705 128.866C119.827 129.062 120.074 129.16 120.447 129.16C120.615 129.16 120.779 129.146 120.937 129.118C121.096 129.081 121.227 129.039 121.329 128.992V129.944C121.199 129.991 121.031 130.028 120.825 130.056C120.629 130.093 120.443 130.112 120.265 130.112ZM126.023 130.21C124.931 130.21 124.119 129.888 123.587 129.244C123.065 128.591 122.803 127.685 122.803 126.528C122.803 125.315 123.079 124.405 123.629 123.798C124.189 123.191 124.978 122.888 125.995 122.888C126.751 122.888 127.367 123.042 127.843 123.35C128.319 123.649 128.669 124.073 128.893 124.624C129.117 125.165 129.229 125.8 129.229 126.528C129.229 127.676 128.949 128.577 128.389 129.23C127.839 129.883 127.05 130.21 126.023 130.21ZM126.009 129.286C126.579 129.286 127.022 129.165 127.339 128.922C127.657 128.67 127.881 128.339 128.011 127.928C128.151 127.508 128.221 127.041 128.221 126.528C128.221 125.977 128.151 125.501 128.011 125.1C127.871 124.689 127.638 124.372 127.311 124.148C126.994 123.924 126.56 123.812 126.009 123.812C125.449 123.812 125.011 123.933 124.693 124.176C124.376 124.419 124.147 124.745 124.007 125.156C123.877 125.557 123.811 126.015 123.811 126.528C123.811 127.349 123.975 128.017 124.301 128.53C124.628 129.034 125.197 129.286 126.009 129.286ZM138.082 130.21C137.746 130.21 137.392 130.159 137.018 130.056C136.645 129.963 136.29 129.785 135.954 129.524C135.628 129.253 135.357 128.871 135.142 128.376C134.937 127.872 134.834 127.219 134.834 126.416C134.834 125.333 135.096 124.479 135.618 123.854C136.15 123.219 136.953 122.902 138.026 122.902C138.232 122.902 138.474 122.93 138.754 122.986C139.034 123.042 139.31 123.112 139.58 123.196C139.851 123.28 140.075 123.369 140.252 123.462L139.902 123.812V120.06H140.91V128.796C140.91 129.057 140.817 129.281 140.63 129.468C140.453 129.645 140.22 129.79 139.93 129.902C139.641 130.005 139.333 130.079 139.006 130.126C138.68 130.182 138.372 130.21 138.082 130.21ZM138.096 129.286C138.582 129.286 139.002 129.23 139.356 129.118C139.72 129.006 139.902 128.866 139.902 128.698V124.316C139.613 124.148 139.3 124.027 138.964 123.952C138.638 123.868 138.325 123.826 138.026 123.826C137.522 123.826 137.112 123.938 136.794 124.162C136.486 124.377 136.258 124.68 136.108 125.072C135.968 125.455 135.898 125.903 135.898 126.416C135.898 126.92 135.954 127.391 136.066 127.83C136.178 128.259 136.393 128.609 136.71 128.88C137.028 129.151 137.49 129.286 138.096 129.286ZM146.039 130.21C145.376 130.21 144.802 130.075 144.317 129.804C143.832 129.524 143.458 129.109 143.197 128.558C142.936 128.007 142.805 127.321 142.805 126.5C142.805 125.296 143.076 124.395 143.617 123.798C144.168 123.191 144.919 122.888 145.871 122.888C146.618 122.888 147.215 123.056 147.663 123.392C148.12 123.728 148.447 124.181 148.643 124.75C148.839 125.319 148.932 125.963 148.923 126.682H143.309L143.379 125.758H148.265L147.873 125.898C147.845 125.198 147.668 124.675 147.341 124.33C147.024 123.985 146.534 123.812 145.871 123.812C145.414 123.812 145.031 123.896 144.723 124.064C144.424 124.232 144.2 124.526 144.051 124.946C143.902 125.357 143.827 125.935 143.827 126.682C143.827 127.531 144.023 128.18 144.415 128.628C144.816 129.067 145.376 129.286 146.095 129.286C146.44 129.286 146.758 129.263 147.047 129.216C147.336 129.16 147.602 129.085 147.845 128.992C148.088 128.899 148.302 128.796 148.489 128.684V129.72C148.153 129.879 147.78 130 147.369 130.084C146.968 130.168 146.524 130.21 146.039 130.21ZM154.928 130V123.014H155.936V130H154.928ZM154.872 121.768V120.662H155.992V121.768H154.872ZM158.235 123.574C158.459 123.462 158.688 123.364 158.921 123.28C159.164 123.187 159.407 123.112 159.649 123.056C159.901 123 160.153 122.958 160.405 122.93C160.667 122.902 160.928 122.888 161.189 122.888C161.871 122.888 162.412 122.991 162.813 123.196C163.215 123.392 163.504 123.681 163.681 124.064C163.868 124.447 163.961 124.909 163.961 125.45V130H162.953V125.45C162.953 125.282 162.93 125.105 162.883 124.918C162.846 124.731 162.767 124.554 162.645 124.386C162.524 124.209 162.337 124.069 162.085 123.966C161.833 123.854 161.497 123.798 161.077 123.798C160.788 123.798 160.489 123.821 160.181 123.868C159.873 123.915 159.561 123.985 159.243 124.078V130H158.235V123.574ZM168.404 130.112C167.909 130.112 167.494 129.963 167.158 129.664C166.822 129.356 166.654 128.903 166.654 128.306V123.938H165.436V123.014H166.654V121.04H167.662V123.014H169.468V123.938H167.662V127.984C167.662 128.376 167.723 128.67 167.844 128.866C167.965 129.062 168.213 129.16 168.586 129.16C168.754 129.16 168.917 129.146 169.076 129.118C169.235 129.081 169.365 129.039 169.468 128.992V129.944C169.337 129.991 169.169 130.028 168.964 130.056C168.768 130.093 168.581 130.112 168.404 130.112ZM174.176 130.21C173.513 130.21 172.939 130.075 172.454 129.804C171.969 129.524 171.595 129.109 171.334 128.558C171.073 128.007 170.942 127.321 170.942 126.5C170.942 125.296 171.213 124.395 171.754 123.798C172.305 123.191 173.056 122.888 174.008 122.888C174.755 122.888 175.352 123.056 175.8 123.392C176.257 123.728 176.584 124.181 176.78 124.75C176.976 125.319 177.069 125.963 177.06 126.682H171.446L171.516 125.758H176.402L176.01 125.898C175.982 125.198 175.805 124.675 175.478 124.33C175.161 123.985 174.671 123.812 174.008 123.812C173.551 123.812 173.168 123.896 172.86 124.064C172.561 124.232 172.337 124.526 172.188 124.946C172.039 125.357 171.964 125.935 171.964 126.682C171.964 127.531 172.16 128.18 172.552 128.628C172.953 129.067 173.513 129.286 174.232 129.286C174.577 129.286 174.895 129.263 175.184 129.216C175.473 129.16 175.739 129.085 175.982 128.992C176.225 128.899 176.439 128.796 176.626 128.684V129.72C176.29 129.879 175.917 130 175.506 130.084C175.105 130.168 174.661 130.21 174.176 130.21ZM178.948 130V123.574C179.06 123.527 179.275 123.448 179.592 123.336C179.919 123.224 180.306 123.121 180.754 123.028C181.211 122.935 181.683 122.888 182.168 122.888C182.243 122.888 182.317 122.897 182.392 122.916C182.467 122.935 182.541 122.953 182.616 122.972V123.868C182.373 123.84 182.135 123.826 181.902 123.826C181.678 123.826 181.459 123.84 181.244 123.868C181.029 123.887 180.815 123.915 180.6 123.952C180.385 123.989 180.171 124.027 179.956 124.064V130H178.948ZM184.869 130V123.938H183.665V123.014H184.869V122.636C184.869 122.123 184.925 121.707 185.037 121.39C185.159 121.063 185.313 120.811 185.499 120.634C185.686 120.447 185.882 120.317 186.087 120.242C186.293 120.158 186.489 120.111 186.675 120.102C186.862 120.083 187.011 120.074 187.123 120.074C187.254 120.074 187.375 120.083 187.487 120.102C187.599 120.111 187.702 120.13 187.795 120.158V121.054C187.73 121.035 187.655 121.021 187.571 121.012C187.487 121.003 187.394 120.998 187.291 120.998C187.133 120.998 186.969 121.007 186.801 121.026C186.633 121.045 186.479 121.105 186.339 121.208C186.199 121.301 186.087 121.46 186.003 121.684C185.919 121.899 185.877 122.211 185.877 122.622V123.014H187.795V123.938H185.877V130H184.869ZM191.883 130.21C191.575 130.21 191.263 130.177 190.945 130.112C190.637 130.047 190.348 129.935 190.077 129.776C189.816 129.617 189.601 129.403 189.433 129.132C189.275 128.852 189.195 128.502 189.195 128.082C189.195 127.503 189.303 127.041 189.517 126.696C189.741 126.341 190.045 126.089 190.427 125.94C190.819 125.781 191.267 125.702 191.771 125.702C192.154 125.702 192.485 125.725 192.765 125.772C193.045 125.819 193.293 125.889 193.507 125.982C193.731 126.066 193.932 126.164 194.109 126.276L194.305 127.2C194.091 127.041 193.778 126.906 193.367 126.794C192.966 126.673 192.523 126.612 192.037 126.612C191.449 126.612 190.997 126.724 190.679 126.948C190.362 127.172 190.203 127.499 190.203 127.928C190.203 128.273 190.297 128.549 190.483 128.754C190.679 128.959 190.922 129.104 191.211 129.188C191.51 129.272 191.813 129.314 192.121 129.314C192.728 129.314 193.185 129.272 193.493 129.188C193.811 129.095 193.969 128.889 193.969 128.572V125.366C193.969 124.825 193.811 124.428 193.493 124.176C193.176 123.924 192.723 123.798 192.135 123.798C191.762 123.798 191.365 123.854 190.945 123.966C190.535 124.069 190.18 124.237 189.881 124.47V123.462C190.171 123.275 190.558 123.135 191.043 123.042C191.529 122.939 192 122.888 192.457 122.888C192.765 122.888 193.05 122.921 193.311 122.986C193.573 123.042 193.806 123.131 194.011 123.252C194.217 123.364 194.389 123.513 194.529 123.7C194.679 123.877 194.791 124.087 194.865 124.33C194.949 124.563 194.991 124.829 194.991 125.128V128.516C194.991 129.011 194.842 129.379 194.543 129.622C194.254 129.865 193.871 130.023 193.395 130.098C192.929 130.173 192.425 130.21 191.883 130.21ZM200.153 130.112C199.78 130.112 199.397 130.065 199.005 129.972C198.623 129.869 198.268 129.692 197.941 129.44C197.624 129.179 197.367 128.81 197.171 128.334C196.975 127.858 196.877 127.247 196.877 126.5C196.877 125.753 196.975 125.147 197.171 124.68C197.367 124.204 197.624 123.835 197.941 123.574C198.268 123.313 198.623 123.135 199.005 123.042C199.397 122.939 199.78 122.888 200.153 122.888C200.508 122.888 200.858 122.921 201.203 122.986C201.558 123.051 201.899 123.149 202.225 123.28V124.246C201.917 124.115 201.6 124.017 201.273 123.952C200.947 123.887 200.611 123.854 200.265 123.854C199.435 123.854 198.828 124.064 198.445 124.484C198.072 124.904 197.885 125.576 197.885 126.5C197.885 127.433 198.072 128.11 198.445 128.53C198.828 128.941 199.435 129.146 200.265 129.146C200.611 129.146 200.947 129.113 201.273 129.048C201.6 128.983 201.917 128.885 202.225 128.754V129.734C201.899 129.855 201.558 129.949 201.203 130.014C200.858 130.079 200.508 130.112 200.153 130.112ZM207.002 130.21C206.339 130.21 205.765 130.075 205.28 129.804C204.795 129.524 204.421 129.109 204.16 128.558C203.899 128.007 203.768 127.321 203.768 126.5C203.768 125.296 204.039 124.395 204.58 123.798C205.131 123.191 205.882 122.888 206.834 122.888C207.581 122.888 208.178 123.056 208.626 123.392C209.083 123.728 209.41 124.181 209.606 124.75C209.802 125.319 209.895 125.963 209.886 126.682H204.272L204.342 125.758H209.228L208.836 125.898C208.808 125.198 208.631 124.675 208.304 124.33C207.987 123.985 207.497 123.812 206.834 123.812C206.377 123.812 205.994 123.896 205.686 124.064C205.387 124.232 205.163 124.526 205.014 124.946C204.865 125.357 204.79 125.935 204.79 126.682C204.79 127.531 204.986 128.18 205.378 128.628C205.779 129.067 206.339 129.286 207.058 129.286C207.403 129.286 207.721 129.263 208.01 129.216C208.299 129.16 208.565 129.085 208.808 128.992C209.051 128.899 209.265 128.796 209.452 128.684V129.72C209.116 129.879 208.743 130 208.332 130.084C207.931 130.168 207.487 130.21 207.002 130.21ZM213.748 130.21C213.244 130.21 212.82 130.159 212.474 130.056C212.138 129.953 211.788 129.809 211.424 129.622V128.558C211.714 128.717 211.97 128.852 212.194 128.964C212.418 129.076 212.647 129.16 212.88 129.216C213.114 129.263 213.38 129.286 213.678 129.286C214.145 129.286 214.523 129.183 214.812 128.978C215.111 128.773 215.26 128.507 215.26 128.18C215.26 127.919 215.186 127.718 215.036 127.578C214.896 127.438 214.714 127.321 214.49 127.228C214.266 127.135 214.033 127.037 213.79 126.934C213.52 126.859 213.244 126.78 212.964 126.696C212.694 126.603 212.442 126.486 212.208 126.346C211.984 126.197 211.802 126.01 211.662 125.786C211.522 125.553 211.452 125.254 211.452 124.89C211.452 124.535 211.522 124.232 211.662 123.98C211.812 123.728 212.003 123.523 212.236 123.364C212.47 123.196 212.731 123.075 213.02 123C213.31 122.925 213.599 122.888 213.888 122.888C214.308 122.888 214.668 122.944 214.966 123.056C215.265 123.168 215.573 123.294 215.89 123.434V124.442C215.536 124.255 215.218 124.106 214.938 123.994C214.658 123.873 214.327 123.812 213.944 123.812C213.562 123.812 213.216 123.891 212.908 124.05C212.61 124.199 212.46 124.433 212.46 124.75C212.46 125.011 212.535 125.221 212.684 125.38C212.843 125.529 213.048 125.651 213.3 125.744C213.552 125.828 213.823 125.912 214.112 125.996C214.346 126.071 214.588 126.155 214.84 126.248C215.092 126.332 215.326 126.449 215.54 126.598C215.755 126.738 215.928 126.925 216.058 127.158C216.198 127.391 216.268 127.69 216.268 128.054C216.268 128.549 216.142 128.959 215.89 129.286C215.638 129.603 215.316 129.837 214.924 129.986C214.542 130.135 214.15 130.21 213.748 130.21Z" fill="#C0C4CE"/>
</svg>
