<svg width="170" height="32" viewBox="0 0 170 32" fill="none" xmlns="http://www.w3.org/2000/svg">
<path d="M0.0800003 31V1.2H19.48V5.4H4.8V14.36H17.88V18.56H4.8V31H0.0800003ZM30.3288 31.48C28.7021 31.48 27.2754 31.12 26.0488 30.4C24.8221 29.6533 23.8621 28.6267 23.1688 27.32C22.5021 25.9867 22.1688 24.4533 22.1688 22.72V9.36H26.6888V22.32C26.6888 23.3067 26.8888 24.1733 27.2888 24.92C27.6888 25.6667 28.2488 26.2533 28.9688 26.68C29.6888 27.08 30.5154 27.28 31.4488 27.28C32.4088 27.28 33.2488 27.0667 33.9688 26.64C34.6888 26.2133 35.2488 25.6133 35.6488 24.84C36.0754 24.0667 36.2888 23.16 36.2888 22.12V9.36H40.7688V31H36.4888V26.76L36.9688 27.32C36.4621 28.6533 35.6221 29.68 34.4488 30.4C33.2754 31.12 31.9021 31.48 30.3288 31.48ZM46.0462 31V0.719999H50.5663V31H46.0462ZM55.8509 31V0.719999H60.3709V31H55.8509ZM73.6556 31.48C71.4423 31.48 69.4956 30.9333 67.8156 29.84C66.1623 28.7467 65.0023 27.28 64.3356 25.44L67.8156 23.8C68.4023 25.0267 69.2023 26 70.2156 26.72C71.2556 27.44 72.4023 27.8 73.6556 27.8C74.7223 27.8 75.589 27.56 76.2556 27.08C76.9223 26.6 77.2556 25.9467 77.2556 25.12C77.2556 24.5867 77.109 24.16 76.8156 23.84C76.5223 23.4933 76.149 23.2133 75.6956 23C75.269 22.7867 74.829 22.6267 74.3756 22.52L70.9756 21.56C69.109 21.0267 67.709 20.2267 66.7756 19.16C65.869 18.0667 65.4156 16.8 65.4156 15.36C65.4156 14.0533 65.749 12.92 66.4156 11.96C67.0823 10.9733 68.0023 10.2133 69.1756 9.68C70.349 9.14667 71.669 8.88 73.1356 8.88C75.109 8.88 76.869 9.37333 78.4156 10.36C79.9623 11.32 81.0556 12.6667 81.6956 14.4L78.2156 16.04C77.789 15 77.109 14.1733 76.1756 13.56C75.269 12.9467 74.2423 12.64 73.0956 12.64C72.109 12.64 71.3223 12.88 70.7356 13.36C70.149 13.8133 69.8556 14.4133 69.8556 15.16C69.8556 15.6667 69.989 16.0933 70.2556 16.44C70.5223 16.76 70.869 17.0267 71.2956 17.24C71.7223 17.4267 72.1623 17.5867 72.6156 17.72L76.1356 18.76C77.9223 19.2667 79.2956 20.0667 80.2556 21.16C81.2156 22.2267 81.6956 23.5067 81.6956 25C81.6956 26.28 81.349 27.4133 80.6556 28.4C79.989 29.36 79.0556 30.12 77.8556 30.68C76.6556 31.2133 75.2556 31.48 73.6556 31.48ZM95.4844 31.24C93.2177 31.24 91.4577 30.6 90.2044 29.32C88.951 28.04 88.3244 26.24 88.3244 23.92V13.44H84.5244V9.36H85.1244C86.1377 9.36 86.9244 9.06667 87.4844 8.48C88.0444 7.89333 88.3244 7.09333 88.3244 6.08V4.4H92.8444V9.36H97.7644V13.44H92.8444V23.72C92.8444 24.4667 92.9644 25.1067 93.2044 25.64C93.4444 26.1467 93.831 26.5467 94.3644 26.84C94.8977 27.1067 95.591 27.24 96.4444 27.24C96.6577 27.24 96.8977 27.2267 97.1644 27.2C97.431 27.1733 97.6844 27.1467 97.9244 27.12V31C97.551 31.0533 97.1377 31.1067 96.6844 31.16C96.231 31.2133 95.831 31.24 95.4844 31.24ZM108.62 31.48C107.153 31.48 105.86 31.2267 104.74 30.72C103.647 30.1867 102.793 29.4667 102.18 28.56C101.567 27.6267 101.26 26.5333 101.26 25.28C101.26 24.1067 101.513 23.0533 102.02 22.12C102.553 21.1867 103.367 20.4 104.46 19.76C105.553 19.12 106.927 18.6667 108.58 18.4L116.1 17.16V20.72L109.46 21.88C108.26 22.0933 107.38 22.48 106.82 23.04C106.26 23.5733 105.98 24.2667 105.98 25.12C105.98 25.9467 106.287 26.6267 106.9 27.16C107.54 27.6667 108.353 27.92 109.34 27.92C110.567 27.92 111.633 27.6533 112.54 27.12C113.473 26.5867 114.193 25.88 114.7 25C115.207 24.0933 115.46 23.0933 115.46 22V16.44C115.46 15.3733 115.06 14.5067 114.26 13.84C113.487 13.1467 112.447 12.8 111.14 12.8C109.94 12.8 108.887 13.12 107.98 13.76C107.1 14.3733 106.447 15.1733 106.02 16.16L102.26 14.28C102.66 13.2133 103.313 12.28 104.22 11.48C105.127 10.6533 106.18 10.0133 107.38 9.56C108.607 9.10667 109.9 8.88 111.26 8.88C112.967 8.88 114.473 9.2 115.78 9.84C117.113 10.48 118.14 11.3733 118.86 12.52C119.607 13.64 119.98 14.9467 119.98 16.44V31H115.66V27.08L116.58 27.2C116.073 28.08 115.42 28.84 114.62 29.48C113.847 30.12 112.953 30.6133 111.94 30.96C110.953 31.3067 109.847 31.48 108.62 31.48ZM135.545 31.48C133.385 31.48 131.465 30.9867 129.785 30C128.132 28.9867 126.812 27.6267 125.825 25.92C124.865 24.2133 124.385 22.28 124.385 20.12C124.385 17.9867 124.865 16.0667 125.825 14.36C126.785 12.6533 128.105 11.32 129.785 10.36C131.465 9.37333 133.385 8.88 135.545 8.88C137.012 8.88 138.385 9.14667 139.665 9.68C140.945 10.1867 142.052 10.8933 142.985 11.8C143.945 12.7067 144.652 13.76 145.105 14.96L141.145 16.8C140.692 15.68 139.958 14.7867 138.945 14.12C137.958 13.4267 136.825 13.08 135.545 13.08C134.318 13.08 133.212 13.3867 132.225 14C131.265 14.5867 130.505 15.4267 129.945 16.52C129.385 17.5867 129.105 18.8 129.105 20.16C129.105 21.52 129.385 22.7467 129.945 23.84C130.505 24.9067 131.265 25.7467 132.225 26.36C133.212 26.9733 134.318 27.28 135.545 27.28C136.852 27.28 137.985 26.9467 138.945 26.28C139.932 25.5867 140.665 24.6667 141.145 23.52L145.105 25.4C144.678 26.5467 143.985 27.5867 143.025 28.52C142.092 29.4267 140.985 30.1467 139.705 30.68C138.425 31.2133 137.038 31.48 135.545 31.48ZM149.523 31V0.719999H154.043V21L152.283 20.56L163.123 9.36H168.763L160.603 18.04L169.123 31H163.923L156.323 19.52L159.003 19.16L152.603 25.96L154.043 22.96V31H149.523Z" fill="#E1E1E6"/>
</svg>
