<svg width="69" height="48" viewBox="0 0 69 48" fill="none" xmlns="http://www.w3.org/2000/svg">
<path d="M36.9192 37.7402C23.4477 49.2487 13.8814 50.0604 8.98236 45.1572C4.4684 40.6432 8.21208 29.321 17.3352 18.1397L0 0.808594H11.0778L28.2971 18.0279C17.4305 28.9608 11.0944 40.6018 14.3701 43.8775C17.0826 46.5942 25.4314 42.8298 34.4386 35.2596L36.9192 37.7402Z" fill="#E1E1E6"/>
<path d="M68.521 47.1902H57.4432L40.2239 29.9709C51.0905 19.0422 57.4266 7.39702 54.155 4.12543C51.4425 1.40878 43.0855 5.17731 34.0783 12.7475L31.5977 10.2669C45.0733 -1.24575 54.6437 -2.0616 59.5427 2.84163C64.0567 7.35559 60.3172 18.6778 51.1899 29.8591L68.5251 47.1902H68.521Z" fill="#E1E1E6"/>
</svg>
