<svg width="400" height="68" viewBox="0 0 400 68" fill="none" xmlns="http://www.w3.org/2000/svg">
<rect width="400" height="68" rx="8" fill="#292C34"/>
<path d="M44.5 25.25H23.5C23.2679 25.25 23.0454 25.3422 22.8813 25.5063C22.7172 25.6704 22.625 25.8929 22.625 26.125V41C22.625 41.4641 22.8094 41.9092 23.1376 42.2374C23.4658 42.5656 23.9109 42.75 24.375 42.75H43.625C44.0891 42.75 44.5342 42.5656 44.8624 42.2374C45.1906 41.9092 45.375 41.4641 45.375 41V26.125C45.375 25.8929 45.2828 25.6704 45.1187 25.5063C44.9546 25.3422 44.7321 25.25 44.5 25.25ZM42.2502 27L34 34.5633L25.7498 27H42.2502ZM43.625 41H24.375V28.1145L33.4083 36.3953C33.5697 36.5435 33.7809 36.6257 34 36.6257C34.2191 36.6257 34.4303 36.5435 34.5917 36.3953L43.625 28.1145V41Z" fill="#878EA1"/>
<path d="M61.264 40V29.328H68.256V30.816H63.04V33.904H67.584V35.408H63.024V38.512H68.256V40H61.264ZM70.639 35.856V34.512H75.519V35.856H70.639ZM84.9409 34.688V40H83.2609V34.912C83.2609 34.7093 83.2342 34.512 83.1809 34.32C83.1382 34.1173 83.0475 33.936 82.9089 33.776C82.7809 33.6053 82.5889 33.472 82.3329 33.376C82.0875 33.28 81.7622 33.232 81.3569 33.232C81.0689 33.232 80.7809 33.2587 80.4929 33.312C80.2049 33.3653 79.9275 33.44 79.6609 33.536V40H77.9809V32.624C78.2155 32.5067 78.4769 32.4 78.7649 32.304C79.0635 32.1973 79.3782 32.1067 79.7089 32.032C80.0395 31.9573 80.3755 31.8987 80.7169 31.856C81.0582 31.8133 81.3889 31.792 81.7089 31.792C82.4662 31.792 83.0795 31.8987 83.5489 32.112C84.0182 32.3147 84.3649 32.6347 84.5889 33.072C84.8235 33.4987 84.9409 34.0373 84.9409 34.688ZM83.0209 33.04C83.3622 32.7627 83.7355 32.5333 84.1409 32.352C84.5569 32.1707 84.9835 32.032 85.4209 31.936C85.8689 31.84 86.3062 31.792 86.7329 31.792C87.4902 31.792 88.1035 31.8987 88.5729 32.112C89.0422 32.3147 89.3889 32.6347 89.6129 33.072C89.8475 33.4987 89.9649 34.0373 89.9649 34.688V40H88.2849V34.912C88.2849 34.7093 88.2582 34.512 88.2049 34.32C88.1622 34.1173 88.0715 33.936 87.9329 33.776C87.8049 33.6053 87.6129 33.472 87.3569 33.376C87.1115 33.28 86.7862 33.232 86.3809 33.232C86.0929 33.232 85.8049 33.2747 85.5169 33.36C85.2289 33.4453 84.9515 33.5787 84.6849 33.76L83.0209 33.04ZM95.2523 40.24C94.8363 40.24 94.4363 40.1973 94.0523 40.112C93.6683 40.0373 93.3163 39.904 92.9963 39.712C92.6869 39.52 92.4363 39.2587 92.2443 38.928C92.0629 38.5867 91.9723 38.1653 91.9723 37.664C91.9723 37.0667 92.0896 36.576 92.3243 36.192C92.5589 35.808 92.8949 35.52 93.3323 35.328C93.7696 35.136 94.2923 35.04 94.9003 35.04C95.3056 35.04 95.6683 35.072 95.9883 35.136C96.3189 35.2 96.6123 35.2907 96.8683 35.408C97.1349 35.5147 97.3589 35.6373 97.5403 35.776L97.7163 36.88C97.4816 36.72 97.1669 36.5867 96.7723 36.48C96.3776 36.3627 95.9509 36.304 95.4923 36.304C94.8843 36.304 94.4203 36.4107 94.1003 36.624C93.7909 36.8373 93.6363 37.1573 93.6363 37.584C93.6363 37.904 93.7269 38.1653 93.9083 38.368C94.0896 38.56 94.3136 38.704 94.5803 38.8C94.8576 38.8853 95.1456 38.928 95.4443 38.928C96.0736 38.928 96.5376 38.8853 96.8363 38.8C97.1349 38.7147 97.2843 38.5173 97.2843 38.208V34.848C97.2843 34.2827 97.1136 33.872 96.7723 33.616C96.4309 33.3493 95.9456 33.216 95.3163 33.216C94.8683 33.216 94.4043 33.2907 93.9243 33.44C93.4443 33.5787 93.0496 33.776 92.7403 34.032V32.464C93.0389 32.2613 93.4709 32.1013 94.0363 31.984C94.6123 31.856 95.2043 31.792 95.8123 31.792C96.1109 31.792 96.4096 31.824 96.7083 31.888C97.0176 31.9413 97.3056 32.032 97.5723 32.16C97.8389 32.2773 98.0736 32.4427 98.2763 32.656C98.4896 32.8587 98.6549 33.1093 98.7723 33.408C98.8896 33.7067 98.9483 34.0587 98.9483 34.464V38.304C98.9483 38.8267 98.7829 39.232 98.4523 39.52C98.1323 39.7973 97.6949 39.984 97.1403 40.08C96.5856 40.1867 95.9563 40.24 95.2523 40.24ZM101.357 40V32.016H103.037L103.053 40H101.357ZM101.309 30.688V29.168H103.101V30.688H101.309ZM107.129 40H105.465V28.928H107.129V40Z" fill="#C0C4CE"/>
<path d="M375.625 29V37.125C375.625 37.2908 375.559 37.4497 375.442 37.5669C375.325 37.6842 375.166 37.75 375 37.75C374.834 37.75 374.675 37.6842 374.558 37.5669C374.441 37.4497 374.375 37.2908 374.375 37.125V30.5086L365.442 39.4422C365.325 39.5595 365.166 39.6253 365 39.6253C364.834 39.6253 364.675 39.5595 364.558 39.4422C364.441 39.3249 364.375 39.1659 364.375 39C364.375 38.8341 364.441 38.6751 364.558 38.5578L373.491 29.625H366.875C366.709 29.625 366.55 29.5592 366.433 29.4419C366.316 29.3247 366.25 29.1658 366.25 29C366.25 28.8342 366.316 28.6753 366.433 28.5581C366.55 28.4408 366.709 28.375 366.875 28.375H375C375.166 28.375 375.325 28.4408 375.442 28.5581C375.559 28.6753 375.625 28.8342 375.625 29Z" fill="#3996DB"/>
</svg>
