<svg width="400" height="36" viewBox="0 0 400 36" fill="none" xmlns="http://www.w3.org/2000/svg">
<path d="M32.9056 21.2645C35.2702 19.256 36.467 16.208 36.467 12.2117C36.467 4.85275 32.2471 0.632812 24.8881 0.632812H0.873047V35.3489H6.66252V6.42226H24.8881C29.0542 6.42226 30.6776 8.04564 30.6776 12.2117C30.6776 16.3778 29.0542 18.0012 24.8881 18.0012H12.982L29.4601 35.3489H36.9184L26.0518 23.7534C28.8637 23.5753 31.1662 22.7388 32.9056 21.2603V21.2645Z" fill="#E1E1E6"/>
<path d="M59.8692 0.242188H59.8567C52.3404 0.242188 46.9816 2.52816 43.9212 7.02554C41.4034 10.732 41.1135 15.0637 41.1135 17.9998C41.1135 20.936 41.4034 25.2677 43.9212 28.9741C46.9775 33.4715 52.3404 35.7533 59.8567 35.7575C59.8609 35.7575 59.865 35.7575 59.8692 35.7575C67.3897 35.7575 72.7567 33.4798 75.8212 28.9866C78.3557 25.2719 78.6497 20.9401 78.6497 17.9998C78.6497 15.0596 78.3557 10.7278 75.8212 7.01311C72.7526 2.51986 67.3855 0.242188 59.865 0.242188H59.8692ZM71.0422 25.7191C69.1207 28.5352 65.3605 29.9639 59.8692 29.9639H59.8567C54.3737 29.9639 50.6218 28.531 48.7085 25.715C47.1059 23.3586 46.8988 20.3521 46.8988 17.9957C46.8988 15.6393 47.1059 12.6328 48.7085 10.2764C50.6218 7.46036 54.3737 6.03166 59.8567 6.02752H59.865C65.3563 6.02752 69.1165 7.45624 71.0381 10.2723C72.649 12.6369 72.8561 15.6393 72.8561 17.9957C72.8561 20.3521 72.649 23.3545 71.0381 25.7191H71.0422Z" fill="#E1E1E6"/>
<path d="M274.597 17.2023C272.642 15.8523 269.983 15.1689 266.687 15.1689H255.547C249.948 15.1689 249.48 12.8954 249.48 10.7668C249.48 8.63822 249.948 6.36467 255.547 6.36467H276.779V0.695312H255.547C252.255 0.695312 249.592 1.37861 247.637 2.72865C245.89 3.93789 243.807 6.31084 243.807 10.7668C243.807 15.2228 245.89 17.5957 247.637 18.805C249.592 20.155 252.251 20.8383 255.547 20.8383H266.687C268.778 20.8383 270.398 21.1945 271.371 21.8653C271.967 22.2753 272.754 23.0746 272.754 25.2404C272.754 27.4063 272.286 29.6426 266.687 29.6426H245.235V35.3119H266.687C269.979 35.3119 272.642 34.6286 274.597 33.2786C276.344 32.0694 278.427 29.6964 278.427 25.2404C278.427 20.7845 276.344 18.4115 274.597 17.2023Z" fill="#E1E1E6"/>
<path d="M172.345 20.8725H193.378V15.083H172.345V6.39882H198.398V0.609375H166.556V35.3461H198.447V29.5566H172.345V20.8725Z" fill="#E1E1E6"/>
<path d="M291.514 20.8725H312.551V15.083H291.514V6.39882H317.57V0.609375H285.724V35.3461H317.616V29.5566H291.514V20.8725Z" fill="#E1E1E6"/>
<path d="M203.607 6.33733H218.081V35.3674H223.875V6.33733H238.348V0.667969H203.607V6.33733Z" fill="#E1E1E6"/>
<path d="M399.782 0.667969H365.042V6.33733H379.519V35.3674H385.309V6.33733H399.782V0.667969Z" fill="#E1E1E6"/>
<path d="M160.518 0.6875H153.225L138.561 17.9979L153.242 35.3456H160.58L146.123 17.9937L160.518 0.6875Z" fill="#E1E1E6"/>
<path d="M132.034 0.609375H125.955V35.3461H132.034V0.609375Z" fill="#E1E1E6"/>
<path d="M348.928 0.644531H335.034C329.298 0.644531 324.635 5.30756 324.635 11.0432V35.3605H330.379V23.4214H353.62V35.3605H359.289V20.9904C359.31 20.8455 359.326 20.7005 359.326 20.5515V11.0432C359.326 5.30756 354.663 0.644531 348.928 0.644531ZM353.583 17.6774H330.379V11.0432C330.379 8.47561 332.466 6.38843 335.034 6.38843H348.928C351.495 6.38843 353.583 8.47561 353.583 11.0432V17.6774Z" fill="#E1E1E6"/>
<path d="M84.4764 11.0508V24.9447C84.4764 30.6803 89.1395 35.3434 94.8751 35.3434H119.192V29.5995H94.8751C92.3075 29.5995 90.2203 27.5123 90.2203 24.9447V11.0508C90.2203 8.48324 92.3075 6.39606 94.8751 6.39606H119.192V0.652161H94.8751C89.1395 0.652161 84.4764 5.31519 84.4764 11.0508Z" fill="#E1E1E6"/>
</svg>
