<svg width="280" height="155" viewBox="0 0 280 155" fill="none" xmlns="http://www.w3.org/2000/svg">
<rect x="1" y="1" width="278" height="153" rx="11" stroke="#16181D" stroke-width="2"/>
<path d="M59 45.5H29C28.2044 45.5 27.4413 45.8161 26.8787 46.3787C26.3161 46.9413 26 47.7044 26 48.5V57.5C26 58.2956 26.3161 59.0587 26.8787 59.6213C27.4413 60.1839 28.2044 60.5 29 60.5H59C59.7957 60.5 60.5587 60.1839 61.1213 59.6213C61.6839 59.0587 62 58.2956 62 57.5V48.5C62 47.7044 61.6839 46.9413 61.1213 46.3787C60.5587 45.8161 59.7957 45.5 59 45.5ZM59 57.5H29V48.5H59V57.5ZM59 27.5H29C28.2044 27.5 27.4413 27.8161 26.8787 28.3787C26.3161 28.9413 26 29.7044 26 30.5V39.5C26 40.2956 26.3161 41.0587 26.8787 41.6213C27.4413 42.1839 28.2044 42.5 29 42.5H59C59.7957 42.5 60.5587 42.1839 61.1213 41.6213C61.6839 41.0587 62 40.2956 62 39.5V30.5C62 29.7044 61.6839 28.9413 61.1213 28.3787C60.5587 27.8161 59.7957 27.5 59 27.5ZM59 39.5H29V30.5H59V39.5ZM56 35C56 35.445 55.868 35.88 55.6208 36.25C55.3736 36.62 55.0222 36.9084 54.611 37.0787C54.1999 37.249 53.7475 37.2936 53.311 37.2068C52.8746 37.12 52.4737 36.9057 52.159 36.591C51.8443 36.2763 51.63 35.8754 51.5432 35.439C51.4564 35.0025 51.501 34.5501 51.6713 34.139C51.8416 33.7278 52.13 33.3764 52.5 33.1292C52.87 32.882 53.305 32.75 53.75 32.75C54.3467 32.75 54.919 32.9871 55.341 33.409C55.7629 33.831 56 34.4033 56 35ZM56 53C56 53.445 55.868 53.88 55.6208 54.25C55.3736 54.62 55.0222 54.9084 54.611 55.0787C54.1999 55.249 53.7475 55.2936 53.311 55.2068C52.8746 55.12 52.4737 54.9057 52.159 54.591C51.8443 54.2763 51.63 53.8754 51.5432 53.439C51.4564 53.0025 51.501 52.5501 51.6713 52.139C51.8416 51.7278 52.13 51.3764 52.5 51.1292C52.87 50.882 53.305 50.75 53.75 50.75C54.3467 50.75 54.919 50.9871 55.341 51.409C55.7629 51.831 56 52.4033 56 53Z" fill="#EABD5F"/>
<path d="M20.976 103.032C20.3253 103.032 20 102.915 20 102.68C20 102.637 20.0053 102.595 20.016 102.552C20.0373 102.499 20.0533 102.445 20.064 102.392L23.584 92.104C23.6693 91.88 23.9733 91.768 24.496 91.768H25.328C25.8613 91.768 26.1653 91.88 26.24 92.104L29.76 102.392C29.792 102.499 29.808 102.595 29.808 102.68C29.808 102.915 29.5413 103.032 29.008 103.032H28.304C28.0693 103.032 27.872 103.011 27.712 102.968C27.552 102.915 27.4507 102.824 27.408 102.696L26.768 100.744H22.992L22.352 102.696C22.3093 102.813 22.224 102.899 22.096 102.952C21.968 103.005 21.808 103.032 21.616 103.032H20.976ZM23.68 98.632H26.08L25.168 95.784C25.1147 95.6133 25.0667 95.4427 25.024 95.272C24.992 95.1013 24.96 94.9307 24.928 94.76H24.864C24.832 94.9307 24.8 95.1013 24.768 95.272C24.736 95.4427 24.688 95.6133 24.624 95.784L23.68 98.632ZM31.8765 103.032C31.2365 103.032 30.9165 102.861 30.9165 102.52V92.44C30.9165 92.0133 31.1298 91.8 31.5565 91.8H34.9165C35.2685 91.8 35.6632 91.8427 36.1005 91.928C36.5378 92.0027 36.9538 92.1573 37.3485 92.392C37.7538 92.6267 38.0845 92.9787 38.3405 93.448C38.5965 93.9173 38.7245 94.536 38.7245 95.304C38.7245 95.9227 38.6285 96.44 38.4365 96.856C38.2445 97.272 37.9938 97.6133 37.6845 97.88C37.3858 98.136 37.0658 98.3333 36.7245 98.472C36.3938 98.6 36.0792 98.6907 35.7805 98.744C35.4818 98.7867 35.2472 98.808 35.0765 98.808H33.3805V102.52C33.3805 102.861 33.0605 103.032 32.4205 103.032H31.8765ZM33.3805 96.696H34.8045C34.9538 96.696 35.1085 96.68 35.2685 96.648C35.4392 96.6053 35.5938 96.536 35.7325 96.44C35.8712 96.3333 35.9832 96.1893 36.0685 96.008C36.1538 95.8267 36.1965 95.592 36.1965 95.304C36.1965 94.92 36.1218 94.6267 35.9725 94.424C35.8232 94.2213 35.6418 94.0827 35.4285 94.008C35.2152 93.9333 35.0072 93.896 34.8045 93.896H33.3805V96.696ZM40.9215 103.048C40.2815 103.048 39.9615 102.872 39.9615 102.52V92.28C39.9615 91.928 40.2815 91.752 40.9215 91.752H41.4815C42.1215 91.752 42.4415 91.928 42.4415 92.28V102.52C42.4415 102.872 42.1215 103.048 41.4815 103.048H40.9215ZM52.1605 103.128C50.7098 103.128 49.6485 102.744 48.9765 101.976C48.3152 101.197 47.9845 100.163 47.9845 98.872C47.9845 97.816 48.1498 96.968 48.4805 96.328C48.8112 95.688 49.2698 95.224 49.8565 94.936C50.4432 94.648 51.1152 94.504 51.8725 94.504C52.7152 94.504 53.3872 94.696 53.8885 95.08C54.3898 95.4533 54.7525 95.9547 54.9765 96.584C55.2112 97.2027 55.3285 97.8853 55.3285 98.632C55.3285 98.7173 55.2752 98.84 55.1685 99C55.0618 99.1493 54.9445 99.2827 54.8165 99.4C54.6885 99.5173 54.5872 99.576 54.5125 99.576H50.4325C50.4858 100.216 50.6725 100.659 50.9925 100.904C51.3232 101.139 51.7498 101.256 52.2725 101.256C52.6138 101.256 52.9125 101.213 53.1685 101.128C53.4352 101.043 53.6538 100.963 53.8245 100.888C54.0058 100.803 54.1338 100.76 54.2085 100.76C54.3258 100.76 54.4485 100.84 54.5765 101C54.7045 101.16 54.8112 101.336 54.8965 101.528C54.9925 101.72 55.0405 101.869 55.0405 101.976C55.0405 102.179 54.9338 102.355 54.7205 102.504C54.5178 102.643 54.2565 102.76 53.9365 102.856C53.6272 102.952 53.3072 103.021 52.9765 103.064C52.6565 103.107 52.3845 103.128 52.1605 103.128ZM50.4325 97.992H53.0245C53.0245 97.5227 52.9338 97.1387 52.7525 96.84C52.5712 96.5307 52.2778 96.376 51.8725 96.376C51.5418 96.376 51.2432 96.4933 50.9765 96.728C50.7098 96.952 50.5285 97.3733 50.4325 97.992ZM65.2213 103.128C64.7306 103.128 64.2933 103.016 63.9093 102.792C63.5359 102.557 63.2586 102.269 63.0773 101.928C63.0346 102.152 62.9599 102.381 62.8533 102.616C62.7786 102.787 62.6773 102.899 62.5493 102.952C62.4213 103.005 62.2346 103.032 61.9893 103.032H61.7973C61.1573 103.032 60.8372 102.861 60.8372 102.52V91.448C60.8372 91.1067 61.1573 90.936 61.7973 90.936H62.2453C62.8853 90.936 63.2053 91.1067 63.2053 91.448V95C63.3759 94.8827 63.5946 94.7707 63.8613 94.664C64.1386 94.5573 64.4639 94.504 64.8373 94.504C65.9146 94.504 66.7466 94.8987 67.3333 95.688C67.9199 96.4667 68.2133 97.5067 68.2133 98.808C68.2133 99.736 68.0853 100.525 67.8293 101.176C67.5733 101.816 67.2159 102.301 66.7573 102.632C66.3093 102.963 65.7973 103.128 65.2213 103.128ZM64.5173 101.192C64.9546 101.192 65.2799 100.989 65.4933 100.584C65.7066 100.179 65.8133 99.5867 65.8133 98.808C65.8133 98.008 65.6906 97.4053 65.4453 97C65.1999 96.584 64.8266 96.376 64.3253 96.376C64.0799 96.376 63.8613 96.408 63.6693 96.472C63.4879 96.536 63.3333 96.6053 63.2053 96.68V100.248C63.3546 100.493 63.5359 100.712 63.7493 100.904C63.9626 101.096 64.2186 101.192 64.5173 101.192ZM71.9306 103.128C71.0666 103.128 70.4533 102.904 70.0906 102.456C69.7386 101.997 69.5626 101.443 69.5626 100.792C69.5626 100.461 69.6106 100.125 69.7066 99.784C69.8133 99.432 70.0213 99.1067 70.3306 98.808C70.64 98.5093 71.0986 98.2693 71.7066 98.088C72.3253 97.9067 73.1413 97.816 74.1546 97.816V97.288C74.1546 96.9787 74.0533 96.7493 73.8506 96.6C73.6586 96.4507 73.344 96.376 72.9066 96.376C72.5226 96.376 72.1866 96.4187 71.8986 96.504C71.6213 96.5893 71.392 96.6747 71.2106 96.76C71.04 96.8453 70.9226 96.888 70.8586 96.888C70.752 96.888 70.6293 96.808 70.4906 96.648C70.3626 96.4773 70.2506 96.2907 70.1546 96.088C70.0693 95.8747 70.0266 95.7147 70.0266 95.608C70.0266 95.4267 70.1546 95.2507 70.4106 95.08C70.6773 94.9093 71.04 94.7707 71.4986 94.664C71.968 94.5573 72.496 94.504 73.0826 94.504C73.9253 94.504 74.5973 94.6213 75.0986 94.856C75.6 95.08 75.9626 95.3947 76.1866 95.8C76.4106 96.1947 76.5226 96.6533 76.5226 97.176V100.184C76.5226 100.739 76.5386 101.165 76.5706 101.464C76.6026 101.752 76.6346 101.971 76.6666 102.12C76.6986 102.259 76.7146 102.387 76.7146 102.504C76.7146 102.6 76.64 102.68 76.4906 102.744C76.352 102.808 76.176 102.861 75.9626 102.904C75.76 102.947 75.5573 102.979 75.3546 103C75.1626 103.011 75.0186 103.016 74.9226 103.016C74.752 103.016 74.624 102.957 74.5386 102.84C74.464 102.712 74.4106 102.563 74.3786 102.392C74.3466 102.211 74.3146 102.051 74.2826 101.912C74.2506 101.976 74.1386 102.109 73.9466 102.312C73.7653 102.504 73.504 102.691 73.1626 102.872C72.832 103.043 72.4213 103.128 71.9306 103.128ZM72.7146 101.256C73.024 101.256 73.3066 101.16 73.5626 100.968C73.8293 100.776 74.0266 100.536 74.1546 100.248V99.368C73.7706 99.368 73.44 99.3947 73.1626 99.448C72.8853 99.5013 72.6506 99.576 72.4586 99.672C72.2773 99.768 72.1386 99.8907 72.0426 100.04C71.9573 100.189 71.9146 100.36 71.9146 100.552C71.9146 100.755 71.9786 100.925 72.1066 101.064C72.2453 101.192 72.448 101.256 72.7146 101.256ZM79.5614 103.032C78.9214 103.032 78.6014 102.861 78.6014 102.52V97.448C78.6014 96.9147 78.5854 96.504 78.5534 96.216C78.5214 95.928 78.4894 95.7147 78.4574 95.576C78.4254 95.4267 78.4094 95.2987 78.4094 95.192C78.4094 95.096 78.4787 95.016 78.6174 94.952C78.7667 94.888 78.9427 94.8347 79.1454 94.792C79.3587 94.7493 79.5614 94.7227 79.7534 94.712C79.956 94.6907 80.1054 94.68 80.2014 94.68C80.372 94.68 80.4947 94.7387 80.5694 94.856C80.6547 94.9733 80.7134 95.112 80.7454 95.272C80.7774 95.432 80.8094 95.5813 80.8414 95.72C81.076 95.4107 81.4014 95.1333 81.8174 94.888C82.2334 94.632 82.7027 94.504 83.2254 94.504C84.0254 94.504 84.6174 94.7173 85.0014 95.144C85.3854 95.56 85.5774 96.2107 85.5774 97.096V102.52C85.5774 102.861 85.2574 103.032 84.6174 103.032H84.1694C83.5294 103.032 83.2094 102.861 83.2094 102.52V97.448C83.2094 97.1387 83.1347 96.8987 82.9854 96.728C82.8467 96.5467 82.6014 96.456 82.2494 96.456C81.9187 96.456 81.6467 96.568 81.4334 96.792C81.22 97.0053 81.0654 97.2027 80.9694 97.384V102.52C80.9694 102.861 80.6494 103.032 80.0094 103.032H79.5614ZM91.2196 103.128C89.8543 103.128 88.841 102.776 88.1796 102.072C87.5183 101.368 87.1876 100.301 87.1876 98.872C87.1876 98.1573 87.2676 97.528 87.4276 96.984C87.5876 96.44 87.833 95.9867 88.1636 95.624C88.505 95.2507 88.9316 94.9733 89.4436 94.792C89.9663 94.6 90.585 94.504 91.2996 94.504C91.6836 94.504 92.0783 94.5467 92.4836 94.632C92.8996 94.7067 93.2463 94.8293 93.5236 95C93.8116 95.16 93.9556 95.3627 93.9556 95.608C93.9556 95.704 93.9023 95.8533 93.7956 96.056C93.6996 96.248 93.5823 96.4293 93.4436 96.6C93.3156 96.76 93.2036 96.84 93.1076 96.84C93.0756 96.84 93.033 96.8293 92.9796 96.808C92.937 96.7867 92.8836 96.76 92.8196 96.728C92.681 96.6533 92.4996 96.5787 92.2756 96.504C92.0516 96.4187 91.769 96.376 91.4276 96.376C90.7876 96.376 90.3236 96.5787 90.0356 96.984C89.7583 97.3787 89.6196 97.9867 89.6196 98.808C89.6196 99.6293 89.753 100.243 90.0196 100.648C90.2863 101.053 90.7236 101.256 91.3316 101.256C91.705 101.256 92.0196 101.213 92.2756 101.128C92.5316 101.032 92.7396 100.952 92.8996 100.888C92.9636 100.867 93.017 100.845 93.0596 100.824C93.113 100.803 93.1556 100.792 93.1876 100.792C93.305 100.792 93.4276 100.872 93.5556 101.032C93.6836 101.192 93.7903 101.368 93.8756 101.56C93.9716 101.752 94.0196 101.901 94.0196 102.008C94.0196 102.232 93.9023 102.419 93.6676 102.568C93.433 102.707 93.1503 102.819 92.8196 102.904C92.489 102.989 92.169 103.048 91.8596 103.08C91.561 103.112 91.3476 103.128 91.2196 103.128ZM98.8413 103.128C97.5719 103.128 96.6066 102.755 95.9453 102.008C95.2839 101.261 94.9533 100.195 94.9533 98.808C94.9533 97.4107 95.2839 96.344 95.9453 95.608C96.6066 94.872 97.5719 94.504 98.8413 94.504C100.111 94.504 101.071 94.872 101.721 95.608C102.383 96.344 102.713 97.4107 102.713 98.808C102.713 100.195 102.383 101.261 101.721 102.008C101.071 102.755 100.111 103.128 98.8413 103.128ZM98.8413 101.256C99.3533 101.256 99.7266 101.048 99.9613 100.632C100.196 100.216 100.313 99.608 100.313 98.808C100.313 98.008 100.196 97.4053 99.9613 97C99.7266 96.584 99.3533 96.376 98.8413 96.376C98.3293 96.376 97.9506 96.584 97.7053 97C97.4706 97.4053 97.3533 98.008 97.3533 98.808C97.3533 99.608 97.4706 100.216 97.7053 100.632C97.9506 101.048 98.3293 101.256 98.8413 101.256ZM110.898 103.128C110.322 103.128 109.81 102.963 109.362 102.632C108.914 102.301 108.557 101.816 108.29 101.176C108.034 100.525 107.906 99.736 107.906 98.808C107.906 97.5067 108.2 96.4667 108.786 95.688C109.373 94.8987 110.205 94.504 111.282 94.504C111.656 94.504 111.976 94.5573 112.242 94.664C112.52 94.7707 112.744 94.8827 112.914 95V91.448C112.914 91.1067 113.234 90.936 113.874 90.936H114.322C114.962 90.936 115.282 91.1067 115.282 91.448V100.184C115.282 100.739 115.298 101.165 115.33 101.464C115.362 101.752 115.394 101.971 115.426 102.12C115.458 102.259 115.474 102.387 115.474 102.504C115.474 102.6 115.4 102.68 115.25 102.744C115.112 102.808 114.936 102.861 114.722 102.904C114.52 102.947 114.317 102.979 114.114 103C113.922 103.011 113.778 103.016 113.682 103.016C113.512 103.016 113.384 102.957 113.298 102.84C113.224 102.712 113.17 102.563 113.138 102.392C113.106 102.221 113.074 102.067 113.042 101.928C112.861 102.269 112.584 102.557 112.21 102.792C111.837 103.016 111.4 103.128 110.898 103.128ZM111.602 101.192C111.912 101.192 112.173 101.096 112.386 100.904C112.6 100.712 112.776 100.493 112.914 100.248V96.68C112.786 96.6053 112.626 96.536 112.434 96.472C112.253 96.408 112.04 96.376 111.794 96.376C111.293 96.376 110.92 96.584 110.674 97C110.429 97.4053 110.306 98.008 110.306 98.808C110.306 99.5867 110.413 100.179 110.626 100.584C110.84 100.989 111.165 101.192 111.602 101.192ZM121.129 103.128C119.679 103.128 118.617 102.744 117.945 101.976C117.284 101.197 116.953 100.163 116.953 98.872C116.953 97.816 117.119 96.968 117.449 96.328C117.78 95.688 118.239 95.224 118.825 94.936C119.412 94.648 120.084 94.504 120.841 94.504C121.684 94.504 122.356 94.696 122.857 95.08C123.359 95.4533 123.721 95.9547 123.945 96.584C124.18 97.2027 124.297 97.8853 124.297 98.632C124.297 98.7173 124.244 98.84 124.137 99C124.031 99.1493 123.913 99.2827 123.785 99.4C123.657 99.5173 123.556 99.576 123.481 99.576H119.401C119.455 100.216 119.641 100.659 119.961 100.904C120.292 101.139 120.719 101.256 121.241 101.256C121.583 101.256 121.881 101.213 122.137 101.128C122.404 101.043 122.623 100.963 122.793 100.888C122.975 100.803 123.103 100.76 123.177 100.76C123.295 100.76 123.417 100.84 123.545 101C123.673 101.16 123.78 101.336 123.865 101.528C123.961 101.72 124.009 101.869 124.009 101.976C124.009 102.179 123.903 102.355 123.689 102.504C123.487 102.643 123.225 102.76 122.905 102.856C122.596 102.952 122.276 103.021 121.945 103.064C121.625 103.107 121.353 103.128 121.129 103.128ZM119.401 97.992H121.993C121.993 97.5227 121.903 97.1387 121.721 96.84C121.54 96.5307 121.247 96.376 120.841 96.376C120.511 96.376 120.212 96.4933 119.945 96.728C119.679 96.952 119.497 97.3733 119.401 97.992ZM132.414 103.128C131.838 103.128 131.326 102.963 130.878 102.632C130.43 102.301 130.073 101.816 129.806 101.176C129.55 100.525 129.422 99.736 129.422 98.808C129.422 97.5067 129.715 96.4667 130.302 95.688C130.889 94.8987 131.721 94.504 132.798 94.504C133.171 94.504 133.491 94.5573 133.758 94.664C134.035 94.7707 134.259 94.8827 134.43 95V91.448C134.43 91.1067 134.75 90.936 135.39 90.936H135.838C136.478 90.936 136.798 91.1067 136.798 91.448V100.184C136.798 100.739 136.814 101.165 136.846 101.464C136.878 101.752 136.91 101.971 136.942 102.12C136.974 102.259 136.99 102.387 136.99 102.504C136.99 102.6 136.915 102.68 136.766 102.744C136.627 102.808 136.451 102.861 136.238 102.904C136.035 102.947 135.833 102.979 135.63 103C135.438 103.011 135.294 103.016 135.198 103.016C135.027 103.016 134.899 102.957 134.814 102.84C134.739 102.712 134.686 102.563 134.654 102.392C134.622 102.221 134.59 102.067 134.558 101.928C134.377 102.269 134.099 102.557 133.726 102.792C133.353 103.016 132.915 103.128 132.414 103.128ZM133.118 101.192C133.427 101.192 133.689 101.096 133.902 100.904C134.115 100.712 134.291 100.493 134.43 100.248V96.68C134.302 96.6053 134.142 96.536 133.95 96.472C133.769 96.408 133.555 96.376 133.31 96.376C132.809 96.376 132.435 96.584 132.19 97C131.945 97.4053 131.822 98.008 131.822 98.808C131.822 99.5867 131.929 100.179 132.142 100.584C132.355 100.989 132.681 101.192 133.118 101.192ZM140.837 103.128C139.973 103.128 139.36 102.904 138.997 102.456C138.645 101.997 138.469 101.443 138.469 100.792C138.469 100.461 138.517 100.125 138.613 99.784C138.72 99.432 138.928 99.1067 139.237 98.808C139.546 98.5093 140.005 98.2693 140.613 98.088C141.232 97.9067 142.048 97.816 143.061 97.816V97.288C143.061 96.9787 142.96 96.7493 142.757 96.6C142.565 96.4507 142.25 96.376 141.813 96.376C141.429 96.376 141.093 96.4187 140.805 96.504C140.528 96.5893 140.298 96.6747 140.117 96.76C139.946 96.8453 139.829 96.888 139.765 96.888C139.658 96.888 139.536 96.808 139.397 96.648C139.269 96.4773 139.157 96.2907 139.061 96.088C138.976 95.8747 138.933 95.7147 138.933 95.608C138.933 95.4267 139.061 95.2507 139.317 95.08C139.584 94.9093 139.946 94.7707 140.405 94.664C140.874 94.5573 141.402 94.504 141.989 94.504C142.832 94.504 143.504 94.6213 144.005 94.856C144.506 95.08 144.869 95.3947 145.093 95.8C145.317 96.1947 145.429 96.6533 145.429 97.176V100.184C145.429 100.739 145.445 101.165 145.477 101.464C145.509 101.752 145.541 101.971 145.573 102.12C145.605 102.259 145.621 102.387 145.621 102.504C145.621 102.6 145.546 102.68 145.397 102.744C145.258 102.808 145.082 102.861 144.869 102.904C144.666 102.947 144.464 102.979 144.261 103C144.069 103.011 143.925 103.016 143.829 103.016C143.658 103.016 143.53 102.957 143.445 102.84C143.37 102.712 143.317 102.563 143.285 102.392C143.253 102.211 143.221 102.051 143.189 101.912C143.157 101.976 143.045 102.109 142.853 102.312C142.672 102.504 142.41 102.691 142.069 102.872C141.738 103.043 141.328 103.128 140.837 103.128ZM141.621 101.256C141.93 101.256 142.213 101.16 142.469 100.968C142.736 100.776 142.933 100.536 143.061 100.248V99.368C142.677 99.368 142.346 99.3947 142.069 99.448C141.792 99.5013 141.557 99.576 141.365 99.672C141.184 99.768 141.045 99.8907 140.949 100.04C140.864 100.189 140.821 100.36 140.821 100.552C140.821 100.755 140.885 100.925 141.013 101.064C141.152 101.192 141.354 101.256 141.621 101.256ZM150.18 103.128C149.604 103.128 149.092 102.963 148.644 102.632C148.196 102.301 147.838 101.816 147.572 101.176C147.316 100.525 147.188 99.736 147.188 98.808C147.188 97.5067 147.481 96.4667 148.068 95.688C148.654 94.8987 149.486 94.504 150.564 94.504C150.937 94.504 151.257 94.5573 151.524 94.664C151.801 94.7707 152.025 94.8827 152.196 95V91.448C152.196 91.1067 152.516 90.936 153.156 90.936H153.604C154.244 90.936 154.564 91.1067 154.564 91.448V100.184C154.564 100.739 154.58 101.165 154.612 101.464C154.644 101.752 154.676 101.971 154.708 102.12C154.74 102.259 154.756 102.387 154.756 102.504C154.756 102.6 154.681 102.68 154.532 102.744C154.393 102.808 154.217 102.861 154.004 102.904C153.801 102.947 153.598 102.979 153.396 103C153.204 103.011 153.06 103.016 152.964 103.016C152.793 103.016 152.665 102.957 152.58 102.84C152.505 102.712 152.452 102.563 152.42 102.392C152.388 102.221 152.356 102.067 152.324 101.928C152.142 102.269 151.865 102.557 151.492 102.792C151.118 103.016 150.681 103.128 150.18 103.128ZM150.884 101.192C151.193 101.192 151.454 101.096 151.668 100.904C151.881 100.712 152.057 100.493 152.196 100.248V96.68C152.068 96.6053 151.908 96.536 151.716 96.472C151.534 96.408 151.321 96.376 151.076 96.376C150.574 96.376 150.201 96.584 149.956 97C149.71 97.4053 149.588 98.008 149.588 98.808C149.588 99.5867 149.694 100.179 149.908 100.584C150.121 100.989 150.446 101.192 150.884 101.192ZM160.123 103.128C158.853 103.128 157.888 102.755 157.227 102.008C156.565 101.261 156.235 100.195 156.235 98.808C156.235 97.4107 156.565 96.344 157.227 95.608C157.888 94.872 158.853 94.504 160.123 94.504C161.392 94.504 162.352 94.872 163.003 95.608C163.664 96.344 163.995 97.4107 163.995 98.808C163.995 100.195 163.664 101.261 163.003 102.008C162.352 102.755 161.392 103.128 160.123 103.128ZM160.123 101.256C160.635 101.256 161.008 101.048 161.243 100.632C161.477 100.216 161.595 99.608 161.595 98.808C161.595 98.008 161.477 97.4053 161.243 97C161.008 96.584 160.635 96.376 160.123 96.376C159.611 96.376 159.232 96.584 158.987 97C158.752 97.4053 158.635 98.008 158.635 98.808C158.635 99.608 158.752 100.216 158.987 100.632C159.232 101.048 159.611 101.256 160.123 101.256ZM167.776 103.128C167.381 103.128 166.976 103.085 166.56 103C166.155 102.915 165.813 102.792 165.536 102.632C165.259 102.461 165.12 102.264 165.12 102.04C165.12 101.901 165.168 101.736 165.264 101.544C165.36 101.352 165.472 101.181 165.6 101.032C165.739 100.883 165.861 100.808 165.968 100.808C166.053 100.808 166.165 100.845 166.304 100.92C166.453 100.995 166.635 101.069 166.848 101.144C167.061 101.219 167.307 101.256 167.584 101.256C168.235 101.256 168.56 101.032 168.56 100.584C168.56 100.339 168.437 100.152 168.192 100.024C167.947 99.896 167.637 99.752 167.264 99.592C167.008 99.4747 166.725 99.3307 166.416 99.16C166.117 98.9893 165.856 98.744 165.632 98.424C165.419 98.104 165.312 97.672 165.312 97.128C165.312 96.5733 165.429 96.104 165.664 95.72C165.909 95.3253 166.251 95.0267 166.688 94.824C167.125 94.6107 167.637 94.504 168.224 94.504C168.533 94.504 168.875 94.536 169.248 94.6C169.621 94.6533 169.941 94.7493 170.208 94.888C170.485 95.0267 170.624 95.208 170.624 95.432C170.624 95.5493 170.587 95.7093 170.512 95.912C170.437 96.1147 170.347 96.296 170.24 96.456C170.144 96.616 170.043 96.696 169.936 96.696C169.851 96.696 169.691 96.6427 169.456 96.536C169.221 96.4187 168.907 96.36 168.512 96.36C168.245 96.36 168.037 96.408 167.888 96.504C167.739 96.5893 167.664 96.7387 167.664 96.952C167.664 97.2187 167.787 97.416 168.032 97.544C168.277 97.6613 168.597 97.7947 168.992 97.944C169.259 98.04 169.536 98.1733 169.824 98.344C170.123 98.5147 170.379 98.7653 170.592 99.096C170.805 99.416 170.912 99.848 170.912 100.392C170.912 100.936 170.789 101.416 170.544 101.832C170.299 102.237 169.941 102.557 169.472 102.792C169.013 103.016 168.448 103.128 167.776 103.128Z" fill="#E2E4E9"/>
<path d="M25.096 130.112C23.6587 130.112 22.576 129.711 21.848 128.908C21.1293 128.105 20.77 126.911 20.77 125.324C20.77 123.737 21.1293 122.543 21.848 121.74C22.576 120.937 23.6587 120.536 25.096 120.536C25.5907 120.536 26.076 120.597 26.552 120.718C27.028 120.839 27.49 121.007 27.938 121.222V122.188C27.5087 121.955 27.0653 121.782 26.608 121.67C26.1507 121.549 25.684 121.488 25.208 121.488C24.424 121.488 23.78 121.623 23.276 121.894C22.7813 122.165 22.4127 122.585 22.17 123.154C21.9367 123.714 21.82 124.437 21.82 125.324C21.82 126.211 21.9367 126.939 22.17 127.508C22.4127 128.068 22.7813 128.483 23.276 128.754C23.78 129.025 24.424 129.16 25.208 129.16C25.684 129.16 26.1507 129.104 26.608 128.992C27.0653 128.88 27.5087 128.707 27.938 128.474V129.44C27.6393 129.58 27.3313 129.701 27.014 129.804C26.706 129.907 26.3887 129.981 26.062 130.028C25.7447 130.084 25.4227 130.112 25.096 130.112ZM29.829 130V123.574C29.941 123.527 30.1557 123.448 30.473 123.336C30.7997 123.224 31.187 123.121 31.635 123.028C32.0923 122.935 32.5637 122.888 33.049 122.888C33.1237 122.888 33.1983 122.897 33.273 122.916C33.3477 122.935 33.4223 122.953 33.497 122.972V123.868C33.2543 123.84 33.0163 123.826 32.783 123.826C32.559 123.826 32.3397 123.84 32.125 123.868C31.9103 123.887 31.6957 123.915 31.481 123.952C31.2663 123.989 31.0517 124.027 30.837 124.064V130H29.829ZM35.1623 130V123.014H36.1703V130H35.1623ZM35.1063 121.768V120.662H36.2263V121.768H35.1063ZM40.8776 130.21C40.5696 130.21 40.2569 130.177 39.9396 130.112C39.6316 130.047 39.3423 129.935 39.0716 129.776C38.8103 129.617 38.5956 129.403 38.4276 129.132C38.2689 128.852 38.1896 128.502 38.1896 128.082C38.1896 127.503 38.2969 127.041 38.5116 126.696C38.7356 126.341 39.0389 126.089 39.4216 125.94C39.8136 125.781 40.2616 125.702 40.7656 125.702C41.1483 125.702 41.4796 125.725 41.7596 125.772C42.0396 125.819 42.2869 125.889 42.5016 125.982C42.7256 126.066 42.9263 126.164 43.1036 126.276L43.2996 127.2C43.0849 127.041 42.7723 126.906 42.3616 126.794C41.9603 126.673 41.5169 126.612 41.0316 126.612C40.4436 126.612 39.9909 126.724 39.6736 126.948C39.3563 127.172 39.1976 127.499 39.1976 127.928C39.1976 128.273 39.2909 128.549 39.4776 128.754C39.6736 128.959 39.9163 129.104 40.2056 129.188C40.5043 129.272 40.8076 129.314 41.1156 129.314C41.7223 129.314 42.1796 129.272 42.4876 129.188C42.8049 129.095 42.9636 128.889 42.9636 128.572V125.366C42.9636 124.825 42.8049 124.428 42.4876 124.176C42.1703 123.924 41.7176 123.798 41.1296 123.798C40.7563 123.798 40.3596 123.854 39.9396 123.966C39.5289 124.069 39.1743 124.237 38.8756 124.47V123.462C39.1649 123.275 39.5523 123.135 40.0376 123.042C40.5229 122.939 40.9943 122.888 41.4516 122.888C41.7596 122.888 42.0443 122.921 42.3056 122.986C42.5669 123.042 42.8003 123.131 43.0056 123.252C43.2109 123.364 43.3836 123.513 43.5236 123.7C43.6729 123.877 43.7849 124.087 43.8596 124.33C43.9436 124.563 43.9856 124.829 43.9856 125.128V128.516C43.9856 129.011 43.8363 129.379 43.5376 129.622C43.2483 129.865 42.8656 130.023 42.3896 130.098C41.9229 130.173 41.4189 130.21 40.8776 130.21ZM49.1476 130.112C48.7742 130.112 48.3916 130.065 47.9996 129.972C47.6169 129.869 47.2622 129.692 46.9356 129.44C46.6182 129.179 46.3616 128.81 46.1656 128.334C45.9696 127.858 45.8716 127.247 45.8716 126.5C45.8716 125.753 45.9696 125.147 46.1656 124.68C46.3616 124.204 46.6182 123.835 46.9356 123.574C47.2622 123.313 47.6169 123.135 47.9996 123.042C48.3916 122.939 48.7742 122.888 49.1476 122.888C49.5022 122.888 49.8522 122.921 50.1976 122.986C50.5522 123.051 50.8929 123.149 51.2196 123.28V124.246C50.9116 124.115 50.5942 124.017 50.2676 123.952C49.9409 123.887 49.6049 123.854 49.2596 123.854C48.4289 123.854 47.8222 124.064 47.4396 124.484C47.0662 124.904 46.8796 125.576 46.8796 126.5C46.8796 127.433 47.0662 128.11 47.4396 128.53C47.8222 128.941 48.4289 129.146 49.2596 129.146C49.6049 129.146 49.9409 129.113 50.2676 129.048C50.5942 128.983 50.9116 128.885 51.2196 128.754V129.734C50.8929 129.855 50.5522 129.949 50.1976 130.014C49.8522 130.079 49.5022 130.112 49.1476 130.112ZM47.5656 131.68L48.7136 130.07H49.5116L48.6296 131.68H47.5656ZM55.5202 130.21C55.2122 130.21 54.8995 130.177 54.5822 130.112C54.2742 130.047 53.9849 129.935 53.7142 129.776C53.4529 129.617 53.2382 129.403 53.0702 129.132C52.9115 128.852 52.8322 128.502 52.8322 128.082C52.8322 127.503 52.9395 127.041 53.1542 126.696C53.3782 126.341 53.6815 126.089 54.0642 125.94C54.4562 125.781 54.9042 125.702 55.4082 125.702C55.7909 125.702 56.1222 125.725 56.4022 125.772C56.6822 125.819 56.9295 125.889 57.1442 125.982C57.3682 126.066 57.5689 126.164 57.7462 126.276L57.9422 127.2C57.7275 127.041 57.4149 126.906 57.0042 126.794C56.6029 126.673 56.1595 126.612 55.6742 126.612C55.0862 126.612 54.6335 126.724 54.3162 126.948C53.9989 127.172 53.8402 127.499 53.8402 127.928C53.8402 128.273 53.9335 128.549 54.1202 128.754C54.3162 128.959 54.5589 129.104 54.8482 129.188C55.1469 129.272 55.4502 129.314 55.7582 129.314C56.3649 129.314 56.8222 129.272 57.1302 129.188C57.4475 129.095 57.6062 128.889 57.6062 128.572V125.366C57.6062 124.825 57.4475 124.428 57.1302 124.176C56.8129 123.924 56.3602 123.798 55.7722 123.798C55.3989 123.798 55.0022 123.854 54.5822 123.966C54.1715 124.069 53.8169 124.237 53.5182 124.47V123.462C53.8075 123.275 54.1949 123.135 54.6802 123.042C55.1655 122.939 55.6369 122.888 56.0942 122.888C56.4022 122.888 56.6869 122.921 56.9482 122.986C57.2095 123.042 57.4429 123.131 57.6482 123.252C57.8535 123.364 58.0262 123.513 58.1662 123.7C58.3155 123.877 58.4275 124.087 58.5022 124.33C58.5862 124.563 58.6282 124.829 58.6282 125.128V128.516C58.6282 129.011 58.4789 129.379 58.1802 129.622C57.8909 129.865 57.5082 130.023 57.0322 130.098C56.5655 130.173 56.0615 130.21 55.5202 130.21ZM54.7362 122.384H54.0922C54.0082 122.048 54.0129 121.763 54.1062 121.53C54.1995 121.297 54.3395 121.119 54.5262 120.998C54.7222 120.877 54.9182 120.816 55.1142 120.816C55.3382 120.816 55.5389 120.863 55.7162 120.956C55.8935 121.04 56.0522 121.143 56.1922 121.264C56.3415 121.376 56.4815 121.479 56.6122 121.572C56.7429 121.656 56.8782 121.698 57.0182 121.698C57.1489 121.698 57.2469 121.642 57.3122 121.53C57.3869 121.409 57.4009 121.241 57.3542 121.026H58.0822C58.1382 121.297 58.1242 121.544 58.0402 121.768C57.9562 121.983 57.8162 122.155 57.6202 122.286C57.4242 122.417 57.1862 122.482 56.9062 122.482C56.7009 122.482 56.5142 122.44 56.3462 122.356C56.1782 122.263 56.0195 122.16 55.8702 122.048C55.7302 121.936 55.5949 121.838 55.4642 121.754C55.3335 121.661 55.2122 121.614 55.1002 121.614C54.9789 121.614 54.8715 121.675 54.7782 121.796C54.6942 121.917 54.6802 122.113 54.7362 122.384ZM63.7341 130.21C62.6421 130.21 61.8301 129.888 61.2981 129.244C60.7755 128.591 60.5141 127.685 60.5141 126.528C60.5141 125.315 60.7895 124.405 61.3401 123.798C61.9001 123.191 62.6888 122.888 63.7061 122.888C64.4621 122.888 65.0781 123.042 65.5541 123.35C66.0301 123.649 66.3801 124.073 66.6041 124.624C66.8281 125.165 66.9401 125.8 66.9401 126.528C66.9401 127.676 66.6601 128.577 66.1001 129.23C65.5495 129.883 64.7608 130.21 63.7341 130.21ZM63.7201 129.286C64.2895 129.286 64.7328 129.165 65.0501 128.922C65.3675 128.67 65.5915 128.339 65.7221 127.928C65.8621 127.508 65.9321 127.041 65.9321 126.528C65.9321 125.977 65.8621 125.501 65.7221 125.1C65.5821 124.689 65.3488 124.372 65.0221 124.148C64.7048 123.924 64.2708 123.812 63.7201 123.812C63.1601 123.812 62.7215 123.933 62.4041 124.176C62.0868 124.419 61.8581 124.745 61.7181 125.156C61.5875 125.557 61.5221 126.015 61.5221 126.528C61.5221 127.349 61.6855 128.017 62.0121 128.53C62.3388 129.034 62.9081 129.286 63.7201 129.286ZM75.7934 130.21C75.4574 130.21 75.1027 130.159 74.7294 130.056C74.3561 129.963 74.0014 129.785 73.6654 129.524C73.3387 129.253 73.0681 128.871 72.8534 128.376C72.6481 127.872 72.5454 127.219 72.5454 126.416C72.5454 125.333 72.8067 124.479 73.3294 123.854C73.8614 123.219 74.6641 122.902 75.7374 122.902C75.9427 122.902 76.1854 122.93 76.4654 122.986C76.7454 123.042 77.0207 123.112 77.2914 123.196C77.5621 123.28 77.7861 123.369 77.9634 123.462L77.6134 123.812V120.06H78.6214V128.796C78.6214 129.057 78.5281 129.281 78.3414 129.468C78.1641 129.645 77.9307 129.79 77.6414 129.902C77.3521 130.005 77.0441 130.079 76.7174 130.126C76.3907 130.182 76.0827 130.21 75.7934 130.21ZM75.8074 129.286C76.2927 129.286 76.7127 129.23 77.0674 129.118C77.4314 129.006 77.6134 128.866 77.6134 128.698V124.316C77.3241 124.148 77.0114 124.027 76.6754 123.952C76.3487 123.868 76.0361 123.826 75.7374 123.826C75.2334 123.826 74.8227 123.938 74.5054 124.162C74.1974 124.377 73.9687 124.68 73.8194 125.072C73.6794 125.455 73.6094 125.903 73.6094 126.416C73.6094 126.92 73.6654 127.391 73.7774 127.83C73.8894 128.259 74.1041 128.609 74.4214 128.88C74.7387 129.151 75.2007 129.286 75.8074 129.286ZM83.7501 130.21C83.0874 130.21 82.5134 130.075 82.0281 129.804C81.5428 129.524 81.1694 129.109 80.9081 128.558C80.6468 128.007 80.5161 127.321 80.5161 126.5C80.5161 125.296 80.7868 124.395 81.3281 123.798C81.8788 123.191 82.6301 122.888 83.5821 122.888C84.3288 122.888 84.9261 123.056 85.3741 123.392C85.8314 123.728 86.1581 124.181 86.3541 124.75C86.5501 125.319 86.6434 125.963 86.6341 126.682H81.0201L81.0901 125.758H85.9761L85.5841 125.898C85.5561 125.198 85.3788 124.675 85.0521 124.33C84.7348 123.985 84.2448 123.812 83.5821 123.812C83.1248 123.812 82.7421 123.896 82.4341 124.064C82.1354 124.232 81.9114 124.526 81.7621 124.946C81.6128 125.357 81.5381 125.935 81.5381 126.682C81.5381 127.531 81.7341 128.18 82.1261 128.628C82.5274 129.067 83.0874 129.286 83.8061 129.286C84.1514 129.286 84.4688 129.263 84.7581 129.216C85.0474 129.16 85.3134 129.085 85.5561 128.992C85.7988 128.899 86.0134 128.796 86.2001 128.684V129.72C85.8641 129.879 85.4908 130 85.0801 130.084C84.6788 130.168 84.2354 130.21 83.7501 130.21ZM94.5569 130.21C94.0529 130.21 93.6282 130.159 93.2829 130.056C92.9469 129.953 92.5969 129.809 92.2329 129.622V128.558C92.5222 128.717 92.7789 128.852 93.0029 128.964C93.2269 129.076 93.4556 129.16 93.6889 129.216C93.9222 129.263 94.1882 129.286 94.4869 129.286C94.9536 129.286 95.3316 129.183 95.6209 128.978C95.9196 128.773 96.0689 128.507 96.0689 128.18C96.0689 127.919 95.9942 127.718 95.8449 127.578C95.7049 127.438 95.5229 127.321 95.2989 127.228C95.0749 127.135 94.8416 127.037 94.5989 126.934C94.3282 126.859 94.0529 126.78 93.7729 126.696C93.5022 126.603 93.2502 126.486 93.0169 126.346C92.7929 126.197 92.6109 126.01 92.4709 125.786C92.3309 125.553 92.2609 125.254 92.2609 124.89C92.2609 124.535 92.3309 124.232 92.4709 123.98C92.6202 123.728 92.8116 123.523 93.0449 123.364C93.2782 123.196 93.5396 123.075 93.8289 123C94.1182 122.925 94.4076 122.888 94.6969 122.888C95.1169 122.888 95.4762 122.944 95.7749 123.056C96.0736 123.168 96.3816 123.294 96.6989 123.434V124.442C96.3442 124.255 96.0269 124.106 95.7469 123.994C95.4669 123.873 95.1356 123.812 94.7529 123.812C94.3702 123.812 94.0249 123.891 93.7169 124.05C93.4182 124.199 93.2689 124.433 93.2689 124.75C93.2689 125.011 93.3436 125.221 93.4929 125.38C93.6516 125.529 93.8569 125.651 94.1089 125.744C94.3609 125.828 94.6316 125.912 94.9209 125.996C95.1542 126.071 95.3969 126.155 95.6489 126.248C95.9009 126.332 96.1342 126.449 96.3489 126.598C96.5636 126.738 96.7362 126.925 96.8669 127.158C97.0069 127.391 97.0769 127.69 97.0769 128.054C97.0769 128.549 96.9509 128.959 96.6989 129.286C96.4469 129.603 96.1249 129.837 95.7329 129.986C95.3502 130.135 94.9582 130.21 94.5569 130.21ZM101.852 130.21C101.189 130.21 100.615 130.075 100.13 129.804C99.6443 129.524 99.271 129.109 99.0097 128.558C98.7483 128.007 98.6177 127.321 98.6177 126.5C98.6177 125.296 98.8883 124.395 99.4297 123.798C99.9803 123.191 100.732 122.888 101.684 122.888C102.43 122.888 103.028 123.056 103.476 123.392C103.933 123.728 104.26 124.181 104.456 124.75C104.652 125.319 104.745 125.963 104.736 126.682H99.1217L99.1917 125.758H104.078L103.686 125.898C103.658 125.198 103.48 124.675 103.154 124.33C102.836 123.985 102.346 123.812 101.684 123.812C101.226 123.812 100.844 123.896 100.536 124.064C100.237 124.232 100.013 124.526 99.8637 124.946C99.7143 125.357 99.6397 125.935 99.6397 126.682C99.6397 127.531 99.8357 128.18 100.228 128.628C100.629 129.067 101.189 129.286 101.908 129.286C102.253 129.286 102.57 129.263 102.86 129.216C103.149 129.16 103.415 129.085 103.658 128.992C103.9 128.899 104.115 128.796 104.302 128.684V129.72C103.966 129.879 103.592 130 103.182 130.084C102.78 130.168 102.337 130.21 101.852 130.21ZM106.624 130V123.574C106.736 123.527 106.951 123.448 107.268 123.336C107.595 123.224 107.982 123.121 108.43 123.028C108.887 122.935 109.359 122.888 109.844 122.888C109.919 122.888 109.993 122.897 110.068 122.916C110.143 122.935 110.217 122.953 110.292 122.972V123.868C110.049 123.84 109.811 123.826 109.578 123.826C109.354 123.826 109.135 123.84 108.92 123.868C108.705 123.887 108.491 123.915 108.276 123.952C108.061 123.989 107.847 124.027 107.632 124.064V130H106.624ZM114.225 130L111.271 123.014H112.349L114.925 129.132L114.701 129.188L117.207 123.014H118.215L115.247 130H114.225ZM119.887 130V123.014H120.895V130H119.887ZM119.831 121.768V120.662H120.951V121.768H119.831ZM126.12 130.112C125.747 130.112 125.364 130.065 124.972 129.972C124.59 129.869 124.235 129.692 123.908 129.44C123.591 129.179 123.334 128.81 123.138 128.334C122.942 127.858 122.844 127.247 122.844 126.5C122.844 125.753 122.942 125.147 123.138 124.68C123.334 124.204 123.591 123.835 123.908 123.574C124.235 123.313 124.59 123.135 124.972 123.042C125.364 122.939 125.747 122.888 126.12 122.888C126.475 122.888 126.825 122.921 127.17 122.986C127.525 123.051 127.866 123.149 128.192 123.28V124.246C127.884 124.115 127.567 124.017 127.24 123.952C126.914 123.887 126.578 123.854 126.232 123.854C125.402 123.854 124.795 124.064 124.412 124.484C124.039 124.904 123.852 125.576 123.852 126.5C123.852 127.433 124.039 128.11 124.412 128.53C124.795 128.941 125.402 129.146 126.232 129.146C126.578 129.146 126.914 129.113 127.24 129.048C127.567 128.983 127.884 128.885 128.192 128.754V129.734C127.866 129.855 127.525 129.949 127.17 130.014C126.825 130.079 126.475 130.112 126.12 130.112ZM124.538 131.68L125.686 130.07H126.484L125.602 131.68H124.538ZM132.955 130.21C131.863 130.21 131.051 129.888 130.519 129.244C129.996 128.591 129.735 127.685 129.735 126.528C129.735 125.315 130.01 124.405 130.561 123.798C131.121 123.191 131.91 122.888 132.927 122.888C133.683 122.888 134.299 123.042 134.775 123.35C135.251 123.649 135.601 124.073 135.825 124.624C136.049 125.165 136.161 125.8 136.161 126.528C136.161 127.676 135.881 128.577 135.321 129.23C134.77 129.883 133.982 130.21 132.955 130.21ZM132.941 129.286C133.51 129.286 133.954 129.165 134.271 128.922C134.588 128.67 134.812 128.339 134.943 127.928C135.083 127.508 135.153 127.041 135.153 126.528C135.153 125.977 135.083 125.501 134.943 125.1C134.803 124.689 134.57 124.372 134.243 124.148C133.926 123.924 133.492 123.812 132.941 123.812C132.381 123.812 131.942 123.933 131.625 124.176C131.308 124.419 131.079 124.745 130.939 125.156C130.808 125.557 130.743 126.015 130.743 126.528C130.743 127.349 130.906 128.017 131.233 128.53C131.56 129.034 132.129 129.286 132.941 129.286ZM140.03 130.21C139.526 130.21 139.101 130.159 138.756 130.056C138.42 129.953 138.07 129.809 137.706 129.622V128.558C137.995 128.717 138.252 128.852 138.476 128.964C138.7 129.076 138.928 129.16 139.162 129.216C139.395 129.263 139.661 129.286 139.96 129.286C140.426 129.286 140.804 129.183 141.094 128.978C141.392 128.773 141.542 128.507 141.542 128.18C141.542 127.919 141.467 127.718 141.318 127.578C141.178 127.438 140.996 127.321 140.772 127.228C140.548 127.135 140.314 127.037 140.072 126.934C139.801 126.859 139.526 126.78 139.246 126.696C138.975 126.603 138.723 126.486 138.49 126.346C138.266 126.197 138.084 126.01 137.944 125.786C137.804 125.553 137.734 125.254 137.734 124.89C137.734 124.535 137.804 124.232 137.944 123.98C138.093 123.728 138.284 123.523 138.518 123.364C138.751 123.196 139.012 123.075 139.302 123C139.591 122.925 139.88 122.888 140.17 122.888C140.59 122.888 140.949 122.944 141.248 123.056C141.546 123.168 141.854 123.294 142.172 123.434V124.442C141.817 124.255 141.5 124.106 141.22 123.994C140.94 123.873 140.608 123.812 140.226 123.812C139.843 123.812 139.498 123.891 139.19 124.05C138.891 124.199 138.742 124.433 138.742 124.75C138.742 125.011 138.816 125.221 138.966 125.38C139.124 125.529 139.33 125.651 139.582 125.744C139.834 125.828 140.104 125.912 140.394 125.996C140.627 126.071 140.87 126.155 141.122 126.248C141.374 126.332 141.607 126.449 141.822 126.598C142.036 126.738 142.209 126.925 142.34 127.158C142.48 127.391 142.55 127.69 142.55 128.054C142.55 128.549 142.424 128.959 142.172 129.286C141.92 129.603 141.598 129.837 141.206 129.986C140.823 130.135 140.431 130.21 140.03 130.21ZM151.399 130.21C151.063 130.21 150.708 130.159 150.335 130.056C149.962 129.963 149.607 129.785 149.271 129.524C148.944 129.253 148.674 128.871 148.459 128.376C148.254 127.872 148.151 127.219 148.151 126.416C148.151 125.333 148.412 124.479 148.935 123.854C149.467 123.219 150.27 122.902 151.343 122.902C151.548 122.902 151.791 122.93 152.071 122.986C152.351 123.042 152.626 123.112 152.897 123.196C153.168 123.28 153.392 123.369 153.569 123.462L153.219 123.812V120.06H154.227V128.796C154.227 129.057 154.134 129.281 153.947 129.468C153.77 129.645 153.536 129.79 153.247 129.902C152.958 130.005 152.65 130.079 152.323 130.126C151.996 130.182 151.688 130.21 151.399 130.21ZM151.413 129.286C151.898 129.286 152.318 129.23 152.673 129.118C153.037 129.006 153.219 128.866 153.219 128.698V124.316C152.93 124.148 152.617 124.027 152.281 123.952C151.954 123.868 151.642 123.826 151.343 123.826C150.839 123.826 150.428 123.938 150.111 124.162C149.803 124.377 149.574 124.68 149.425 125.072C149.285 125.455 149.215 125.903 149.215 126.416C149.215 126.92 149.271 127.391 149.383 127.83C149.495 128.259 149.71 128.609 150.027 128.88C150.344 129.151 150.806 129.286 151.413 129.286ZM159.342 130.21C158.25 130.21 157.438 129.888 156.906 129.244C156.383 128.591 156.122 127.685 156.122 126.528C156.122 125.315 156.397 124.405 156.948 123.798C157.508 123.191 158.296 122.888 159.314 122.888C160.07 122.888 160.686 123.042 161.162 123.35C161.638 123.649 161.988 124.073 162.212 124.624C162.436 125.165 162.548 125.8 162.548 126.528C162.548 127.676 162.268 128.577 161.708 129.23C161.157 129.883 160.368 130.21 159.342 130.21ZM159.328 129.286C159.897 129.286 160.34 129.165 160.658 128.922C160.975 128.67 161.199 128.339 161.33 127.928C161.47 127.508 161.54 127.041 161.54 126.528C161.54 125.977 161.47 125.501 161.33 125.1C161.19 124.689 160.956 124.372 160.63 124.148C160.312 123.924 159.878 123.812 159.328 123.812C158.768 123.812 158.329 123.933 158.012 124.176C157.694 124.419 157.466 124.745 157.326 125.156C157.195 125.557 157.13 126.015 157.13 126.528C157.13 127.349 157.293 128.017 157.62 128.53C157.946 129.034 158.516 129.286 159.328 129.286ZM170.477 130.21C169.973 130.21 169.548 130.159 169.203 130.056C168.867 129.953 168.517 129.809 168.153 129.622V128.558C168.442 128.717 168.699 128.852 168.923 128.964C169.147 129.076 169.375 129.16 169.609 129.216C169.842 129.263 170.108 129.286 170.407 129.286C170.873 129.286 171.251 129.183 171.541 128.978C171.839 128.773 171.989 128.507 171.989 128.18C171.989 127.919 171.914 127.718 171.765 127.578C171.625 127.438 171.443 127.321 171.219 127.228C170.995 127.135 170.761 127.037 170.519 126.934C170.248 126.859 169.973 126.78 169.693 126.696C169.422 126.603 169.17 126.486 168.937 126.346C168.713 126.197 168.531 126.01 168.391 125.786C168.251 125.553 168.181 125.254 168.181 124.89C168.181 124.535 168.251 124.232 168.391 123.98C168.54 123.728 168.731 123.523 168.965 123.364C169.198 123.196 169.459 123.075 169.749 123C170.038 122.925 170.327 122.888 170.617 122.888C171.037 122.888 171.396 122.944 171.695 123.056C171.993 123.168 172.301 123.294 172.619 123.434V124.442C172.264 124.255 171.947 124.106 171.667 123.994C171.387 123.873 171.055 123.812 170.673 123.812C170.29 123.812 169.945 123.891 169.637 124.05C169.338 124.199 169.189 124.433 169.189 124.75C169.189 125.011 169.263 125.221 169.413 125.38C169.571 125.529 169.777 125.651 170.029 125.744C170.281 125.828 170.551 125.912 170.841 125.996C171.074 126.071 171.317 126.155 171.569 126.248C171.821 126.332 172.054 126.449 172.269 126.598C172.483 126.738 172.656 126.925 172.787 127.158C172.927 127.391 172.997 127.69 172.997 128.054C172.997 128.549 172.871 128.959 172.619 129.286C172.367 129.603 172.045 129.837 171.653 129.986C171.27 130.135 170.878 130.21 170.477 130.21ZM174.944 130V123.014H175.952V130H174.944ZM174.888 121.768V120.662H176.008V121.768H174.888ZM180.225 130.21C179.721 130.21 179.296 130.159 178.951 130.056C178.615 129.953 178.265 129.809 177.901 129.622V128.558C178.19 128.717 178.447 128.852 178.671 128.964C178.895 129.076 179.124 129.16 179.357 129.216C179.59 129.263 179.856 129.286 180.155 129.286C180.622 129.286 181 129.183 181.289 128.978C181.588 128.773 181.737 128.507 181.737 128.18C181.737 127.919 181.662 127.718 181.513 127.578C181.373 127.438 181.191 127.321 180.967 127.228C180.743 127.135 180.51 127.037 180.267 126.934C179.996 126.859 179.721 126.78 179.441 126.696C179.17 126.603 178.918 126.486 178.685 126.346C178.461 126.197 178.279 126.01 178.139 125.786C177.999 125.553 177.929 125.254 177.929 124.89C177.929 124.535 177.999 124.232 178.139 123.98C178.288 123.728 178.48 123.523 178.713 123.364C178.946 123.196 179.208 123.075 179.497 123C179.786 122.925 180.076 122.888 180.365 122.888C180.785 122.888 181.144 122.944 181.443 123.056C181.742 123.168 182.05 123.294 182.367 123.434V124.442C182.012 124.255 181.695 124.106 181.415 123.994C181.135 123.873 180.804 123.812 180.421 123.812C180.038 123.812 179.693 123.891 179.385 124.05C179.086 124.199 178.937 124.433 178.937 124.75C178.937 125.011 179.012 125.221 179.161 125.38C179.32 125.529 179.525 125.651 179.777 125.744C180.029 125.828 180.3 125.912 180.589 125.996C180.822 126.071 181.065 126.155 181.317 126.248C181.569 126.332 181.802 126.449 182.017 126.598C182.232 126.738 182.404 126.925 182.535 127.158C182.675 127.391 182.745 127.69 182.745 128.054C182.745 128.549 182.619 128.959 182.367 129.286C182.115 129.603 181.793 129.837 181.401 129.986C181.018 130.135 180.626 130.21 180.225 130.21ZM186.834 130.112C186.339 130.112 185.924 129.963 185.588 129.664C185.252 129.356 185.084 128.903 185.084 128.306V123.938H183.866V123.014H185.084V121.04H186.092V123.014H187.898V123.938H186.092V127.984C186.092 128.376 186.152 128.67 186.274 128.866C186.395 129.062 186.642 129.16 187.016 129.16C187.184 129.16 187.347 129.146 187.506 129.118C187.664 129.081 187.795 129.039 187.898 128.992V129.944C187.767 129.991 187.599 130.028 187.394 130.056C187.198 130.093 187.011 130.112 186.834 130.112ZM192.606 130.21C191.943 130.21 191.369 130.075 190.884 129.804C190.398 129.524 190.025 129.109 189.764 128.558C189.502 128.007 189.372 127.321 189.372 126.5C189.372 125.296 189.642 124.395 190.184 123.798C190.734 123.191 191.486 122.888 192.438 122.888C193.184 122.888 193.782 123.056 194.23 123.392C194.687 123.728 195.014 124.181 195.21 124.75C195.406 125.319 195.499 125.963 195.49 126.682H189.876L189.946 125.758H194.832L194.44 125.898C194.412 125.198 194.234 124.675 193.908 124.33C193.59 123.985 193.1 123.812 192.438 123.812C191.98 123.812 191.598 123.896 191.29 124.064C190.991 124.232 190.767 124.526 190.618 124.946C190.468 125.357 190.394 125.935 190.394 126.682C190.394 127.531 190.59 128.18 190.982 128.628C191.383 129.067 191.943 129.286 192.662 129.286C193.007 129.286 193.324 129.263 193.614 129.216C193.903 129.16 194.169 129.085 194.412 128.992C194.654 128.899 194.869 128.796 195.056 128.684V129.72C194.72 129.879 194.346 130 193.936 130.084C193.534 130.168 193.091 130.21 192.606 130.21ZM203.104 125.45V130H202.096V125.45C202.096 125.282 202.072 125.105 202.026 124.918C201.988 124.731 201.909 124.554 201.788 124.386C201.666 124.209 201.48 124.069 201.228 123.966C200.976 123.854 200.64 123.798 200.22 123.798C199.93 123.798 199.632 123.821 199.324 123.868C199.016 123.915 198.703 123.985 198.386 124.078V130H197.378V123.574C197.602 123.462 197.83 123.364 198.064 123.28C198.306 123.187 198.549 123.112 198.792 123.056C199.044 123 199.296 122.958 199.548 122.93C199.809 122.902 200.07 122.888 200.332 122.888C201.013 122.888 201.554 122.991 201.956 123.196C202.357 123.392 202.646 123.681 202.824 124.064C203.01 124.447 203.104 124.909 203.104 125.45ZM201.774 123.854C202.082 123.621 202.394 123.434 202.712 123.294C203.029 123.154 203.356 123.051 203.692 122.986C204.037 122.921 204.382 122.888 204.728 122.888C205.409 122.888 205.95 122.991 206.352 123.196C206.753 123.392 207.042 123.681 207.22 124.064C207.406 124.447 207.5 124.909 207.5 125.45V130H206.492V125.45C206.492 125.282 206.468 125.105 206.422 124.918C206.384 124.731 206.305 124.554 206.184 124.386C206.062 124.209 205.876 124.069 205.624 123.966C205.372 123.854 205.036 123.798 204.616 123.798C204.326 123.798 204.028 123.84 203.72 123.924C203.412 124.008 203.099 124.153 202.782 124.358L201.774 123.854ZM212.145 130.21C211.837 130.21 211.525 130.177 211.207 130.112C210.899 130.047 210.61 129.935 210.339 129.776C210.078 129.617 209.863 129.403 209.695 129.132C209.537 128.852 209.457 128.502 209.457 128.082C209.457 127.503 209.565 127.041 209.779 126.696C210.003 126.341 210.307 126.089 210.689 125.94C211.081 125.781 211.529 125.702 212.033 125.702C212.416 125.702 212.747 125.725 213.027 125.772C213.307 125.819 213.555 125.889 213.769 125.982C213.993 126.066 214.194 126.164 214.371 126.276L214.567 127.2C214.353 127.041 214.04 126.906 213.629 126.794C213.228 126.673 212.785 126.612 212.299 126.612C211.711 126.612 211.259 126.724 210.941 126.948C210.624 127.172 210.465 127.499 210.465 127.928C210.465 128.273 210.559 128.549 210.745 128.754C210.941 128.959 211.184 129.104 211.473 129.188C211.772 129.272 212.075 129.314 212.383 129.314C212.99 129.314 213.447 129.272 213.755 129.188C214.073 129.095 214.231 128.889 214.231 128.572V125.366C214.231 124.825 214.073 124.428 213.755 124.176C213.438 123.924 212.985 123.798 212.397 123.798C212.024 123.798 211.627 123.854 211.207 123.966C210.797 124.069 210.442 124.237 210.143 124.47V123.462C210.433 123.275 210.82 123.135 211.305 123.042C211.791 122.939 212.262 122.888 212.719 122.888C213.027 122.888 213.312 122.921 213.573 122.986C213.835 123.042 214.068 123.131 214.273 123.252C214.479 123.364 214.651 123.513 214.791 123.7C214.941 123.877 215.053 124.087 215.127 124.33C215.211 124.563 215.253 124.829 215.253 125.128V128.516C215.253 129.011 215.104 129.379 214.805 129.622C214.516 129.865 214.133 130.023 213.657 130.098C213.191 130.173 212.687 130.21 212.145 130.21Z" fill="#C0C4CE"/>
</svg>
