<svg width="400" height="68" viewBox="0 0 400 68" fill="none" xmlns="http://www.w3.org/2000/svg">
<rect width="400" height="68" rx="8" fill="#292C34"/>
<g clip-path="url(#clip0_2149_2299)">
<path d="M42.7839 28.2775C43.0514 27.4148 43.1372 26.5059 43.0359 25.6084C42.9346 24.7108 42.6484 23.844 42.1955 23.0625C42.1187 22.9295 42.0082 22.819 41.8751 22.7422C41.7421 22.6654 41.5911 22.625 41.4375 22.625C40.4183 22.6229 39.4128 22.8591 38.5012 23.3149C37.5896 23.7707 36.7973 24.4334 36.1875 25.25H33.5625C32.9527 24.4334 32.1604 23.7707 31.2488 23.3149C30.3372 22.8591 29.3317 22.6229 28.3125 22.625C28.1589 22.625 28.0079 22.6654 27.8749 22.7422C27.7418 22.819 27.6313 22.9295 27.5545 23.0625C27.1016 23.844 26.8154 24.7108 26.7141 25.6084C26.6128 26.5059 26.6986 27.4148 26.9661 28.2775C26.4255 29.2211 26.1359 30.2876 26.125 31.375V32.25C26.1268 33.7305 26.6643 35.1604 27.6381 36.2755C28.6119 37.3907 29.9564 38.1158 31.4231 38.317C30.8244 39.0832 30.4994 40.0277 30.5 41V41.875H27.875C27.1788 41.875 26.5111 41.5985 26.0188 41.1062C25.5266 40.6139 25.25 39.9462 25.25 39.25C25.25 38.6755 25.1368 38.1066 24.917 37.5758C24.6971 37.045 24.3748 36.5627 23.9686 36.1564C23.5623 35.7502 23.08 35.4279 22.5492 35.208C22.0184 34.9882 21.4495 34.875 20.875 34.875C20.6429 34.875 20.4204 34.9672 20.2563 35.1313C20.0922 35.2954 20 35.518 20 35.75C20 35.9821 20.0922 36.2046 20.2563 36.3687C20.4204 36.5328 20.6429 36.625 20.875 36.625C21.5712 36.625 22.2389 36.9016 22.7312 37.3939C23.2234 37.8861 23.5 38.5538 23.5 39.25C23.5 40.4103 23.9609 41.5231 24.7814 42.3436C25.6019 43.1641 26.7147 43.625 27.875 43.625H30.5V45.375C30.5 45.6071 30.5922 45.8296 30.7563 45.9937C30.9204 46.1578 31.1429 46.25 31.375 46.25C31.6071 46.25 31.8296 46.1578 31.9937 45.9937C32.1578 45.8296 32.25 45.6071 32.25 45.375V41C32.25 40.3038 32.5266 39.6361 33.0188 39.1439C33.5111 38.6516 34.1788 38.375 34.875 38.375C35.5712 38.375 36.2389 38.6516 36.7312 39.1439C37.2234 39.6361 37.5 40.3038 37.5 41V45.375C37.5 45.6071 37.5922 45.8296 37.7563 45.9937C37.9204 46.1578 38.1429 46.25 38.375 46.25C38.6071 46.25 38.8296 46.1578 38.9937 45.9937C39.1578 45.8296 39.25 45.6071 39.25 45.375V41C39.2506 40.0277 38.9256 39.0832 38.3269 38.317C39.7936 38.1158 41.1381 37.3907 42.1119 36.2755C43.0857 35.1604 43.6232 33.7305 43.625 32.25V31.375C43.6141 30.2876 43.3245 29.2211 42.7839 28.2775ZM41.875 32.25C41.875 33.4103 41.4141 34.5231 40.5936 35.3436C39.7731 36.1641 38.6603 36.625 37.5 36.625H32.25C31.0897 36.625 29.9769 36.1641 29.1564 35.3436C28.3359 34.5231 27.875 33.4103 27.875 32.25V31.375C27.8857 30.5 28.1477 29.6466 28.6297 28.9163C28.7195 28.7978 28.7777 28.6585 28.7988 28.5113C28.8198 28.3641 28.803 28.214 28.75 28.0752C28.5221 27.4874 28.4124 26.8604 28.4272 26.2302C28.4421 25.5999 28.5811 24.9788 28.8364 24.4024C29.5525 24.4794 30.2421 24.7166 30.854 25.0964C31.466 25.4762 31.9846 25.9889 32.3714 26.5964C32.4502 26.7197 32.5587 26.8212 32.6869 26.8917C32.8151 26.9622 32.959 26.9995 33.1053 27H36.6436C36.7905 27 36.935 26.9631 37.0638 26.8925C37.1926 26.822 37.3017 26.7202 37.3808 26.5964C37.7676 25.9888 38.2862 25.4761 38.8981 25.0963C39.5101 24.7165 40.1997 24.4793 40.9158 24.4024C41.1707 24.9789 41.3094 25.6001 41.3239 26.2304C41.3383 26.8606 41.2283 27.4875 41 28.0752C40.9471 28.2127 40.9294 28.3613 40.9485 28.5074C40.9676 28.6535 41.0229 28.7926 41.1094 28.9119C41.5962 29.6422 41.862 30.4974 41.875 31.375V32.25Z" fill="#878EA1"/>
</g>
<path d="M65.904 40.176C64.8267 40.176 63.9093 39.9787 63.152 39.584C62.4053 39.1893 61.8347 38.5867 61.44 37.776C61.0453 36.9547 60.848 35.9147 60.848 34.656C60.848 33.408 61.0453 32.3787 61.44 31.568C61.8347 30.7467 62.4053 30.1387 63.152 29.744C63.9093 29.3493 64.8213 29.152 65.888 29.152C66.5173 29.152 67.1307 29.216 67.728 29.344C68.3253 29.4613 68.9013 29.6427 69.456 29.888V31.584C68.8907 31.3067 68.336 31.0773 67.792 30.896C67.248 30.7147 66.688 30.624 66.112 30.624C65.3333 30.624 64.6827 30.7627 64.16 31.04C63.648 31.3173 63.264 31.7493 63.008 32.336C62.752 32.9227 62.624 33.696 62.624 34.656C62.624 35.6053 62.752 36.3787 63.008 36.976C63.2747 37.5733 63.664 38.0107 64.176 38.288C64.688 38.5653 65.312 38.704 66.048 38.704C66.4213 38.704 66.7787 38.6773 67.12 38.624C67.4613 38.56 67.7867 38.4747 68.096 38.368V35.824H65.856V34.32H69.856V39.216C69.2373 39.536 68.5973 39.776 67.936 39.936C67.2747 40.096 66.5973 40.176 65.904 40.176ZM72.357 40V32.016H74.037L74.053 40H72.357ZM72.309 30.688V29.168H74.101V30.688H72.309ZM79.3293 40.208C78.6039 40.208 78.0279 40.016 77.6013 39.632C77.1853 39.248 76.9773 38.6827 76.9773 37.936V33.36H75.6813V31.968H76.9773V29.728H78.7053V31.968H80.6573V33.36H78.7053V37.6C78.7053 37.9733 78.7693 38.256 78.8973 38.448C79.0359 38.6293 79.2866 38.72 79.6493 38.72C79.8306 38.72 80.0119 38.6987 80.1933 38.656C80.3746 38.6027 80.5293 38.5387 80.6573 38.464V39.952C80.4653 40.0373 80.2466 40.1013 80.0013 40.144C79.7666 40.1867 79.5426 40.208 79.3293 40.208ZM82.6859 40V29.328H84.4459V33.92H89.3739V29.328H91.1499V40H89.3739V35.456H84.4459V40H82.6859ZM97.1423 40.24C96.4063 40.24 95.7716 40.1227 95.2383 39.888C94.7156 39.6427 94.3103 39.28 94.0223 38.8C93.7343 38.32 93.5903 37.7227 93.5903 37.008V31.968H95.2703V36.768C95.2703 37.4507 95.4196 37.9573 95.7183 38.288C96.0276 38.608 96.5023 38.768 97.1423 38.768C97.7823 38.768 98.2516 38.608 98.5503 38.288C98.8596 37.9573 99.0143 37.4507 99.0143 36.768V31.968H100.63V37.008C100.63 38.0747 100.321 38.88 99.7023 39.424C99.0943 39.968 98.2409 40.24 97.1423 40.24ZM106.389 40.24C105.951 40.24 105.53 40.2133 105.125 40.16C104.719 40.1067 104.357 40.016 104.037 39.888C103.717 39.7493 103.461 39.5627 103.269 39.328C103.087 39.0933 102.997 38.7893 102.997 38.416V28.752H104.661V33.088L104.229 32.544C104.431 32.384 104.682 32.2507 104.981 32.144C105.29 32.0373 105.599 31.952 105.909 31.888C106.229 31.824 106.501 31.792 106.725 31.792C107.941 31.792 108.853 32.1547 109.461 32.88C110.069 33.5947 110.373 34.6027 110.373 35.904C110.373 36.7787 110.255 37.4987 110.021 38.064C109.797 38.6293 109.493 39.072 109.109 39.392C108.735 39.7013 108.309 39.92 107.829 40.048C107.359 40.176 106.879 40.24 106.389 40.24ZM106.309 38.784C106.938 38.784 107.423 38.656 107.765 38.4C108.106 38.144 108.341 37.808 108.469 37.392C108.597 36.9653 108.661 36.4907 108.661 35.968C108.661 35.3707 108.581 34.8693 108.421 34.464C108.261 34.0587 108.021 33.7493 107.701 33.536C107.381 33.3227 106.97 33.216 106.469 33.216C106.191 33.216 105.887 33.2533 105.557 33.328C105.237 33.4027 104.938 33.52 104.661 33.68V38C104.661 38.2133 104.746 38.3787 104.917 38.496C105.087 38.6133 105.295 38.6933 105.541 38.736C105.797 38.768 106.053 38.784 106.309 38.784Z" fill="#C0C4CE"/>
<path d="M375.625 29V37.125C375.625 37.2908 375.559 37.4497 375.442 37.5669C375.325 37.6842 375.166 37.75 375 37.75C374.834 37.75 374.675 37.6842 374.558 37.5669C374.441 37.4497 374.375 37.2908 374.375 37.125V30.5086L365.442 39.4422C365.325 39.5595 365.166 39.6253 365 39.6253C364.834 39.6253 364.675 39.5595 364.558 39.4422C364.441 39.3249 364.375 39.1659 364.375 39C364.375 38.8341 364.441 38.6751 364.558 38.5578L373.491 29.625H366.875C366.709 29.625 366.55 29.5592 366.433 29.4419C366.316 29.3247 366.25 29.1658 366.25 29C366.25 28.8342 366.316 28.6753 366.433 28.5581C366.55 28.4408 366.709 28.375 366.875 28.375H375C375.166 28.375 375.325 28.4408 375.442 28.5581C375.559 28.6753 375.625 28.8342 375.625 29Z" fill="#3996DB"/>
<defs>
<clipPath id="clip0_2149_2299">
<rect width="28" height="28" fill="white" transform="translate(20 20)"/>
</clipPath>
</defs>
</svg>
