<svg width="400" height="68" viewBox="0 0 400 68" fill="none" xmlns="http://www.w3.org/2000/svg">
<rect width="400" height="68" rx="8" fill="#292C34"/>
<path d="M43.625 22.625H24.375C23.9109 22.625 23.4658 22.8094 23.1376 23.1376C22.8094 23.4658 22.625 23.9109 22.625 24.375V43.625C22.625 44.0891 22.8094 44.5342 23.1376 44.8624C23.4658 45.1906 23.9109 45.375 24.375 45.375H43.625C44.0891 45.375 44.5342 45.1906 44.8624 44.8624C45.1906 44.5342 45.375 44.0891 45.375 43.625V24.375C45.375 23.9109 45.1906 23.4658 44.8624 23.1376C44.5342 22.8094 44.0891 22.625 43.625 22.625ZM43.625 43.625H24.375V24.375H43.625V43.625ZM30.5 32.25V39.25C30.5 39.4821 30.4078 39.7046 30.2437 39.8687C30.0796 40.0328 29.8571 40.125 29.625 40.125C29.3929 40.125 29.1704 40.0328 29.0063 39.8687C28.8422 39.7046 28.75 39.4821 28.75 39.25V32.25C28.75 32.0179 28.8422 31.7954 29.0063 31.6313C29.1704 31.4672 29.3929 31.375 29.625 31.375C29.8571 31.375 30.0796 31.4672 30.2437 31.6313C30.4078 31.7954 30.5 32.0179 30.5 32.25ZM40.125 35.3125V39.25C40.125 39.4821 40.0328 39.7046 39.8687 39.8687C39.7046 40.0328 39.4821 40.125 39.25 40.125C39.0179 40.125 38.7954 40.0328 38.6313 39.8687C38.4672 39.7046 38.375 39.4821 38.375 39.25V35.3125C38.375 34.7323 38.1445 34.1759 37.7343 33.7657C37.3241 33.3555 36.7677 33.125 36.1875 33.125C35.6073 33.125 35.0509 33.3555 34.6407 33.7657C34.2305 34.1759 34 34.7323 34 35.3125V39.25C34 39.4821 33.9078 39.7046 33.7437 39.8687C33.5796 40.0328 33.3571 40.125 33.125 40.125C32.8929 40.125 32.6704 40.0328 32.5063 39.8687C32.3422 39.7046 32.25 39.4821 32.25 39.25V32.25C32.2511 32.0357 32.3308 31.8292 32.474 31.6697C32.6172 31.5103 32.814 31.4089 33.027 31.3849C33.24 31.3609 33.4543 31.4159 33.6295 31.5395C33.8046 31.6631 33.9283 31.8466 33.977 32.0553C34.569 31.6538 35.2591 31.421 35.9733 31.3821C36.6875 31.3432 37.3988 31.4996 38.0309 31.8344C38.6629 32.1693 39.1918 32.67 39.5607 33.2828C39.9297 33.8955 40.1248 34.5972 40.125 35.3125ZM30.9375 29.1875C30.9375 29.4471 30.8605 29.7008 30.7163 29.9167C30.5721 30.1325 30.3671 30.3008 30.1273 30.4001C29.8874 30.4994 29.6235 30.5254 29.3689 30.4748C29.1143 30.4241 28.8805 30.2991 28.6969 30.1156C28.5134 29.932 28.3884 29.6982 28.3377 29.4436C28.2871 29.189 28.3131 28.9251 28.4124 28.6852C28.5117 28.4454 28.68 28.2404 28.8958 28.0962C29.1117 27.952 29.3654 27.875 29.625 27.875C29.9731 27.875 30.3069 28.0133 30.5531 28.2594C30.7992 28.5056 30.9375 28.8394 30.9375 29.1875Z" fill="#878EA1"/>
<path d="M61.264 40V29.328H63.04V38.496H68.128V40H61.264ZM69.8101 40V32.016H71.4901L71.5061 40H69.8101ZM69.7621 30.688V29.168H71.5541V30.688H69.7621ZM73.9184 32.624C74.153 32.5067 74.4144 32.4 74.7024 32.304C75.001 32.1973 75.3157 32.1067 75.6464 32.032C75.977 31.9573 76.313 31.8987 76.6544 31.856C76.9957 31.8133 77.3264 31.792 77.6464 31.792C78.4037 31.792 79.0224 31.8987 79.5024 32.112C79.9824 32.3147 80.3397 32.6347 80.5744 33.072C80.809 33.4987 80.9264 34.0373 80.9264 34.688V40H79.2464V34.912C79.2464 34.7093 79.2197 34.512 79.1664 34.32C79.1237 34.1173 79.033 33.936 78.8944 33.776C78.7664 33.6053 78.5744 33.472 78.3184 33.376C78.073 33.28 77.7477 33.232 77.3424 33.232C77.0544 33.232 76.7557 33.2587 76.4464 33.312C76.1477 33.3653 75.865 33.44 75.5984 33.536V40H73.9184V32.624ZM84.6054 35.344L87.8854 31.968H89.9494L85.3254 36.368L84.6054 35.344ZM84.9574 40H83.2934V28.928H84.9734L84.9574 40ZM85.7094 34.8L90.3494 40H88.1894L84.5254 35.92L85.7094 34.8ZM94.7025 40.24C93.9132 40.24 93.2252 40.08 92.6385 39.76C92.0625 39.44 91.6145 38.9653 91.2945 38.336C90.9852 37.7067 90.8305 36.9387 90.8305 36.032C90.8305 34.6347 91.1558 33.5787 91.8065 32.864C92.4678 32.1387 93.3852 31.776 94.5585 31.776C95.4225 31.776 96.1212 31.968 96.6545 32.352C97.1878 32.736 97.5718 33.2747 97.8065 33.968C98.0518 34.6507 98.1692 35.4507 98.1585 36.368H91.8385L91.7905 35.12H96.8785L96.4785 35.52C96.4465 34.6987 96.2758 34.1013 95.9665 33.728C95.6572 33.344 95.1718 33.152 94.5105 33.152C94.0838 33.152 93.7212 33.2427 93.4225 33.424C93.1238 33.5947 92.8945 33.8933 92.7345 34.32C92.5852 34.736 92.5105 35.312 92.5105 36.048C92.5105 36.944 92.7185 37.6267 93.1345 38.096C93.5505 38.5547 94.1638 38.784 94.9745 38.784C95.3372 38.784 95.6732 38.752 95.9825 38.688C96.3025 38.624 96.5958 38.544 96.8625 38.448C97.1292 38.3413 97.3585 38.24 97.5505 38.144V39.696C97.1772 39.856 96.7558 39.984 96.2865 40.08C95.8172 40.1867 95.2892 40.24 94.7025 40.24ZM103.642 40.24C103.152 40.24 102.672 40.176 102.202 40.048C101.733 39.9307 101.306 39.7173 100.922 39.408C100.538 39.088 100.234 38.6453 100.01 38.08C99.7863 37.5147 99.6743 36.784 99.6743 35.888C99.6743 34.6187 99.9836 33.616 100.602 32.88C101.221 32.144 102.16 31.776 103.418 31.776C103.621 31.776 103.872 31.8027 104.17 31.856C104.469 31.9093 104.773 31.9893 105.082 32.096C105.392 32.192 105.653 32.32 105.866 32.48L105.434 33.04V28.608H107.098V38.32C107.098 38.6507 106.992 38.9387 106.778 39.184C106.576 39.4293 106.304 39.632 105.962 39.792C105.621 39.9413 105.248 40.0533 104.842 40.128C104.437 40.2027 104.037 40.24 103.642 40.24ZM103.69 38.784C104.17 38.784 104.581 38.7253 104.922 38.608C105.264 38.4907 105.434 38.336 105.434 38.144V33.68C105.157 33.52 104.864 33.4027 104.554 33.328C104.245 33.2533 103.946 33.216 103.658 33.216C103.136 33.216 102.704 33.3227 102.362 33.536C102.032 33.7387 101.786 34.0427 101.626 34.448C101.466 34.8427 101.386 35.3333 101.386 35.92C101.386 36.4533 101.45 36.9387 101.578 37.376C101.706 37.8027 101.936 38.144 102.266 38.4C102.608 38.656 103.082 38.784 103.69 38.784ZM109.513 40V32.016H111.193L111.209 40H109.513ZM109.465 30.688V29.168H111.257V30.688H109.465ZM113.622 32.624C113.856 32.5067 114.118 32.4 114.406 32.304C114.704 32.1973 115.019 32.1067 115.35 32.032C115.68 31.9573 116.016 31.8987 116.358 31.856C116.699 31.8133 117.03 31.792 117.35 31.792C118.107 31.792 118.726 31.8987 119.206 32.112C119.686 32.3147 120.043 32.6347 120.278 33.072C120.512 33.4987 120.63 34.0373 120.63 34.688V40H118.95V34.912C118.95 34.7093 118.923 34.512 118.87 34.32C118.827 34.1173 118.736 33.936 118.598 33.776C118.47 33.6053 118.278 33.472 118.022 33.376C117.776 33.28 117.451 33.232 117.046 33.232C116.758 33.232 116.459 33.2587 116.15 33.312C115.851 33.3653 115.568 33.44 115.302 33.536V40H113.622V32.624Z" fill="#C0C4CE"/>
<path d="M375.625 29V37.125C375.625 37.2908 375.559 37.4497 375.442 37.5669C375.325 37.6842 375.166 37.75 375 37.75C374.834 37.75 374.675 37.6842 374.558 37.5669C374.441 37.4497 374.375 37.2908 374.375 37.125V30.5086L365.442 39.4422C365.325 39.5595 365.166 39.6253 365 39.6253C364.834 39.6253 364.675 39.5595 364.558 39.4422C364.441 39.3249 364.375 39.1659 364.375 39C364.375 38.8341 364.441 38.6751 364.558 38.5578L373.491 29.625H366.875C366.709 29.625 366.55 29.5592 366.433 29.4419C366.316 29.3247 366.25 29.1658 366.25 29C366.25 28.8342 366.316 28.6753 366.433 28.5581C366.55 28.4408 366.709 28.375 366.875 28.375H375C375.166 28.375 375.325 28.4408 375.442 28.5581C375.559 28.6753 375.625 28.8342 375.625 29Z" fill="#3996DB"/>
</svg>
