<svg width="400" height="68" viewBox="0 0 400 68" fill="none" xmlns="http://www.w3.org/2000/svg">
<rect width="400" height="68" rx="8" fill="#292C34"/>
<path d="M34 28.75C32.9616 28.75 31.9466 29.0579 31.0833 29.6348C30.2199 30.2117 29.547 31.0316 29.1496 31.9909C28.7523 32.9502 28.6483 34.0058 28.8509 35.0242C29.0535 36.0426 29.5535 36.9781 30.2877 37.7123C31.0219 38.4465 31.9574 38.9466 32.9758 39.1491C33.9942 39.3517 35.0498 39.2477 36.0091 38.8504C36.9684 38.453 37.7883 37.7801 38.3652 36.9167C38.9421 36.0534 39.25 35.0384 39.25 34C39.2486 32.6081 38.695 31.2735 37.7107 30.2893C36.7265 29.305 35.3919 28.7514 34 28.75ZM34 37.5C33.3078 37.5 32.6311 37.2947 32.0555 36.9101C31.4799 36.5256 31.0313 35.9789 30.7664 35.3394C30.5015 34.6999 30.4322 33.9961 30.5673 33.3172C30.7023 32.6383 31.0356 32.0146 31.5251 31.5251C32.0146 31.0356 32.6383 30.7023 33.3172 30.5673C33.9961 30.4322 34.6999 30.5015 35.3394 30.7664C35.9789 31.0313 36.5256 31.4799 36.9101 32.0555C37.2947 32.6311 37.5 33.3078 37.5 34C37.5 34.9283 37.1313 35.8185 36.4749 36.4749C35.8185 37.1313 34.9283 37.5 34 37.5ZM39.25 22.625H28.75C27.1261 22.6267 25.5692 23.2726 24.4209 24.4209C23.2726 25.5692 22.6267 27.1261 22.625 28.75V39.25C22.6267 40.8739 23.2726 42.4308 24.4209 43.5791C25.5692 44.7274 27.1261 45.3733 28.75 45.375H39.25C40.8739 45.3733 42.4308 44.7274 43.5791 43.5791C44.7274 42.4308 45.3733 40.8739 45.375 39.25V28.75C45.3733 27.1261 44.7274 25.5692 43.5791 24.4209C42.4308 23.2726 40.8739 22.6267 39.25 22.625ZM43.625 39.25C43.625 40.4103 43.1641 41.5231 42.3436 42.3436C41.5231 43.1641 40.4103 43.625 39.25 43.625H28.75C27.5897 43.625 26.4769 43.1641 25.6564 42.3436C24.8359 41.5231 24.375 40.4103 24.375 39.25V28.75C24.375 27.5897 24.8359 26.4769 25.6564 25.6564C26.4769 24.8359 27.5897 24.375 28.75 24.375H39.25C40.4103 24.375 41.5231 24.8359 42.3436 25.6564C43.1641 26.4769 43.625 27.5897 43.625 28.75V39.25ZM41 28.3125C41 28.5721 40.923 28.8258 40.7788 29.0417C40.6346 29.2575 40.4296 29.4258 40.1898 29.5251C39.9499 29.6244 39.686 29.6504 39.4314 29.5998C39.1768 29.5491 38.943 29.4241 38.7594 29.2406C38.5759 29.057 38.4509 28.8232 38.4002 28.5686C38.3496 28.314 38.3756 28.0501 38.4749 27.8102C38.5742 27.5704 38.7425 27.3654 38.9583 27.2212C39.1742 27.077 39.4279 27 39.6875 27C40.0356 27 40.3694 27.1383 40.6156 27.3844C40.8617 27.6306 41 27.9644 41 28.3125Z" fill="#878EA1"/>
<path d="M61.264 40V29.328H63.04V40H61.264ZM65.4809 32.624C65.7155 32.5067 65.9769 32.4 66.2649 32.304C66.5635 32.1973 66.8782 32.1067 67.2089 32.032C67.5395 31.9573 67.8755 31.8987 68.2169 31.856C68.5582 31.8133 68.8889 31.792 69.2089 31.792C69.9662 31.792 70.5849 31.8987 71.0649 32.112C71.5449 32.3147 71.9022 32.6347 72.1369 33.072C72.3715 33.4987 72.4889 34.0373 72.4889 34.688V40H70.8089V34.912C70.8089 34.7093 70.7822 34.512 70.7289 34.32C70.6862 34.1173 70.5955 33.936 70.4569 33.776C70.3289 33.6053 70.1369 33.472 69.8809 33.376C69.6355 33.28 69.3102 33.232 68.9049 33.232C68.6169 33.232 68.3182 33.2587 68.0089 33.312C67.7102 33.3653 67.4275 33.44 67.1609 33.536V40H65.4809V32.624ZM77.1759 40.24C76.5999 40.24 76.1092 40.176 75.7039 40.048C75.3092 39.9307 74.9199 39.7813 74.5359 39.6V38.016C74.8132 38.1867 75.0852 38.3413 75.3519 38.48C75.6185 38.608 75.8959 38.7093 76.1839 38.784C76.4825 38.8587 76.8132 38.896 77.1759 38.896C77.6345 38.896 77.9919 38.8 78.2479 38.608C78.5145 38.416 78.6479 38.176 78.6479 37.888C78.6479 37.6427 78.5625 37.4507 78.3919 37.312C78.2319 37.1733 78.0239 37.056 77.7679 36.96C77.5119 36.864 77.2452 36.768 76.9679 36.672C76.6799 36.5973 76.3919 36.512 76.1039 36.416C75.8159 36.3093 75.5492 36.1707 75.3039 36C75.0692 35.8187 74.8772 35.5893 74.7279 35.312C74.5892 35.0347 74.5199 34.6933 74.5199 34.288C74.5199 33.84 74.6105 33.4613 74.7919 33.152C74.9732 32.832 75.2079 32.576 75.4959 32.384C75.7945 32.1813 76.1199 32.0373 76.4719 31.952C76.8345 31.856 77.1865 31.808 77.5279 31.808C78.0932 31.8187 78.5519 31.888 78.9039 32.016C79.2665 32.144 79.6185 32.2987 79.9599 32.48L79.9759 33.92C79.5919 33.7173 79.2292 33.5413 78.8879 33.392C78.5465 33.2427 78.1519 33.168 77.7039 33.168C77.2879 33.168 76.9412 33.248 76.6639 33.408C76.3865 33.5573 76.2479 33.7813 76.2479 34.08C76.2479 34.336 76.3225 34.5387 76.4719 34.688C76.6319 34.8373 76.8345 34.9547 77.0799 35.04C77.3359 35.1253 77.6079 35.2107 77.8959 35.296C78.1625 35.3813 78.4399 35.472 78.7279 35.568C79.0159 35.6533 79.2825 35.7813 79.5279 35.952C79.7732 36.1227 79.9705 36.3467 80.1199 36.624C80.2799 36.9013 80.3599 37.264 80.3599 37.712C80.3492 38.3093 80.1892 38.7947 79.8799 39.168C79.5812 39.5413 79.1865 39.8133 78.6959 39.984C78.2052 40.1547 77.6985 40.24 77.1759 40.24ZM85.1886 40.208C84.4633 40.208 83.8873 40.016 83.4606 39.632C83.0446 39.248 82.8366 38.6827 82.8366 37.936V33.36H81.5406V31.968H82.8366V29.728H84.5646V31.968H86.5166V33.36H84.5646V37.6C84.5646 37.9733 84.6286 38.256 84.7566 38.448C84.8953 38.6293 85.146 38.72 85.5086 38.72C85.69 38.72 85.8713 38.6987 86.0526 38.656C86.234 38.6027 86.3886 38.5387 86.5166 38.464V39.952C86.3246 40.0373 86.106 40.1013 85.8606 40.144C85.626 40.1867 85.402 40.208 85.1886 40.208ZM91.3773 40.24C90.9613 40.24 90.5613 40.1973 90.1773 40.112C89.7933 40.0373 89.4413 39.904 89.1213 39.712C88.8119 39.52 88.5613 39.2587 88.3693 38.928C88.1879 38.5867 88.0973 38.1653 88.0973 37.664C88.0973 37.0667 88.2146 36.576 88.4493 36.192C88.6839 35.808 89.0199 35.52 89.4573 35.328C89.8946 35.136 90.4173 35.04 91.0253 35.04C91.4306 35.04 91.7933 35.072 92.1133 35.136C92.4439 35.2 92.7373 35.2907 92.9933 35.408C93.2599 35.5147 93.4839 35.6373 93.6653 35.776L93.8413 36.88C93.6066 36.72 93.2919 36.5867 92.8973 36.48C92.5026 36.3627 92.0759 36.304 91.6173 36.304C91.0093 36.304 90.5453 36.4107 90.2253 36.624C89.9159 36.8373 89.7613 37.1573 89.7613 37.584C89.7613 37.904 89.8519 38.1653 90.0333 38.368C90.2146 38.56 90.4386 38.704 90.7053 38.8C90.9826 38.8853 91.2706 38.928 91.5693 38.928C92.1986 38.928 92.6626 38.8853 92.9613 38.8C93.2599 38.7147 93.4093 38.5173 93.4093 38.208V34.848C93.4093 34.2827 93.2386 33.872 92.8973 33.616C92.5559 33.3493 92.0706 33.216 91.4413 33.216C90.9933 33.216 90.5293 33.2907 90.0493 33.44C89.5693 33.5787 89.1746 33.776 88.8653 34.032V32.464C89.1639 32.2613 89.5959 32.1013 90.1613 31.984C90.7373 31.856 91.3293 31.792 91.9373 31.792C92.2359 31.792 92.5346 31.824 92.8333 31.888C93.1426 31.9413 93.4306 32.032 93.6973 32.16C93.9639 32.2773 94.1986 32.4427 94.4013 32.656C94.6146 32.8587 94.7799 33.1093 94.8973 33.408C95.0146 33.7067 95.0733 34.0587 95.0733 34.464V38.304C95.0733 38.8267 94.9079 39.232 94.5773 39.52C94.2573 39.7973 93.8199 39.984 93.2653 40.08C92.7106 40.1867 92.0813 40.24 91.3773 40.24ZM100.618 40.24C99.8393 40.2293 99.178 40.0693 98.634 39.76C98.1007 39.44 97.6953 38.9813 97.418 38.384C97.1513 37.7867 97.018 37.0613 97.018 36.208C97.018 35.3013 97.13 34.56 97.354 33.984C97.5887 33.408 97.9033 32.96 98.298 32.64C98.7033 32.32 99.1567 32.1013 99.658 31.984C100.17 31.856 100.698 31.792 101.242 31.792C101.818 31.792 102.341 31.8667 102.81 32.016C103.279 32.1653 103.658 32.3947 103.946 32.704C104.234 33.0027 104.378 33.392 104.378 33.872V40.24C104.378 40.6667 104.309 41.0613 104.17 41.424C104.042 41.7973 103.829 42.128 103.53 42.416C103.242 42.704 102.858 42.928 102.378 43.088C101.898 43.248 101.311 43.328 100.618 43.328C100.063 43.328 99.5673 43.28 99.13 43.184C98.6927 43.0987 98.33 43.008 98.042 42.912V41.376C98.2127 41.44 98.426 41.5093 98.682 41.584C98.938 41.6587 99.2207 41.7227 99.53 41.776C99.85 41.84 100.175 41.872 100.506 41.872C101.135 41.872 101.605 41.792 101.914 41.632C102.234 41.472 102.447 41.264 102.554 41.008C102.661 40.7627 102.714 40.496 102.714 40.208V38.992L103.162 39.36C102.97 39.52 102.73 39.6693 102.442 39.808C102.165 39.936 101.866 40.0373 101.546 40.112C101.237 40.1973 100.927 40.24 100.618 40.24ZM100.89 38.88C101.199 38.88 101.514 38.8427 101.834 38.768C102.154 38.6827 102.447 38.56 102.714 38.4V34.192C102.714 33.9147 102.639 33.712 102.49 33.584C102.351 33.4453 102.159 33.3493 101.914 33.296C101.669 33.2427 101.407 33.216 101.13 33.216C100.479 33.216 99.978 33.3493 99.626 33.616C99.2847 33.872 99.05 34.224 98.922 34.672C98.794 35.12 98.73 35.616 98.73 36.16C98.73 36.9707 98.906 37.6267 99.258 38.128C99.61 38.6293 100.154 38.88 100.89 38.88ZM106.7 40V32.704C106.838 32.6187 107.094 32.5013 107.468 32.352C107.841 32.2027 108.284 32.0747 108.796 31.968C109.308 31.8507 109.825 31.792 110.348 31.792C110.614 31.792 110.833 31.8133 111.004 31.856C111.174 31.8987 111.318 31.9467 111.436 32V33.344C111.19 33.312 110.934 33.2907 110.668 33.28C110.401 33.2587 110.134 33.2587 109.868 33.28C109.601 33.2907 109.34 33.312 109.084 33.344C108.828 33.376 108.593 33.408 108.38 33.44V40H106.7ZM116.002 40.24C115.586 40.24 115.186 40.1973 114.802 40.112C114.418 40.0373 114.066 39.904 113.746 39.712C113.437 39.52 113.186 39.2587 112.994 38.928C112.813 38.5867 112.722 38.1653 112.722 37.664C112.722 37.0667 112.84 36.576 113.074 36.192C113.309 35.808 113.645 35.52 114.082 35.328C114.52 35.136 115.042 35.04 115.65 35.04C116.056 35.04 116.418 35.072 116.738 35.136C117.069 35.2 117.362 35.2907 117.618 35.408C117.885 35.5147 118.109 35.6373 118.29 35.776L118.466 36.88C118.232 36.72 117.917 36.5867 117.522 36.48C117.128 36.3627 116.701 36.304 116.242 36.304C115.634 36.304 115.17 36.4107 114.85 36.624C114.541 36.8373 114.386 37.1573 114.386 37.584C114.386 37.904 114.477 38.1653 114.658 38.368C114.84 38.56 115.064 38.704 115.33 38.8C115.608 38.8853 115.896 38.928 116.194 38.928C116.824 38.928 117.288 38.8853 117.586 38.8C117.885 38.7147 118.034 38.5173 118.034 38.208V34.848C118.034 34.2827 117.864 33.872 117.522 33.616C117.181 33.3493 116.696 33.216 116.066 33.216C115.618 33.216 115.154 33.2907 114.674 33.44C114.194 33.5787 113.8 33.776 113.49 34.032V32.464C113.789 32.2613 114.221 32.1013 114.786 31.984C115.362 31.856 115.954 31.792 116.562 31.792C116.861 31.792 117.16 31.824 117.458 31.888C117.768 31.9413 118.056 32.032 118.322 32.16C118.589 32.2773 118.824 32.4427 119.026 32.656C119.24 32.8587 119.405 33.1093 119.522 33.408C119.64 33.7067 119.698 34.0587 119.698 34.464V38.304C119.698 38.8267 119.533 39.232 119.202 39.52C118.882 39.7973 118.445 39.984 117.89 40.08C117.336 40.1867 116.706 40.24 116.002 40.24ZM129.019 34.688V40H127.339V34.912C127.339 34.7093 127.312 34.512 127.259 34.32C127.216 34.1173 127.126 33.936 126.987 33.776C126.859 33.6053 126.667 33.472 126.411 33.376C126.166 33.28 125.84 33.232 125.435 33.232C125.147 33.232 124.859 33.2587 124.571 33.312C124.283 33.3653 124.006 33.44 123.739 33.536V40H122.059V32.624C122.294 32.5067 122.555 32.4 122.843 32.304C123.142 32.1973 123.456 32.1067 123.787 32.032C124.118 31.9573 124.454 31.8987 124.795 31.856C125.136 31.8133 125.467 31.792 125.787 31.792C126.544 31.792 127.158 31.8987 127.627 32.112C128.096 32.3147 128.443 32.6347 128.667 33.072C128.902 33.4987 129.019 34.0373 129.019 34.688ZM127.099 33.04C127.44 32.7627 127.814 32.5333 128.219 32.352C128.635 32.1707 129.062 32.032 129.499 31.936C129.947 31.84 130.384 31.792 130.811 31.792C131.568 31.792 132.182 31.8987 132.651 32.112C133.12 32.3147 133.467 32.6347 133.691 33.072C133.926 33.4987 134.043 34.0373 134.043 34.688V40H132.363V34.912C132.363 34.7093 132.336 34.512 132.283 34.32C132.24 34.1173 132.15 33.936 132.011 33.776C131.883 33.6053 131.691 33.472 131.435 33.376C131.19 33.28 130.864 33.232 130.459 33.232C130.171 33.232 129.883 33.2747 129.595 33.36C129.307 33.4453 129.03 33.5787 128.763 33.76L127.099 33.04Z" fill="#C0C4CE"/>
<path d="M375.625 29V37.125C375.625 37.2908 375.559 37.4497 375.442 37.5669C375.325 37.6842 375.166 37.75 375 37.75C374.834 37.75 374.675 37.6842 374.558 37.5669C374.441 37.4497 374.375 37.2908 374.375 37.125V30.5086L365.442 39.4422C365.325 39.5595 365.166 39.6253 365 39.6253C364.834 39.6253 364.675 39.5595 364.558 39.4422C364.441 39.3249 364.375 39.1659 364.375 39C364.375 38.8341 364.441 38.6751 364.558 38.5578L373.491 29.625H366.875C366.709 29.625 366.55 29.5592 366.433 29.4419C366.316 29.3247 366.25 29.1658 366.25 29C366.25 28.8342 366.316 28.6753 366.433 28.5581C366.55 28.4408 366.709 28.375 366.875 28.375H375C375.166 28.375 375.325 28.4408 375.442 28.5581C375.559 28.6753 375.625 28.8342 375.625 29Z" fill="#3996DB"/>
</svg>
